<svg width="414" height="522" viewBox="0 0 414 522" fill="none" xmlns="http://www.w3.org/2000/svg">
<path fill-rule="evenodd" clip-rule="evenodd" d="M258.908 221.87C256.861 220.686 256.16 218.064 257.342 216.014C258.523 213.963 261.14 213.261 263.186 214.445C264.995 215.491 265.753 217.661 265.088 219.567L331.912 258.225C333.227 256.696 335.481 256.268 337.29 257.315C339.337 258.499 340.038 261.121 338.856 263.171C337.675 265.221 335.058 265.924 333.012 264.74C331.203 263.694 330.445 261.524 331.11 259.618L264.286 220.959C262.971 222.489 260.717 222.916 258.908 221.87Z" fill="white"/>
<path fill-rule="evenodd" clip-rule="evenodd" d="M263.186 478.555C261.14 479.739 258.523 479.037 257.342 476.986C256.16 474.936 256.861 472.314 258.908 471.13C260.717 470.084 262.971 470.511 264.286 472.041L331.11 433.382C330.445 431.476 331.203 429.306 333.012 428.26C335.058 427.076 337.675 427.779 338.856 429.829C340.038 431.879 339.337 434.501 337.29 435.685C335.481 436.732 333.227 436.304 331.912 434.775L265.088 473.433C265.753 475.339 264.995 477.509 263.186 478.555Z" fill="white"/>
<path fill-rule="evenodd" clip-rule="evenodd" d="M-330.443 389.102C-330.443 391.47 -332.359 393.389 -334.722 393.389C-337.084 393.389 -339 391.47 -339 389.102C-339 387.009 -337.503 385.267 -335.524 384.891V307.574C-337.503 307.197 -339 305.455 -339 303.362C-339 300.994 -337.084 299.075 -334.722 299.075C-332.359 299.075 -330.443 300.994 -330.443 303.362C-330.443 305.455 -331.94 307.197 -333.919 307.574V384.891C-331.94 385.267 -330.443 387.009 -330.443 389.102Z" fill="white"/>
<path fill-rule="evenodd" clip-rule="evenodd" d="M405.443 389.638C405.443 392.006 407.359 393.925 409.722 393.925C412.084 393.925 414 392.006 414 389.638C414 387.545 412.503 385.803 410.524 385.426V308.109C412.503 307.733 414 305.991 414 303.898C414 301.53 412.084 299.611 409.722 299.611C407.359 299.611 405.443 301.53 405.443 303.898C405.443 305.991 406.94 307.733 408.919 308.109V385.426C406.94 385.803 405.443 387.545 405.443 389.638Z" fill="white"/>
<path fill-rule="evenodd" clip-rule="evenodd" d="M181.9 433.383C181.747 432.941 181.663 432.466 181.663 431.973C181.663 429.605 183.579 427.686 185.942 427.686C185.981 427.686 186.019 427.686 186.058 427.687C186.097 427.686 186.136 427.686 186.175 427.686C188.538 427.686 190.453 429.605 190.453 431.973C190.453 432.466 190.37 432.941 190.216 433.383L261.883 474.843L190.216 516.303C190.37 516.745 190.453 517.219 190.453 517.713C190.453 520.081 188.538 522 186.175 522C186.136 522 186.097 521.999 186.058 521.998C186.019 521.999 185.981 522 185.942 522C183.579 522 181.663 520.081 181.663 517.713C181.663 517.219 181.747 516.745 181.9 516.303L110.233 474.843L181.9 433.383ZM182.703 434.774L113.442 474.843L182.703 514.911C183.488 514.002 184.648 513.426 185.942 513.426C185.981 513.426 186.019 513.427 186.058 513.428C186.097 513.427 186.136 513.426 186.175 513.426C187.469 513.426 188.629 514.002 189.413 514.911L258.675 474.843L189.413 434.774C188.629 435.684 187.469 436.26 186.175 436.26C186.136 436.26 186.097 436.259 186.058 436.258C186.019 436.259 185.981 436.26 185.942 436.26C184.648 436.26 183.488 435.684 182.703 434.774Z" fill="white"/>
<path d="M264.79 474.843C264.79 477.21 262.875 479.13 260.512 479.13C258.149 479.13 256.234 477.21 256.234 474.843C256.234 472.475 258.149 470.556 260.512 470.556C262.875 470.556 264.79 472.475 264.79 474.843Z" fill="white"/>
<path d="M190.453 517.713C190.453 520.081 188.538 522 186.175 522C183.812 522 181.896 520.081 181.896 517.713C181.896 515.345 183.812 513.426 186.175 513.426C188.538 513.426 190.453 515.345 190.453 517.713Z" fill="white"/>
<path d="M116.116 474.843C116.116 477.21 114.2 479.13 111.837 479.13C109.474 479.13 107.559 477.21 107.559 474.843C107.559 472.475 109.474 470.556 111.837 470.556C114.2 470.556 116.116 472.475 116.116 474.843Z" fill="white"/>
<path d="M190.453 431.973C190.453 434.34 188.538 436.26 186.175 436.26C183.812 436.26 181.896 434.34 181.896 431.973C181.896 429.605 183.812 427.686 186.175 427.686C188.538 427.686 190.453 429.605 190.453 431.973Z" fill="white"/>
<path fill-rule="evenodd" clip-rule="evenodd" d="M181.9 262.437C181.747 261.996 181.663 261.521 181.663 261.027C181.663 258.66 183.579 256.74 185.942 256.74C185.981 256.74 186.019 256.741 186.058 256.742C186.097 256.741 186.136 256.74 186.175 256.74C188.538 256.74 190.453 258.66 190.453 261.027C190.453 261.521 190.37 261.996 190.216 262.437L261.883 303.898L190.216 345.358C190.37 345.8 190.453 346.274 190.453 346.768C190.453 349.136 188.538 351.055 186.175 351.055C186.136 351.055 186.097 351.054 186.058 351.053C186.019 351.054 185.981 351.055 185.942 351.055C183.579 351.055 181.663 349.136 181.663 346.768C181.663 346.274 181.747 345.8 181.9 345.358L110.233 303.898L181.9 262.437ZM182.703 263.829L113.442 303.898L182.703 343.966C183.488 343.057 184.648 342.481 185.942 342.481C185.981 342.481 186.019 342.481 186.058 342.482C186.097 342.481 186.136 342.481 186.175 342.481C187.469 342.481 188.629 343.057 189.413 343.966L258.675 303.898L189.413 263.829C188.629 264.739 187.469 265.315 186.175 265.315C186.136 265.315 186.097 265.314 186.058 265.313C186.019 265.314 185.981 265.315 185.942 265.315C184.648 265.315 183.488 264.739 182.703 263.829Z" fill="white"/>
<path d="M264.79 303.898C264.79 306.265 262.875 308.185 260.512 308.185C258.149 308.185 256.234 306.265 256.234 303.898C256.234 301.53 258.149 299.611 260.512 299.611C262.875 299.611 264.79 301.53 264.79 303.898Z" fill="white"/>
<path d="M190.453 346.768C190.453 349.136 188.538 351.055 186.175 351.055C183.812 351.055 181.896 349.136 181.896 346.768C181.896 344.4 183.812 342.481 186.175 342.481C188.538 342.481 190.453 344.4 190.453 346.768Z" fill="white"/>
<path d="M116.116 303.898C116.116 306.265 114.2 308.185 111.837 308.185C109.474 308.185 107.559 306.265 107.559 303.898C107.559 301.53 109.474 299.611 111.837 299.611C114.2 299.611 116.116 301.53 116.116 303.898Z" fill="white"/>
<path d="M190.453 261.027C190.453 263.395 188.538 265.315 186.175 265.315C183.812 265.315 181.896 263.395 181.896 261.027C181.896 258.66 183.812 256.74 186.175 256.74C188.538 256.74 190.453 258.66 190.453 261.027Z" fill="white"/>
<path fill-rule="evenodd" clip-rule="evenodd" d="M181.9 347.642C181.747 347.2 181.663 346.726 181.663 346.232C181.663 343.864 183.579 341.945 185.942 341.945C185.981 341.945 186.019 341.946 186.058 341.947C186.097 341.946 186.136 341.945 186.175 341.945C188.538 341.945 190.453 343.864 190.453 346.232C190.453 346.726 190.37 347.2 190.216 347.642L261.883 389.102L190.216 430.563C190.37 431.004 190.453 431.479 190.453 431.973C190.453 434.34 188.538 436.26 186.175 436.26C186.136 436.26 186.097 436.259 186.058 436.258C186.019 436.259 185.981 436.26 185.942 436.26C183.579 436.26 181.663 434.34 181.663 431.973C181.663 431.479 181.747 431.004 181.9 430.563L110.233 389.102L181.9 347.642ZM182.703 349.034L113.442 389.102L182.703 429.171C183.488 428.261 184.648 427.686 185.942 427.686C185.981 427.686 186.019 427.686 186.058 427.687C186.097 427.686 186.136 427.686 186.175 427.686C187.469 427.686 188.629 428.261 189.413 429.171L258.675 389.102L189.413 349.034C188.629 349.943 187.469 350.519 186.175 350.519C186.136 350.519 186.097 350.519 186.058 350.518C186.019 350.519 185.981 350.519 185.942 350.519C184.648 350.519 183.488 349.943 182.703 349.034Z" fill="white"/>
<path d="M264.79 389.102C264.79 391.47 262.875 393.389 260.512 393.389C258.149 393.389 256.234 391.47 256.234 389.102C256.234 386.735 258.149 384.815 260.512 384.815C262.875 384.815 264.79 386.735 264.79 389.102Z" fill="white"/>
<path d="M190.453 431.973C190.453 434.34 188.538 436.26 186.175 436.26C183.812 436.26 181.896 434.34 181.896 431.973C181.896 429.605 183.812 427.686 186.175 427.686C188.538 427.686 190.453 429.605 190.453 431.973Z" fill="white"/>
<path d="M116.116 389.102C116.116 391.47 114.2 393.389 111.837 393.389C109.474 393.389 107.559 391.47 107.559 389.102C107.559 386.735 109.474 384.815 111.837 384.815C114.2 384.815 116.116 386.735 116.116 389.102Z" fill="white"/>
<path d="M190.453 346.232C190.453 348.6 188.538 350.519 186.175 350.519C183.812 350.519 181.896 348.6 181.896 346.232C181.896 343.864 183.812 341.945 186.175 341.945C188.538 341.945 190.453 343.864 190.453 346.232Z" fill="white"/>
<path fill-rule="evenodd" clip-rule="evenodd" d="M181.9 176.697C181.747 176.255 181.663 175.781 181.663 175.287C181.663 172.919 183.579 171 185.942 171C185.981 171 186.019 171.001 186.058 171.002C186.097 171.001 186.136 171 186.175 171C188.538 171 190.453 172.919 190.453 175.287C190.453 175.781 190.37 176.255 190.216 176.697L261.883 218.157L190.216 259.618C190.37 260.059 190.453 260.534 190.453 261.027C190.453 263.395 188.538 265.315 186.175 265.315C186.136 265.315 186.097 265.314 186.058 265.313C186.019 265.314 185.981 265.315 185.942 265.315C183.579 265.315 181.663 263.395 181.663 261.027C181.663 260.534 181.747 260.059 181.9 259.618L110.233 218.157L181.9 176.697ZM182.703 178.089L113.442 218.157L182.703 258.226C183.488 257.316 184.648 256.74 185.942 256.74C185.981 256.74 186.019 256.741 186.058 256.742C186.097 256.741 186.136 256.74 186.175 256.74C187.469 256.74 188.629 257.316 189.413 258.226L258.675 218.157L189.413 178.089C188.629 178.998 187.469 179.574 186.175 179.574C186.136 179.574 186.097 179.574 186.058 179.572C186.019 179.574 185.981 179.574 185.942 179.574C184.648 179.574 183.488 178.998 182.703 178.089Z" fill="white"/>
<path d="M264.79 218.157C264.79 220.525 262.875 222.444 260.512 222.444C258.149 222.444 256.234 220.525 256.234 218.157C256.234 215.79 258.149 213.87 260.512 213.87C262.875 213.87 264.79 215.79 264.79 218.157Z" fill="white"/>
<path d="M190.453 261.027C190.453 263.395 188.538 265.315 186.175 265.315C183.812 265.315 181.896 263.395 181.896 261.027C181.896 258.66 183.812 256.74 186.175 256.74C188.538 256.74 190.453 258.66 190.453 261.027Z" fill="white"/>
<path d="M116.116 218.157C116.116 220.525 114.2 222.444 111.837 222.444C109.474 222.444 107.559 220.525 107.559 218.157C107.559 215.79 109.474 213.87 111.837 213.87C114.2 213.87 116.116 215.79 116.116 218.157Z" fill="white"/>
<path d="M190.453 175.287C190.453 177.655 188.538 179.574 186.175 179.574C183.812 179.574 181.896 177.655 181.896 175.287C181.896 172.919 183.812 171 186.175 171C188.538 171 190.453 172.919 190.453 175.287Z" fill="white"/>
<path fill-rule="evenodd" clip-rule="evenodd" d="M-115.984 433.383C-116.138 432.941 -116.221 432.466 -116.221 431.973C-116.221 429.605 -114.306 427.686 -111.943 427.686C-111.904 427.686 -111.865 427.686 -111.826 427.687C-111.787 427.686 -111.749 427.686 -111.71 427.686C-109.347 427.686 -107.431 429.605 -107.431 431.973C-107.431 432.466 -107.514 432.941 -107.668 433.383L-36.0009 474.843L-107.668 516.303C-107.514 516.745 -107.431 517.219 -107.431 517.713C-107.431 520.081 -109.347 522 -111.71 522C-111.749 522 -111.787 521.999 -111.826 521.998C-111.865 521.999 -111.904 522 -111.943 522C-114.306 522 -116.221 520.081 -116.221 517.713C-116.221 517.219 -116.138 516.745 -115.984 516.303L-187.651 474.843L-115.984 433.383ZM-115.181 434.774L-184.442 474.843L-115.181 514.911C-114.397 514.002 -113.237 513.426 -111.943 513.426C-111.904 513.426 -111.865 513.427 -111.826 513.428C-111.787 513.427 -111.749 513.426 -111.71 513.426C-110.415 513.426 -109.256 514.002 -108.471 514.911L-39.2097 474.843L-108.471 434.774C-109.256 435.684 -110.415 436.26 -111.71 436.26C-111.749 436.26 -111.787 436.259 -111.826 436.258C-111.865 436.259 -111.904 436.26 -111.943 436.26C-113.237 436.26 -114.397 435.684 -115.181 434.774Z" fill="white"/>
<path d="M-33.0938 474.843C-33.0938 477.21 -35.0093 479.13 -37.3722 479.13C-39.7351 479.13 -41.6506 477.21 -41.6506 474.843C-41.6506 472.475 -39.7351 470.556 -37.3722 470.556C-35.0093 470.556 -33.0938 472.475 -33.0938 474.843Z" fill="white"/>
<path d="M-107.431 517.713C-107.431 520.081 -109.347 522 -111.71 522C-114.072 522 -115.988 520.081 -115.988 517.713C-115.988 515.345 -114.072 513.426 -111.71 513.426C-109.347 513.426 -107.431 515.345 -107.431 517.713Z" fill="white"/>
<path d="M-181.768 474.843C-181.768 477.21 -183.684 479.13 -186.047 479.13C-188.41 479.13 -190.325 477.21 -190.325 474.843C-190.325 472.475 -188.41 470.556 -186.047 470.556C-183.684 470.556 -181.768 472.475 -181.768 474.843Z" fill="white"/>
<path d="M-107.431 431.973C-107.431 434.34 -109.347 436.26 -111.71 436.26C-114.072 436.26 -115.988 434.34 -115.988 431.973C-115.988 429.605 -114.072 427.686 -111.71 427.686C-109.347 427.686 -107.431 429.605 -107.431 431.973Z" fill="white"/>
<path fill-rule="evenodd" clip-rule="evenodd" d="M-115.984 262.437C-116.138 261.996 -116.221 261.521 -116.221 261.027C-116.221 258.66 -114.306 256.74 -111.943 256.74C-111.904 256.74 -111.865 256.741 -111.826 256.742C-111.787 256.741 -111.749 256.74 -111.71 256.74C-109.347 256.74 -107.431 258.66 -107.431 261.027C-107.431 261.521 -107.514 261.996 -107.668 262.437L-36.0009 303.898L-107.668 345.358C-107.514 345.8 -107.431 346.274 -107.431 346.768C-107.431 349.136 -109.347 351.055 -111.71 351.055C-111.749 351.055 -111.787 351.054 -111.826 351.053C-111.865 351.054 -111.904 351.055 -111.943 351.055C-114.306 351.055 -116.221 349.136 -116.221 346.768C-116.221 346.274 -116.138 345.8 -115.984 345.358L-187.651 303.898L-115.984 262.437ZM-115.181 263.829L-184.442 303.898L-115.181 343.966C-114.397 343.057 -113.237 342.481 -111.943 342.481C-111.904 342.481 -111.865 342.481 -111.826 342.482C-111.787 342.481 -111.749 342.481 -111.71 342.481C-110.415 342.481 -109.256 343.057 -108.471 343.966L-39.2097 303.898L-108.471 263.829C-109.256 264.739 -110.415 265.315 -111.71 265.315C-111.749 265.315 -111.787 265.314 -111.826 265.313C-111.865 265.314 -111.904 265.315 -111.943 265.315C-113.237 265.315 -114.397 264.739 -115.181 263.829Z" fill="white"/>
<path d="M-33.0938 303.898C-33.0938 306.265 -35.0093 308.185 -37.3722 308.185C-39.7351 308.185 -41.6506 306.265 -41.6506 303.898C-41.6506 301.53 -39.7351 299.611 -37.3722 299.611C-35.0093 299.611 -33.0938 301.53 -33.0938 303.898Z" fill="white"/>
<path d="M-107.431 346.768C-107.431 349.136 -109.347 351.055 -111.71 351.055C-114.072 351.055 -115.988 349.136 -115.988 346.768C-115.988 344.4 -114.072 342.481 -111.71 342.481C-109.347 342.481 -107.431 344.4 -107.431 346.768Z" fill="white"/>
<path d="M-181.768 303.898C-181.768 306.265 -183.684 308.185 -186.047 308.185C-188.41 308.185 -190.325 306.265 -190.325 303.898C-190.325 301.53 -188.41 299.611 -186.047 299.611C-183.684 299.611 -181.768 301.53 -181.768 303.898Z" fill="white"/>
<path d="M-107.431 261.027C-107.431 263.395 -109.347 265.315 -111.71 265.315C-114.072 265.315 -115.988 263.395 -115.988 261.027C-115.988 258.66 -114.072 256.74 -111.71 256.74C-109.347 256.74 -107.431 258.66 -107.431 261.027Z" fill="white"/>
<path fill-rule="evenodd" clip-rule="evenodd" d="M-190.322 219.567C-190.475 219.126 -190.558 218.651 -190.558 218.157C-190.558 215.79 -188.643 213.87 -186.28 213.87C-186.241 213.87 -186.202 213.871 -186.163 213.872C-186.125 213.871 -186.086 213.87 -186.047 213.87C-183.684 213.87 -181.768 215.79 -181.768 218.157C-181.768 218.651 -181.852 219.126 -182.005 219.567L-110.338 261.027L-182.005 302.488C-181.852 302.929 -181.768 303.404 -181.768 303.898C-181.768 306.265 -183.684 308.185 -186.047 308.185C-186.086 308.185 -186.125 308.184 -186.163 308.183C-186.202 308.184 -186.241 308.185 -186.28 308.185C-188.643 308.185 -190.558 306.265 -190.558 303.898C-190.558 303.404 -190.475 302.929 -190.322 302.488L-261.989 261.027L-190.322 219.567ZM-189.518 220.959L-258.78 261.027L-189.518 301.096C-188.734 300.186 -187.574 299.611 -186.28 299.611C-186.241 299.611 -186.202 299.611 -186.163 299.612C-186.125 299.611 -186.086 299.611 -186.047 299.611C-184.753 299.611 -183.593 300.186 -182.808 301.096L-113.547 261.027L-182.808 220.959C-183.593 221.869 -184.753 222.444 -186.047 222.444C-186.086 222.444 -186.125 222.444 -186.163 222.443C-186.202 222.444 -186.241 222.444 -186.28 222.444C-187.574 222.444 -188.734 221.869 -189.518 220.959Z" fill="white"/>
<path d="M-107.431 261.027C-107.431 263.395 -109.347 265.315 -111.71 265.315C-114.072 265.315 -115.988 263.395 -115.988 261.027C-115.988 258.66 -114.072 256.74 -111.71 256.74C-109.347 256.74 -107.431 258.66 -107.431 261.027Z" fill="white"/>
<path d="M-181.768 303.898C-181.768 306.265 -183.684 308.185 -186.047 308.185C-188.41 308.185 -190.325 306.265 -190.325 303.898C-190.325 301.53 -188.41 299.611 -186.047 299.611C-183.684 299.611 -181.768 301.53 -181.768 303.898Z" fill="white"/>
<path d="M-256.106 261.027C-256.106 263.395 -258.021 265.315 -260.384 265.315C-262.747 265.315 -264.663 263.395 -264.663 261.027C-264.663 258.66 -262.747 256.74 -260.384 256.74C-258.021 256.74 -256.106 258.66 -256.106 261.027Z" fill="white"/>
<path d="M-181.768 218.157C-181.768 220.525 -183.684 222.444 -186.047 222.444C-188.41 222.444 -190.325 220.525 -190.325 218.157C-190.325 215.79 -188.41 213.87 -186.047 213.87C-183.684 213.87 -181.768 215.79 -181.768 218.157Z" fill="white"/>
<path fill-rule="evenodd" clip-rule="evenodd" d="M-264.659 261.902C-264.812 261.46 -264.896 260.986 -264.896 260.492C-264.896 258.124 -262.98 256.205 -260.617 256.205C-260.578 256.205 -260.54 256.205 -260.501 256.206C-260.462 256.205 -260.423 256.205 -260.384 256.205C-258.021 256.205 -256.106 258.124 -256.106 260.492C-256.106 260.986 -256.189 261.46 -256.343 261.902L-184.676 303.362L-256.343 344.822C-256.189 345.264 -256.106 345.738 -256.106 346.232C-256.106 348.6 -258.021 350.519 -260.384 350.519C-260.423 350.519 -260.462 350.519 -260.501 350.518C-260.54 350.519 -260.578 350.519 -260.617 350.519C-262.98 350.519 -264.896 348.6 -264.896 346.232C-264.896 345.738 -264.812 345.264 -264.659 344.822L-336.326 303.362L-264.659 261.902ZM-263.856 263.293L-333.117 303.362L-263.856 343.43C-263.071 342.521 -261.911 341.945 -260.617 341.945C-260.578 341.945 -260.54 341.946 -260.501 341.947C-260.462 341.946 -260.423 341.945 -260.384 341.945C-259.09 341.945 -257.93 342.521 -257.146 343.43L-187.884 303.362L-257.146 263.293C-257.93 264.203 -259.09 264.779 -260.384 264.779C-260.423 264.779 -260.462 264.778 -260.501 264.777C-260.54 264.778 -260.578 264.779 -260.617 264.779C-261.911 264.779 -263.071 264.203 -263.856 263.293Z" fill="white"/>
<path d="M-181.768 303.362C-181.768 305.729 -183.684 307.649 -186.047 307.649C-188.41 307.649 -190.325 305.729 -190.325 303.362C-190.325 300.994 -188.41 299.075 -186.047 299.075C-183.684 299.075 -181.768 300.994 -181.768 303.362Z" fill="white"/>
<path d="M-256.106 346.232C-256.106 348.6 -258.021 350.519 -260.384 350.519C-262.747 350.519 -264.663 348.6 -264.663 346.232C-264.663 343.864 -262.747 341.945 -260.384 341.945C-258.021 341.945 -256.106 343.864 -256.106 346.232Z" fill="white"/>
<path d="M-330.443 303.362C-330.443 305.729 -332.359 307.649 -334.722 307.649C-337.084 307.649 -339 305.729 -339 303.362C-339 300.994 -337.084 299.075 -334.722 299.075C-332.359 299.075 -330.443 300.994 -330.443 303.362Z" fill="white"/>
<path d="M-256.106 260.492C-256.106 262.859 -258.021 264.779 -260.384 264.779C-262.747 264.779 -264.663 262.859 -264.663 260.492C-264.663 258.124 -262.747 256.205 -260.384 256.205C-258.021 256.205 -256.106 258.124 -256.106 260.492Z" fill="white"/>
<path fill-rule="evenodd" clip-rule="evenodd" d="M339.659 262.437C339.812 261.996 339.896 261.521 339.896 261.027C339.896 258.66 337.98 256.74 335.617 256.74C335.578 256.74 335.54 256.741 335.501 256.742C335.462 256.741 335.423 256.74 335.384 256.74C333.021 256.74 331.106 258.66 331.106 261.027C331.106 261.521 331.189 261.996 331.343 262.437L259.676 303.898L331.343 345.358C331.189 345.8 331.106 346.274 331.106 346.768C331.106 349.136 333.021 351.055 335.384 351.055C335.423 351.055 335.462 351.054 335.501 351.053C335.54 351.054 335.578 351.055 335.617 351.055C337.98 351.055 339.896 349.136 339.896 346.768C339.896 346.274 339.812 345.8 339.659 345.358L411.326 303.898L339.659 262.437ZM338.856 263.829L408.117 303.898L338.856 343.966C338.071 343.057 336.911 342.481 335.617 342.481C335.578 342.481 335.54 342.481 335.501 342.482C335.462 342.481 335.423 342.481 335.384 342.481C334.09 342.481 332.93 343.057 332.146 343.966L262.884 303.898L332.146 263.829C332.93 264.739 334.09 265.315 335.384 265.315C335.423 265.315 335.462 265.314 335.501 265.313C335.54 265.314 335.578 265.315 335.617 265.315C336.911 265.315 338.071 264.739 338.856 263.829Z" fill="white"/>
<path d="M256.768 303.898C256.768 306.265 258.684 308.185 261.047 308.185C263.41 308.185 265.325 306.265 265.325 303.898C265.325 301.53 263.41 299.611 261.047 299.611C258.684 299.611 256.768 301.53 256.768 303.898Z" fill="white"/>
<path d="M331.106 346.768C331.106 349.136 333.021 351.055 335.384 351.055C337.747 351.055 339.663 349.136 339.663 346.768C339.663 344.4 337.747 342.481 335.384 342.481C333.021 342.481 331.106 344.4 331.106 346.768Z" fill="white"/>
<path d="M405.443 303.898C405.443 306.265 407.359 308.185 409.722 308.185C412.084 308.185 414 306.265 414 303.898C414 301.53 412.084 299.611 409.722 299.611C407.359 299.611 405.443 301.53 405.443 303.898Z" fill="white"/>
<path d="M331.106 261.027C331.106 263.395 333.021 265.315 335.384 265.315C337.747 265.315 339.663 263.395 339.663 261.027C339.663 258.66 337.747 256.74 335.384 256.74C333.021 256.74 331.106 258.66 331.106 261.027Z" fill="white"/>
<path fill-rule="evenodd" clip-rule="evenodd" d="M-264.659 347.642C-264.812 347.2 -264.896 346.726 -264.896 346.232C-264.896 343.864 -262.98 341.945 -260.617 341.945C-260.578 341.945 -260.54 341.946 -260.501 341.947C-260.462 341.946 -260.423 341.945 -260.384 341.945C-258.021 341.945 -256.106 343.864 -256.106 346.232C-256.106 346.726 -256.189 347.2 -256.343 347.642L-184.676 389.102L-256.343 430.563C-256.189 431.004 -256.106 431.479 -256.106 431.973C-256.106 434.34 -258.021 436.26 -260.384 436.26C-260.423 436.26 -260.462 436.259 -260.501 436.258C-260.54 436.259 -260.578 436.26 -260.617 436.26C-262.98 436.26 -264.896 434.34 -264.896 431.973C-264.896 431.479 -264.812 431.004 -264.659 430.563L-336.326 389.102L-264.659 347.642ZM-263.856 349.034L-333.117 389.102L-263.856 429.171C-263.071 428.261 -261.911 427.686 -260.617 427.686C-260.578 427.686 -260.54 427.686 -260.501 427.687C-260.462 427.686 -260.423 427.686 -260.384 427.686C-259.09 427.686 -257.93 428.261 -257.146 429.171L-187.884 389.102L-257.146 349.034C-257.93 349.943 -259.09 350.519 -260.384 350.519C-260.423 350.519 -260.462 350.519 -260.501 350.518C-260.54 350.519 -260.578 350.519 -260.617 350.519C-261.911 350.519 -263.071 349.943 -263.856 349.034Z" fill="white"/>
<path d="M-181.768 389.102C-181.768 391.47 -183.684 393.389 -186.047 393.389C-188.41 393.389 -190.325 391.47 -190.325 389.102C-190.325 386.735 -188.41 384.815 -186.047 384.815C-183.684 384.815 -181.768 386.735 -181.768 389.102Z" fill="white"/>
<path d="M-256.106 431.973C-256.106 434.34 -258.021 436.26 -260.384 436.26C-262.747 436.26 -264.663 434.34 -264.663 431.973C-264.663 429.605 -262.747 427.686 -260.384 427.686C-258.021 427.686 -256.106 429.605 -256.106 431.973Z" fill="white"/>
<path d="M-330.443 389.102C-330.443 391.47 -332.359 393.389 -334.722 393.389C-337.084 393.389 -339 391.47 -339 389.102C-339 386.735 -337.084 384.815 -334.722 384.815C-332.359 384.815 -330.443 386.735 -330.443 389.102Z" fill="white"/>
<path d="M-256.106 346.232C-256.106 348.6 -258.021 350.519 -260.384 350.519C-262.747 350.519 -264.663 348.6 -264.663 346.232C-264.663 343.864 -262.747 341.945 -260.384 341.945C-258.021 341.945 -256.106 343.864 -256.106 346.232Z" fill="white"/>
<path fill-rule="evenodd" clip-rule="evenodd" d="M339.659 348.178C339.812 347.736 339.896 347.262 339.896 346.768C339.896 344.4 337.98 342.481 335.617 342.481C335.578 342.481 335.54 342.481 335.501 342.482C335.462 342.481 335.423 342.481 335.384 342.481C333.021 342.481 331.106 344.4 331.106 346.768C331.106 347.262 331.189 347.736 331.343 348.178L259.676 389.638L331.343 431.098C331.189 431.54 331.106 432.014 331.106 432.508C331.106 434.876 333.021 436.795 335.384 436.795C335.423 436.795 335.462 436.795 335.501 436.794C335.54 436.795 335.578 436.795 335.617 436.795C337.98 436.795 339.896 434.876 339.896 432.508C339.896 432.014 339.812 431.54 339.659 431.098L411.326 389.638L339.659 348.178ZM338.856 349.57L408.117 389.638L338.856 429.707C338.071 428.797 336.911 428.221 335.617 428.221C335.578 428.221 335.54 428.222 335.501 428.223C335.462 428.222 335.423 428.221 335.384 428.221C334.09 428.221 332.93 428.797 332.146 429.707L262.884 389.638L332.146 349.57C332.93 350.479 334.09 351.055 335.384 351.055C335.423 351.055 335.462 351.054 335.501 351.053C335.54 351.054 335.578 351.055 335.617 351.055C336.911 351.055 338.071 350.479 338.856 349.57Z" fill="white"/>
<path d="M256.768 389.638C256.768 392.006 258.684 393.925 261.047 393.925C263.41 393.925 265.325 392.006 265.325 389.638C265.325 387.271 263.41 385.351 261.047 385.351C258.684 385.351 256.768 387.271 256.768 389.638Z" fill="white"/>
<path d="M331.106 432.508C331.106 434.876 333.021 436.795 335.384 436.795C337.747 436.795 339.663 434.876 339.663 432.508C339.663 430.141 337.747 428.221 335.384 428.221C333.021 428.221 331.106 430.141 331.106 432.508Z" fill="white"/>
<path d="M405.443 389.638C405.443 392.006 407.359 393.925 409.722 393.925C412.084 393.925 414 392.006 414 389.638C414 387.271 412.084 385.351 409.722 385.351C407.359 385.351 405.443 387.271 405.443 389.638Z" fill="white"/>
<path d="M331.106 346.768C331.106 349.136 333.021 351.055 335.384 351.055C337.747 351.055 339.663 349.136 339.663 346.768C339.663 344.4 337.747 342.481 335.384 342.481C333.021 342.481 331.106 344.4 331.106 346.768Z" fill="white"/>
<path fill-rule="evenodd" clip-rule="evenodd" d="M-190.322 304.772C-190.475 304.33 -190.558 303.856 -190.558 303.362C-190.558 300.994 -188.643 299.075 -186.28 299.075C-186.241 299.075 -186.202 299.075 -186.163 299.076C-186.125 299.075 -186.086 299.075 -186.047 299.075C-183.684 299.075 -181.768 300.994 -181.768 303.362C-181.768 303.856 -181.852 304.33 -182.005 304.772L-110.338 346.232L-182.005 387.692C-181.852 388.134 -181.768 388.608 -181.768 389.102C-181.768 391.47 -183.684 393.389 -186.047 393.389C-186.086 393.389 -186.125 393.389 -186.163 393.388C-186.202 393.389 -186.241 393.389 -186.28 393.389C-188.643 393.389 -190.558 391.47 -190.558 389.102C-190.558 388.608 -190.475 388.134 -190.322 387.692L-261.989 346.232L-190.322 304.772ZM-189.518 306.163L-258.78 346.232L-189.518 386.301C-188.734 385.391 -187.574 384.815 -186.28 384.815C-186.241 384.815 -186.202 384.816 -186.163 384.817C-186.125 384.816 -186.086 384.815 -186.047 384.815C-184.753 384.815 -183.593 385.391 -182.808 386.301L-113.547 346.232L-182.808 306.163C-183.593 307.073 -184.753 307.649 -186.047 307.649C-186.086 307.649 -186.125 307.648 -186.163 307.647C-186.202 307.648 -186.241 307.649 -186.28 307.649C-187.574 307.649 -188.734 307.073 -189.518 306.163Z" fill="white"/>
<path d="M-107.431 346.232C-107.431 348.6 -109.347 350.519 -111.71 350.519C-114.072 350.519 -115.988 348.6 -115.988 346.232C-115.988 343.864 -114.072 341.945 -111.71 341.945C-109.347 341.945 -107.431 343.864 -107.431 346.232Z" fill="white"/>
<path d="M-181.768 389.102C-181.768 391.47 -183.684 393.389 -186.047 393.389C-188.41 393.389 -190.325 391.47 -190.325 389.102C-190.325 386.735 -188.41 384.815 -186.047 384.815C-183.684 384.815 -181.768 386.735 -181.768 389.102Z" fill="white"/>
<path d="M-256.106 346.232C-256.106 348.6 -258.021 350.519 -260.384 350.519C-262.747 350.519 -264.663 348.6 -264.663 346.232C-264.663 343.864 -262.747 341.945 -260.384 341.945C-258.021 341.945 -256.106 343.864 -256.106 346.232Z" fill="white"/>
<path d="M-181.768 303.362C-181.768 305.729 -183.684 307.649 -186.047 307.649C-188.41 307.649 -190.325 305.729 -190.325 303.362C-190.325 300.994 -188.41 299.075 -186.047 299.075C-183.684 299.075 -181.768 300.994 -181.768 303.362Z" fill="white"/>
<path fill-rule="evenodd" clip-rule="evenodd" d="M-190.322 390.512C-190.475 390.071 -190.558 389.596 -190.558 389.102C-190.558 386.735 -188.643 384.815 -186.28 384.815C-186.241 384.815 -186.202 384.816 -186.163 384.817C-186.125 384.816 -186.086 384.815 -186.047 384.815C-183.684 384.815 -181.768 386.735 -181.768 389.102C-181.768 389.596 -181.852 390.071 -182.005 390.512L-110.338 431.973L-182.005 473.433C-181.852 473.874 -181.768 474.349 -181.768 474.843C-181.768 477.21 -183.684 479.13 -186.047 479.13C-186.086 479.13 -186.125 479.129 -186.163 479.128C-186.202 479.129 -186.241 479.13 -186.28 479.13C-188.643 479.13 -190.558 477.21 -190.558 474.843C-190.558 474.349 -190.475 473.874 -190.322 473.433L-261.989 431.973L-190.322 390.512ZM-189.518 391.904L-258.78 431.973L-189.518 472.041C-188.734 471.131 -187.574 470.556 -186.28 470.556C-186.241 470.556 -186.202 470.556 -186.163 470.557C-186.125 470.556 -186.086 470.556 -186.047 470.556C-184.753 470.556 -183.593 471.131 -182.808 472.041L-113.547 431.973L-182.808 391.904C-183.593 392.814 -184.753 393.389 -186.047 393.389C-186.086 393.389 -186.125 393.389 -186.163 393.388C-186.202 393.389 -186.241 393.389 -186.28 393.389C-187.574 393.389 -188.734 392.814 -189.518 391.904Z" fill="white"/>
<path d="M-107.431 431.973C-107.431 434.34 -109.347 436.26 -111.71 436.26C-114.072 436.26 -115.988 434.34 -115.988 431.973C-115.988 429.605 -114.072 427.686 -111.71 427.686C-109.347 427.686 -107.431 429.605 -107.431 431.973Z" fill="white"/>
<path d="M-181.768 474.843C-181.768 477.21 -183.684 479.13 -186.047 479.13C-188.41 479.13 -190.325 477.21 -190.325 474.843C-190.325 472.475 -188.41 470.556 -186.047 470.556C-183.684 470.556 -181.768 472.475 -181.768 474.843Z" fill="white"/>
<path d="M-256.106 431.973C-256.106 434.34 -258.021 436.26 -260.384 436.26C-262.747 436.26 -264.663 434.34 -264.663 431.973C-264.663 429.605 -262.747 427.686 -260.384 427.686C-258.021 427.686 -256.106 429.605 -256.106 431.973Z" fill="white"/>
<path d="M-181.768 389.102C-181.768 391.47 -183.684 393.389 -186.047 393.389C-188.41 393.389 -190.325 391.47 -190.325 389.102C-190.325 386.735 -188.41 384.815 -186.047 384.815C-183.684 384.815 -181.768 386.735 -181.768 389.102Z" fill="white"/>
<path fill-rule="evenodd" clip-rule="evenodd" d="M-115.984 347.642C-116.138 347.2 -116.221 346.726 -116.221 346.232C-116.221 343.864 -114.306 341.945 -111.943 341.945C-111.904 341.945 -111.865 341.946 -111.826 341.947C-111.787 341.946 -111.749 341.945 -111.71 341.945C-109.347 341.945 -107.431 343.864 -107.431 346.232C-107.431 346.726 -107.514 347.2 -107.668 347.642L-36.0009 389.102L-107.668 430.563C-107.514 431.004 -107.431 431.479 -107.431 431.973C-107.431 434.34 -109.347 436.26 -111.71 436.26C-111.749 436.26 -111.787 436.259 -111.826 436.258C-111.865 436.259 -111.904 436.26 -111.943 436.26C-114.306 436.26 -116.221 434.34 -116.221 431.973C-116.221 431.479 -116.138 431.004 -115.984 430.563L-187.651 389.102L-115.984 347.642ZM-115.181 349.034L-184.442 389.102L-115.181 429.171C-114.397 428.261 -113.237 427.686 -111.943 427.686C-111.904 427.686 -111.865 427.686 -111.826 427.687C-111.787 427.686 -111.749 427.686 -111.71 427.686C-110.415 427.686 -109.256 428.261 -108.471 429.171L-39.2097 389.102L-108.471 349.034C-109.256 349.943 -110.415 350.519 -111.71 350.519C-111.749 350.519 -111.787 350.519 -111.826 350.518C-111.865 350.519 -111.904 350.519 -111.943 350.519C-113.237 350.519 -114.397 349.943 -115.181 349.034Z" fill="white"/>
<path d="M-33.0938 389.102C-33.0938 391.47 -35.0093 393.389 -37.3722 393.389C-39.7351 393.389 -41.6506 391.47 -41.6506 389.102C-41.6506 386.735 -39.7351 384.815 -37.3722 384.815C-35.0093 384.815 -33.0938 386.735 -33.0938 389.102Z" fill="white"/>
<path d="M-107.431 431.973C-107.431 434.34 -109.347 436.26 -111.71 436.26C-114.072 436.26 -115.988 434.34 -115.988 431.973C-115.988 429.605 -114.072 427.686 -111.71 427.686C-109.347 427.686 -107.431 429.605 -107.431 431.973Z" fill="white"/>
<path d="M-181.768 389.102C-181.768 391.47 -183.684 393.389 -186.047 393.389C-188.41 393.389 -190.325 391.47 -190.325 389.102C-190.325 386.735 -188.41 384.815 -186.047 384.815C-183.684 384.815 -181.768 386.735 -181.768 389.102Z" fill="white"/>
<path d="M-107.431 346.232C-107.431 348.6 -109.347 350.519 -111.71 350.519C-114.072 350.519 -115.988 348.6 -115.988 346.232C-115.988 343.864 -114.072 341.945 -111.71 341.945C-109.347 341.945 -107.431 343.864 -107.431 346.232Z" fill="white"/>
<path fill-rule="evenodd" clip-rule="evenodd" d="M-115.984 176.697C-116.138 176.255 -116.221 175.781 -116.221 175.287C-116.221 172.919 -114.306 171 -111.943 171C-111.904 171 -111.865 171.001 -111.826 171.002C-111.787 171.001 -111.749 171 -111.71 171C-109.347 171 -107.431 172.919 -107.431 175.287C-107.431 175.781 -107.514 176.255 -107.668 176.697L-36.0009 218.157L-107.668 259.618C-107.514 260.059 -107.431 260.534 -107.431 261.027C-107.431 263.395 -109.347 265.315 -111.71 265.315C-111.749 265.315 -111.787 265.314 -111.826 265.313C-111.865 265.314 -111.904 265.315 -111.943 265.315C-114.306 265.315 -116.221 263.395 -116.221 261.027C-116.221 260.534 -116.138 260.059 -115.984 259.618L-187.651 218.157L-115.984 176.697ZM-115.181 178.089L-184.442 218.157L-115.181 258.226C-114.397 257.316 -113.237 256.74 -111.943 256.74C-111.904 256.74 -111.865 256.741 -111.826 256.742C-111.787 256.741 -111.749 256.74 -111.71 256.74C-110.415 256.74 -109.256 257.316 -108.471 258.226L-39.2097 218.157L-108.471 178.089C-109.256 178.998 -110.415 179.574 -111.71 179.574C-111.749 179.574 -111.787 179.574 -111.826 179.572C-111.865 179.574 -111.904 179.574 -111.943 179.574C-113.237 179.574 -114.397 178.998 -115.181 178.089Z" fill="white"/>
<path d="M-33.0938 218.157C-33.0938 220.525 -35.0093 222.444 -37.3722 222.444C-39.7351 222.444 -41.6506 220.525 -41.6506 218.157C-41.6506 215.79 -39.7351 213.87 -37.3722 213.87C-35.0093 213.87 -33.0938 215.79 -33.0938 218.157Z" fill="white"/>
<path d="M-107.431 261.027C-107.431 263.395 -109.347 265.315 -111.71 265.315C-114.072 265.315 -115.988 263.395 -115.988 261.027C-115.988 258.66 -114.072 256.74 -111.71 256.74C-109.347 256.74 -107.431 258.66 -107.431 261.027Z" fill="white"/>
<path d="M-181.768 218.157C-181.768 220.525 -183.684 222.444 -186.047 222.444C-188.41 222.444 -190.325 220.525 -190.325 218.157C-190.325 215.79 -188.41 213.87 -186.047 213.87C-183.684 213.87 -181.768 215.79 -181.768 218.157Z" fill="white"/>
<path d="M-107.431 175.287C-107.431 177.655 -109.347 179.574 -111.71 179.574C-114.072 179.574 -115.988 177.655 -115.988 175.287C-115.988 172.919 -114.072 171 -111.71 171C-109.347 171 -107.431 172.919 -107.431 175.287Z" fill="white"/>
<path fill-rule="evenodd" clip-rule="evenodd" d="M33.2253 433.383C33.0718 432.941 32.9885 432.466 32.9885 431.973C32.9885 429.605 34.904 427.686 37.2669 427.686C37.3058 427.686 37.3447 427.686 37.3834 427.687C37.4222 427.686 37.461 427.686 37.5 427.686C39.8629 427.686 41.7784 429.605 41.7784 431.973C41.7784 432.466 41.695 432.941 41.5416 433.383L113.209 474.843L41.5416 516.303C41.695 516.745 41.7784 517.219 41.7784 517.713C41.7784 520.081 39.8629 522 37.5 522C37.461 522 37.4222 521.999 37.3834 521.998C37.3447 521.999 37.3058 522 37.2669 522C34.904 522 32.9885 520.081 32.9885 517.713C32.9885 517.219 33.0718 516.745 33.2253 516.303L-38.4418 474.843L33.2253 433.383ZM34.0284 434.774L-35.233 474.843L34.0284 514.911C34.8129 514.002 35.9728 513.426 37.2669 513.426C37.3058 513.426 37.3447 513.427 37.3834 513.428C37.4222 513.427 37.461 513.426 37.5 513.426C38.794 513.426 39.9539 514.002 40.7384 514.911L110 474.843L40.7384 434.774C39.9539 435.684 38.794 436.26 37.5 436.26C37.461 436.26 37.4222 436.259 37.3834 436.258C37.3447 436.259 37.3058 436.26 37.2669 436.26C35.9728 436.26 34.8129 435.684 34.0284 434.774Z" fill="white"/>
<path d="M116.116 474.843C116.116 477.21 114.2 479.13 111.837 479.13C109.474 479.13 107.559 477.21 107.559 474.843C107.559 472.475 109.474 470.556 111.837 470.556C114.2 470.556 116.116 472.475 116.116 474.843Z" fill="white"/>
<path d="M41.7784 517.713C41.7784 520.081 39.8629 522 37.5 522C35.1371 522 33.2216 520.081 33.2216 517.713C33.2216 515.345 35.1371 513.426 37.5 513.426C39.8629 513.426 41.7784 515.345 41.7784 517.713Z" fill="white"/>
<path d="M-32.559 474.843C-32.559 477.21 -34.4745 479.13 -36.8374 479.13C-39.2003 479.13 -41.1158 477.21 -41.1158 474.843C-41.1158 472.475 -39.2003 470.556 -36.8374 470.556C-34.4745 470.556 -32.559 472.475 -32.559 474.843Z" fill="white"/>
<path d="M41.7784 431.973C41.7784 434.34 39.8629 436.26 37.5 436.26C35.1371 436.26 33.2216 434.34 33.2216 431.973C33.2216 429.605 35.1371 427.686 37.5 427.686C39.8629 427.686 41.7784 429.605 41.7784 431.973Z" fill="white"/>
<path fill-rule="evenodd" clip-rule="evenodd" d="M33.2253 262.437C33.0718 261.996 32.9885 261.521 32.9885 261.027C32.9885 258.66 34.904 256.74 37.2669 256.74C37.3058 256.74 37.3447 256.741 37.3834 256.742C37.4222 256.741 37.461 256.74 37.5 256.74C39.8629 256.74 41.7784 258.66 41.7784 261.027C41.7784 261.521 41.695 261.996 41.5416 262.437L113.209 303.898L41.5416 345.358C41.695 345.8 41.7784 346.274 41.7784 346.768C41.7784 349.136 39.8629 351.055 37.5 351.055C37.461 351.055 37.4222 351.054 37.3834 351.053C37.3447 351.054 37.3058 351.055 37.2669 351.055C34.904 351.055 32.9885 349.136 32.9885 346.768C32.9885 346.274 33.0718 345.8 33.2253 345.358L-38.4418 303.898L33.2253 262.437ZM34.0284 263.829L-35.233 303.898L34.0284 343.966C34.8129 343.057 35.9728 342.481 37.2669 342.481C37.3058 342.481 37.3447 342.481 37.3834 342.482C37.4222 342.481 37.461 342.481 37.5 342.481C38.794 342.481 39.9539 343.057 40.7384 343.966L110 303.898L40.7384 263.829C39.9539 264.739 38.794 265.315 37.5 265.315C37.461 265.315 37.4222 265.314 37.3834 265.313C37.3447 265.314 37.3058 265.315 37.2669 265.315C35.9728 265.315 34.8129 264.739 34.0284 263.829Z" fill="white"/>
<path d="M116.116 303.898C116.116 306.265 114.2 308.185 111.837 308.185C109.474 308.185 107.559 306.265 107.559 303.898C107.559 301.53 109.474 299.611 111.837 299.611C114.2 299.611 116.116 301.53 116.116 303.898Z" fill="white"/>
<path d="M41.7784 346.768C41.7784 349.136 39.8629 351.055 37.5 351.055C35.1371 351.055 33.2216 349.136 33.2216 346.768C33.2216 344.4 35.1371 342.481 37.5 342.481C39.8629 342.481 41.7784 344.4 41.7784 346.768Z" fill="white"/>
<path d="M-32.559 303.898C-32.559 306.265 -34.4745 308.185 -36.8374 308.185C-39.2003 308.185 -41.1158 306.265 -41.1158 303.898C-41.1158 301.53 -39.2003 299.611 -36.8374 299.611C-34.4745 299.611 -32.559 301.53 -32.559 303.898Z" fill="white"/>
<path d="M41.7784 261.027C41.7784 263.395 39.8629 265.315 37.5 265.315C35.1371 265.315 33.2216 263.395 33.2216 261.027C33.2216 258.66 35.1371 256.74 37.5 256.74C39.8629 256.74 41.7784 258.66 41.7784 261.027Z" fill="white"/>
<path fill-rule="evenodd" clip-rule="evenodd" d="M33.2253 347.642C33.0718 347.2 32.9885 346.726 32.9885 346.232C32.9885 343.864 34.904 341.945 37.2669 341.945C37.3058 341.945 37.3447 341.946 37.3834 341.947C37.4222 341.946 37.461 341.945 37.5 341.945C39.8629 341.945 41.7784 343.864 41.7784 346.232C41.7784 346.726 41.695 347.2 41.5416 347.642L113.209 389.102L41.5416 430.563C41.695 431.004 41.7784 431.479 41.7784 431.973C41.7784 434.34 39.8629 436.26 37.5 436.26C37.461 436.26 37.4222 436.259 37.3834 436.258C37.3447 436.259 37.3058 436.26 37.2669 436.26C34.904 436.26 32.9885 434.34 32.9885 431.973C32.9885 431.479 33.0718 431.004 33.2253 430.563L-38.4418 389.102L33.2253 347.642ZM34.0284 349.034L-35.233 389.102L34.0284 429.171C34.8129 428.261 35.9728 427.686 37.2669 427.686C37.3058 427.686 37.3447 427.686 37.3834 427.687C37.4222 427.686 37.461 427.686 37.5 427.686C38.794 427.686 39.9539 428.261 40.7384 429.171L110 389.102L40.7384 349.034C39.9539 349.943 38.794 350.519 37.5 350.519C37.461 350.519 37.4222 350.519 37.3834 350.518C37.3447 350.519 37.3058 350.519 37.2669 350.519C35.9728 350.519 34.8129 349.943 34.0284 349.034Z" fill="white"/>
<path d="M116.116 389.102C116.116 391.47 114.2 393.389 111.837 393.389C109.474 393.389 107.559 391.47 107.559 389.102C107.559 386.735 109.474 384.815 111.837 384.815C114.2 384.815 116.116 386.735 116.116 389.102Z" fill="white"/>
<path d="M41.7784 431.973C41.7784 434.34 39.8629 436.26 37.5 436.26C35.1371 436.26 33.2216 434.34 33.2216 431.973C33.2216 429.605 35.1371 427.686 37.5 427.686C39.8629 427.686 41.7784 429.605 41.7784 431.973Z" fill="white"/>
<path d="M-32.559 389.102C-32.559 391.47 -34.4745 393.389 -36.8374 393.389C-39.2003 393.389 -41.1158 391.47 -41.1158 389.102C-41.1158 386.735 -39.2003 384.815 -36.8374 384.815C-34.4745 384.815 -32.559 386.735 -32.559 389.102Z" fill="white"/>
<path d="M41.7784 346.232C41.7784 348.6 39.8629 350.519 37.5 350.519C35.1371 350.519 33.2216 348.6 33.2216 346.232C33.2216 343.864 35.1371 341.945 37.5 341.945C39.8629 341.945 41.7784 343.864 41.7784 346.232Z" fill="white"/>
<path fill-rule="evenodd" clip-rule="evenodd" d="M33.2253 176.697C33.0718 176.255 32.9885 175.781 32.9885 175.287C32.9885 172.919 34.904 171 37.2669 171C37.3058 171 37.3447 171.001 37.3834 171.002C37.4222 171.001 37.461 171 37.5 171C39.8629 171 41.7784 172.919 41.7784 175.287C41.7784 175.781 41.695 176.255 41.5416 176.697L113.209 218.157L41.5416 259.618C41.695 260.059 41.7784 260.534 41.7784 261.027C41.7784 263.395 39.8629 265.315 37.5 265.315C37.461 265.315 37.4222 265.314 37.3834 265.313C37.3447 265.314 37.3058 265.315 37.2669 265.315C34.904 265.315 32.9885 263.395 32.9885 261.027C32.9885 260.534 33.0718 260.059 33.2253 259.618L-38.4418 218.157L33.2253 176.697ZM34.0284 178.089L-35.233 218.157L34.0284 258.226C34.8129 257.316 35.9728 256.74 37.2669 256.74C37.3058 256.74 37.3447 256.741 37.3834 256.742C37.4222 256.741 37.461 256.74 37.5 256.74C38.794 256.74 39.9539 257.316 40.7384 258.226L110 218.157L40.7384 178.089C39.9539 178.998 38.794 179.574 37.5 179.574C37.461 179.574 37.4222 179.574 37.3834 179.572C37.3447 179.574 37.3058 179.574 37.2669 179.574C35.9728 179.574 34.8129 178.998 34.0284 178.089Z" fill="white"/>
<path d="M116.116 218.157C116.116 220.525 114.2 222.444 111.837 222.444C109.474 222.444 107.559 220.525 107.559 218.157C107.559 215.79 109.474 213.87 111.837 213.87C114.2 213.87 116.116 215.79 116.116 218.157Z" fill="white"/>
<path d="M41.7784 261.027C41.7784 263.395 39.8629 265.315 37.5 265.315C35.1371 265.315 33.2216 263.395 33.2216 261.027C33.2216 258.66 35.1371 256.74 37.5 256.74C39.8629 256.74 41.7784 258.66 41.7784 261.027Z" fill="white"/>
<path d="M-32.559 218.157C-32.559 220.525 -34.4745 222.444 -36.8374 222.444C-39.2003 222.444 -41.1158 220.525 -41.1158 218.157C-41.1158 215.79 -39.2003 213.87 -36.8374 213.87C-34.4745 213.87 -32.559 215.79 -32.559 218.157Z" fill="white"/>
<path d="M41.7784 175.287C41.7784 177.655 39.8629 179.574 37.5 179.574C35.1371 179.574 33.2216 177.655 33.2216 175.287C33.2216 172.919 35.1371 171 37.5 171C39.8629 171 41.7784 172.919 41.7784 175.287Z" fill="white"/>
<path fill-rule="evenodd" clip-rule="evenodd" d="M-115.789 90.1248C-115.789 92.495 -113.871 94.4165 -111.504 94.4165C-111.47 94.4165 -111.436 94.4161 -111.402 94.4153C-110.134 94.4532 -108.882 93.9241 -108.027 92.9298L-41.1077 131.63C-41.7731 133.538 -41.0143 135.71 -39.2028 136.758C-38.4919 137.169 -37.7123 137.353 -36.9478 137.332C-35.6829 137.367 -34.4359 136.838 -33.5833 135.846L33.3358 174.546C33.2271 174.859 33.1535 175.189 33.1198 175.53C33.0684 176.039 33.1073 176.56 33.2434 177.068C33.2706 177.17 33.3015 177.271 33.3358 177.369L-33.7412 216.161C-34.5269 215.198 -35.722 214.583 -37.0606 214.583C-39.4268 214.583 -41.3451 216.504 -41.3451 218.875C-41.3451 220.97 -39.8462 222.714 -37.8639 223.091V300.491C-39.8462 300.868 -41.3451 302.612 -41.3451 304.708C-41.3451 307.078 -39.4268 308.999 -37.0606 308.999C-37.025 308.999 -36.9896 308.999 -36.9543 308.998C-36.1852 309.022 -35.4002 308.838 -34.6848 308.424C-32.8734 307.377 -32.1145 305.204 -32.78 303.296L34.1395 264.596C34.4581 264.967 34.8317 265.272 35.2408 265.508C35.7551 265.806 36.337 266.001 36.9577 266.062C37.4645 266.113 37.983 266.074 38.4885 265.939C38.9981 265.803 39.4704 265.575 39.8867 265.274C40.3925 264.911 40.7986 264.452 41.0947 263.937C41.3919 263.422 41.5855 262.84 41.6468 262.219C41.6981 261.71 41.6592 261.19 41.5234 260.682C41.3876 260.172 41.1603 259.699 40.8602 259.283C40.4977 258.777 40.0406 258.371 39.5278 258.075C39.1188 257.838 38.6669 257.666 38.1866 257.575V180.212C39.2043 180.074 40.164 179.573 40.8605 178.763L107.78 217.463C107.115 219.371 107.873 221.544 109.685 222.591C111.734 223.776 114.354 223.073 115.538 221.02C116.31 219.681 116.279 218.098 115.595 216.83L181.421 178.763C182.737 180.294 184.995 180.722 186.806 179.675C188.856 178.49 189.558 175.865 188.375 173.812C187.192 171.759 184.571 171.056 182.522 172.241C180.71 173.289 179.952 175.461 180.617 177.369L114.562 215.57C114.379 215.419 114.181 215.28 113.969 215.158C112.158 214.11 109.9 214.538 108.583 216.069L41.6638 177.369C41.9888 176.438 41.9741 175.443 41.6632 174.547L108.583 135.846C109.9 137.378 112.158 137.806 113.969 136.758C115.745 135.731 116.509 133.623 115.912 131.743L183.027 92.9298C184.344 94.4611 186.602 94.8891 188.413 93.8415C189.164 93.4073 189.734 92.78 190.096 92.0584L256.668 130.557C256.002 132.465 256.761 134.638 258.572 135.685C260.622 136.87 263.242 136.167 264.425 134.114C265.608 132.062 264.906 129.437 262.857 128.252C261.046 127.204 258.788 127.632 257.471 129.163L190.543 90.4582C190.609 89.6228 190.431 88.7595 189.981 87.979C188.798 85.9263 186.178 85.223 184.129 86.4081C182.317 87.4557 181.558 89.6282 182.224 91.5361L115.147 130.327C113.842 128.722 111.532 128.257 109.685 129.325C107.873 130.372 107.115 132.545 107.78 134.453L40.8608 173.153C40.5554 172.798 40.1865 172.488 39.759 172.241C39.0468 171.829 38.2657 171.646 37.4999 171.667C37.0932 171.656 36.6823 171.702 36.2797 171.81C35.7687 171.946 35.2952 172.174 34.8781 172.476C34.6014 172.675 34.3545 172.903 34.1392 173.153L-32.78 134.453C-32.455 133.521 -32.4697 132.526 -32.7806 131.63L34.1395 92.9298C35.4563 94.4611 37.7141 94.8891 39.5255 93.8415C41.5748 92.6564 42.2769 90.0316 41.0938 87.979C39.9106 85.9263 37.2903 85.223 35.241 86.4081C33.4295 87.4557 32.6707 89.6282 33.3362 91.5361L-33.583 130.236C-33.8884 129.882 -34.2573 129.572 -34.6848 129.325C-35.3957 128.914 -36.1753 128.73 -36.9398 128.751C-38.2047 128.716 -39.4517 129.245 -40.3043 130.236L-107.224 91.5361C-106.895 90.5938 -106.914 89.5869 -107.235 88.6829C-107.353 87.3346 -108.103 86.0632 -109.362 85.3352C-109.79 85.088 -110.242 84.9229 -110.701 84.8352V8.508C-108.719 8.13134 -107.22 6.38683 -107.22 4.29166C-107.22 1.92144 -109.138 0 -111.504 0C-113.871 0 -115.789 1.92144 -115.789 4.29166C-115.789 6.38683 -114.29 8.13134 -112.308 8.508V84.8363C-113.238 85.0145 -114.105 85.4992 -114.748 86.2468L-181.668 47.5466C-181.002 45.6387 -181.761 43.4662 -183.572 42.4186C-185.622 41.2335 -188.242 41.9368 -189.425 43.9895C-190.608 46.0421 -189.906 48.6669 -187.857 49.852C-186.046 50.8996 -183.788 50.4716 -182.471 48.9404L-115.551 87.6406C-115.774 88.2773 -115.837 88.9435 -115.756 89.5874C-115.778 89.7635 -115.789 89.9428 -115.789 90.1248ZM35.2411 179.675C35.6495 179.912 36.1006 180.083 36.5799 180.174V257.574C36.536 257.583 36.4921 257.592 36.4483 257.602L36.4237 257.607L36.3968 257.614L36.3783 257.618C36.3307 257.63 36.2832 257.642 36.2357 257.655C35.7413 257.792 35.2829 258.016 34.8776 258.309C34.3737 258.672 33.9688 259.13 33.6734 259.643C33.3754 260.158 33.1813 260.741 33.1198 261.363C33.0684 261.872 33.1074 262.393 33.2434 262.901C33.2706 263.003 33.3015 263.104 33.3358 263.203L-33.5833 301.903C-34.2798 301.093 -35.2395 300.591 -36.2572 300.454V223.091C-34.2749 222.714 -32.776 220.97 -32.776 218.875C-32.776 218.422 -32.8459 217.986 -32.9756 217.576L34.1395 178.763C34.4582 179.133 34.8319 179.439 35.2411 179.675Z" fill="white"/>
</svg>
