<svg width="589" height="369" viewBox="0 0 589 369" fill="none" xmlns="http://www.w3.org/2000/svg">
<path fill-rule="evenodd" clip-rule="evenodd" d="M748.325 167.087C746.469 166.015 745.833 163.639 746.905 161.782C747.976 159.924 750.35 159.288 752.206 160.36C753.847 161.308 754.534 163.274 753.931 165.001L814.543 200.025C815.736 198.639 817.781 198.252 819.421 199.2C821.277 200.272 821.913 202.648 820.842 204.505C819.77 206.363 817.397 206.999 815.541 205.927C813.9 204.979 813.213 203.013 813.815 201.286L753.204 166.262C752.011 167.648 749.966 168.035 748.325 167.087Z" fill="white"/>
<path fill-rule="evenodd" clip-rule="evenodd" d="M752.206 399.64C750.35 400.712 747.976 400.076 746.905 398.218C745.833 396.361 746.469 393.985 748.325 392.913C749.966 391.965 752.011 392.352 753.204 393.738L813.815 358.714C813.213 356.987 813.9 355.021 815.541 354.073C817.397 353 819.77 353.637 820.842 355.495C821.913 357.352 821.277 359.728 819.421 360.8C817.781 361.748 815.736 361.361 814.543 359.975L753.931 394.999C754.534 396.726 753.847 398.692 752.206 399.64Z" fill="white"/>
<path fill-rule="evenodd" clip-rule="evenodd" d="M213.761 318.597C213.761 320.742 212.024 322.481 209.881 322.481C207.737 322.481 206 320.742 206 318.597C206 316.701 207.358 315.122 209.153 314.781V244.733C207.358 244.392 206 242.814 206 240.918C206 238.773 207.737 237.034 209.881 237.034C212.024 237.034 213.761 238.773 213.761 240.918C213.761 242.814 212.404 244.392 210.608 244.733V314.781C212.404 315.122 213.761 316.701 213.761 318.597Z" fill="white"/>
<path fill-rule="evenodd" clip-rule="evenodd" d="M881.239 319.082C881.239 321.228 882.976 322.966 885.119 322.966C887.263 322.966 889 321.228 889 319.082C889 317.186 887.642 315.607 885.847 315.267V245.219C887.642 244.878 889 243.299 889 241.403C889 239.258 887.263 237.519 885.119 237.519C882.976 237.519 881.239 239.258 881.239 241.403C881.239 243.299 882.596 244.878 884.392 245.219V315.267C882.596 315.607 881.239 317.186 881.239 319.082Z" fill="white"/>
<path fill-rule="evenodd" clip-rule="evenodd" d="M678.476 358.714C678.337 358.314 678.262 357.884 678.262 357.437C678.262 355.292 679.999 353.553 682.142 353.553C682.178 353.553 682.213 353.553 682.248 353.554C682.283 353.553 682.318 353.553 682.354 353.553C684.497 353.553 686.234 355.292 686.234 357.437C686.234 357.884 686.159 358.314 686.02 358.714L751.024 396.276L686.02 433.839C686.159 434.239 686.234 434.669 686.234 435.116C686.234 437.261 684.497 439 682.354 439C682.318 439 682.283 439 682.248 438.999C682.213 439 682.178 439 682.142 439C679.999 439 678.262 437.261 678.262 435.116C678.262 434.669 678.337 434.239 678.476 433.839L613.472 396.276L678.476 358.714ZM679.205 359.975L616.382 396.276L679.205 432.578C679.916 431.754 680.968 431.232 682.142 431.232C682.178 431.232 682.213 431.233 682.248 431.233C682.283 431.233 682.318 431.232 682.354 431.232C683.527 431.232 684.579 431.754 685.291 432.578L748.114 396.276L685.291 359.975C684.579 360.799 683.527 361.321 682.354 361.321C682.318 361.321 682.283 361.32 682.248 361.319C682.213 361.32 682.178 361.321 682.142 361.321C680.968 361.321 679.916 360.799 679.205 359.975Z" fill="white"/>
<path d="M753.661 396.276C753.661 398.421 751.924 400.16 749.781 400.16C747.637 400.16 745.9 398.421 745.9 396.276C745.9 394.131 747.637 392.392 749.781 392.392C751.924 392.392 753.661 394.131 753.661 396.276Z" fill="white"/>
<path d="M686.234 435.116C686.234 437.261 684.497 439 682.354 439C680.21 439 678.473 437.261 678.473 435.116C678.473 432.971 680.21 431.232 682.354 431.232C684.497 431.232 686.234 432.971 686.234 435.116Z" fill="white"/>
<path d="M618.808 396.276C618.808 398.421 617.07 400.16 614.927 400.16C612.784 400.16 611.046 398.421 611.046 396.276C611.046 394.131 612.784 392.392 614.927 392.392C617.07 392.392 618.808 394.131 618.808 396.276Z" fill="white"/>
<path d="M686.234 357.437C686.234 359.582 684.497 361.321 682.354 361.321C680.21 361.321 678.473 359.582 678.473 357.437C678.473 355.292 680.21 353.553 682.354 353.553C684.497 353.553 686.234 355.292 686.234 357.437Z" fill="white"/>
<path fill-rule="evenodd" clip-rule="evenodd" d="M678.476 203.841C678.337 203.441 678.262 203.011 678.262 202.563C678.262 200.418 679.999 198.679 682.142 198.679C682.178 198.679 682.213 198.68 682.248 198.681C682.283 198.68 682.318 198.679 682.354 198.679C684.497 198.679 686.234 200.418 686.234 202.563C686.234 203.011 686.159 203.441 686.02 203.841L751.024 241.403L686.02 278.965C686.159 279.365 686.234 279.795 686.234 280.243C686.234 282.388 684.497 284.127 682.354 284.127C682.318 284.127 682.283 284.126 682.248 284.125C682.213 284.126 682.178 284.127 682.142 284.127C679.999 284.127 678.262 282.388 678.262 280.243C678.262 279.795 678.337 279.365 678.476 278.965L613.472 241.403L678.476 203.841ZM679.205 205.102L616.382 241.403L679.205 277.704C679.916 276.88 680.968 276.359 682.142 276.359C682.178 276.359 682.213 276.359 682.248 276.36C682.283 276.359 682.318 276.359 682.354 276.359C683.527 276.359 684.579 276.88 685.291 277.704L748.114 241.403L685.291 205.102C684.579 205.926 683.527 206.447 682.354 206.447C682.318 206.447 682.283 206.447 682.248 206.446C682.213 206.447 682.178 206.447 682.142 206.447C680.968 206.447 679.916 205.926 679.205 205.102Z" fill="white"/>
<path d="M753.661 241.403C753.661 243.548 751.924 245.287 749.781 245.287C747.637 245.287 745.9 243.548 745.9 241.403C745.9 239.258 747.637 237.519 749.781 237.519C751.924 237.519 753.661 239.258 753.661 241.403Z" fill="white"/>
<path d="M686.234 280.243C686.234 282.388 684.497 284.127 682.354 284.127C680.21 284.127 678.473 282.388 678.473 280.243C678.473 278.098 680.21 276.359 682.354 276.359C684.497 276.359 686.234 278.098 686.234 280.243Z" fill="white"/>
<path d="M618.808 241.403C618.808 243.548 617.07 245.287 614.927 245.287C612.784 245.287 611.046 243.548 611.046 241.403C611.046 239.258 612.784 237.519 614.927 237.519C617.07 237.519 618.808 239.258 618.808 241.403Z" fill="white"/>
<path d="M686.234 202.563C686.234 204.708 684.497 206.447 682.354 206.447C680.21 206.447 678.473 204.708 678.473 202.563C678.473 200.418 680.21 198.679 682.354 198.679C684.497 198.679 686.234 200.418 686.234 202.563Z" fill="white"/>
<path fill-rule="evenodd" clip-rule="evenodd" d="M678.476 281.035C678.337 280.635 678.262 280.205 678.262 279.757C678.262 277.612 679.999 275.873 682.142 275.873C682.178 275.873 682.213 275.874 682.248 275.875C682.283 275.874 682.318 275.873 682.354 275.873C684.497 275.873 686.234 277.612 686.234 279.757C686.234 280.205 686.159 280.635 686.02 281.035L751.024 318.597L686.02 356.159C686.159 356.559 686.234 356.989 686.234 357.437C686.234 359.582 684.497 361.321 682.354 361.321C682.318 361.321 682.283 361.32 682.248 361.319C682.213 361.32 682.178 361.321 682.142 361.321C679.999 361.321 678.262 359.582 678.262 357.437C678.262 356.989 678.337 356.559 678.476 356.159L613.472 318.597L678.476 281.035ZM679.205 282.296L616.382 318.597L679.205 354.898C679.916 354.074 680.968 353.553 682.142 353.553C682.178 353.553 682.213 353.553 682.248 353.554C682.283 353.553 682.318 353.553 682.354 353.553C683.527 353.553 684.579 354.074 685.291 354.898L748.114 318.597L685.291 282.296C684.579 283.12 683.527 283.641 682.354 283.641C682.318 283.641 682.283 283.641 682.248 283.64C682.213 283.641 682.178 283.641 682.142 283.641C680.968 283.641 679.916 283.12 679.205 282.296Z" fill="white"/>
<path d="M753.661 318.597C753.661 320.742 751.924 322.481 749.781 322.481C747.637 322.481 745.9 320.742 745.9 318.597C745.9 316.452 747.637 314.713 749.781 314.713C751.924 314.713 753.661 316.452 753.661 318.597Z" fill="white"/>
<path d="M686.234 357.437C686.234 359.582 684.497 361.321 682.354 361.321C680.21 361.321 678.473 359.582 678.473 357.437C678.473 355.292 680.21 353.553 682.354 353.553C684.497 353.553 686.234 355.292 686.234 357.437Z" fill="white"/>
<path d="M618.808 318.597C618.808 320.742 617.07 322.481 614.927 322.481C612.784 322.481 611.046 320.742 611.046 318.597C611.046 316.452 612.784 314.713 614.927 314.713C617.07 314.713 618.808 316.452 618.808 318.597Z" fill="white"/>
<path d="M686.234 279.757C686.234 281.902 684.497 283.641 682.354 283.641C680.21 283.641 678.473 281.902 678.473 279.757C678.473 277.612 680.21 275.873 682.354 275.873C684.497 275.873 686.234 277.612 686.234 279.757Z" fill="white"/>
<path fill-rule="evenodd" clip-rule="evenodd" d="M678.476 126.161C678.337 125.761 678.262 125.331 678.262 124.884C678.262 122.739 679.999 121 682.142 121C682.178 121 682.213 121 682.248 121.001C682.283 121 682.318 121 682.354 121C684.497 121 686.234 122.739 686.234 124.884C686.234 125.331 686.159 125.761 686.02 126.161L751.024 163.724L686.02 201.286C686.159 201.686 686.234 202.116 686.234 202.563C686.234 204.708 684.497 206.447 682.354 206.447C682.318 206.447 682.283 206.447 682.248 206.446C682.213 206.447 682.178 206.447 682.142 206.447C679.999 206.447 678.262 204.708 678.262 202.563C678.262 202.116 678.337 201.686 678.476 201.286L613.472 163.724L678.476 126.161ZM679.205 127.422L616.382 163.724L679.205 200.025C679.916 199.201 680.968 198.679 682.142 198.679C682.178 198.679 682.213 198.68 682.248 198.681C682.283 198.68 682.318 198.679 682.354 198.679C683.527 198.679 684.579 199.201 685.291 200.025L748.114 163.724L685.291 127.422C684.579 128.246 683.527 128.768 682.354 128.768C682.318 128.768 682.283 128.767 682.248 128.767C682.213 128.767 682.178 128.768 682.142 128.768C680.968 128.768 679.916 128.246 679.205 127.422Z" fill="white"/>
<path d="M753.661 163.724C753.661 165.869 751.924 167.608 749.781 167.608C747.637 167.608 745.9 165.869 745.9 163.724C745.9 161.579 747.637 159.84 749.781 159.84C751.924 159.84 753.661 161.579 753.661 163.724Z" fill="white"/>
<path d="M686.234 202.563C686.234 204.708 684.497 206.447 682.354 206.447C680.21 206.447 678.473 204.708 678.473 202.563C678.473 200.418 680.21 198.679 682.354 198.679C684.497 198.679 686.234 200.418 686.234 202.563Z" fill="white"/>
<path d="M618.808 163.724C618.808 165.869 617.07 167.608 614.927 167.608C612.784 167.608 611.046 165.869 611.046 163.724C611.046 161.579 612.784 159.84 614.927 159.84C617.07 159.84 618.808 161.579 618.808 163.724Z" fill="white"/>
<path d="M686.234 124.884C686.234 127.029 684.497 128.768 682.354 128.768C680.21 128.768 678.473 127.029 678.473 124.884C678.473 122.739 680.21 121 682.354 121C684.497 121 686.234 122.739 686.234 124.884Z" fill="white"/>
<path fill-rule="evenodd" clip-rule="evenodd" d="M408.284 358.714C408.145 358.314 408.069 357.884 408.069 357.437C408.069 355.292 409.807 353.553 411.95 353.553C411.985 353.553 412.02 353.553 412.055 353.554C412.091 353.553 412.126 353.553 412.161 353.553C414.304 353.553 416.042 355.292 416.042 357.437C416.042 357.884 415.966 358.314 415.827 358.714L480.832 396.276L415.827 433.839C415.966 434.239 416.042 434.669 416.042 435.116C416.042 437.261 414.304 439 412.161 439C412.126 439 412.091 439 412.055 438.999C412.02 439 411.985 439 411.95 439C409.807 439 408.069 437.261 408.069 435.116C408.069 434.669 408.145 434.239 408.284 433.839L343.279 396.276L408.284 358.714ZM409.012 359.975L346.19 396.276L409.012 432.578C409.724 431.754 410.776 431.232 411.95 431.232C411.985 431.232 412.02 431.233 412.055 431.233C412.091 431.233 412.126 431.232 412.161 431.232C413.335 431.232 414.387 431.754 415.099 432.578L477.921 396.276L415.099 359.975C414.387 360.799 413.335 361.321 412.161 361.321C412.126 361.321 412.091 361.32 412.055 361.319C412.02 361.32 411.985 361.321 411.95 361.321C410.776 361.321 409.724 360.799 409.012 359.975Z" fill="white"/>
<path d="M483.469 396.276C483.469 398.421 481.731 400.16 479.588 400.16C477.445 400.16 475.707 398.421 475.707 396.276C475.707 394.131 477.445 392.392 479.588 392.392C481.731 392.392 483.469 394.131 483.469 396.276Z" fill="white"/>
<path d="M416.042 435.116C416.042 437.261 414.304 439 412.161 439C410.018 439 408.281 437.261 408.281 435.116C408.281 432.971 410.018 431.232 412.161 431.232C414.304 431.232 416.042 432.971 416.042 435.116Z" fill="white"/>
<path d="M348.615 396.276C348.615 398.421 346.878 400.16 344.734 400.16C342.591 400.16 340.854 398.421 340.854 396.276C340.854 394.131 342.591 392.392 344.734 392.392C346.878 392.392 348.615 394.131 348.615 396.276Z" fill="white"/>
<path d="M416.042 357.437C416.042 359.582 414.304 361.321 412.161 361.321C410.018 361.321 408.281 359.582 408.281 357.437C408.281 355.292 410.018 353.553 412.161 353.553C414.304 353.553 416.042 355.292 416.042 357.437Z" fill="white"/>
<path fill-rule="evenodd" clip-rule="evenodd" d="M408.284 203.841C408.145 203.441 408.069 203.011 408.069 202.563C408.069 200.418 409.807 198.679 411.95 198.679C411.985 198.679 412.02 198.68 412.055 198.681C412.091 198.68 412.126 198.679 412.161 198.679C414.304 198.679 416.042 200.418 416.042 202.563C416.042 203.011 415.966 203.441 415.827 203.841L480.832 241.403L415.827 278.965C415.966 279.365 416.042 279.795 416.042 280.243C416.042 282.388 414.304 284.127 412.161 284.127C412.126 284.127 412.091 284.126 412.055 284.125C412.02 284.126 411.985 284.127 411.95 284.127C409.807 284.127 408.069 282.388 408.069 280.243C408.069 279.795 408.145 279.365 408.284 278.965L343.279 241.403L408.284 203.841ZM409.012 205.102L346.19 241.403L409.012 277.704C409.724 276.88 410.776 276.359 411.95 276.359C411.985 276.359 412.02 276.359 412.055 276.36C412.091 276.359 412.126 276.359 412.161 276.359C413.335 276.359 414.387 276.88 415.099 277.704L477.921 241.403L415.099 205.102C414.387 205.926 413.335 206.447 412.161 206.447C412.126 206.447 412.091 206.447 412.055 206.446C412.02 206.447 411.985 206.447 411.95 206.447C410.776 206.447 409.724 205.926 409.012 205.102Z" fill="white"/>
<path d="M483.469 241.403C483.469 243.548 481.731 245.287 479.588 245.287C477.445 245.287 475.707 243.548 475.707 241.403C475.707 239.258 477.445 237.519 479.588 237.519C481.731 237.519 483.469 239.258 483.469 241.403Z" fill="white"/>
<path d="M416.042 280.243C416.042 282.388 414.304 284.127 412.161 284.127C410.018 284.127 408.281 282.388 408.281 280.243C408.281 278.098 410.018 276.359 412.161 276.359C414.304 276.359 416.042 278.098 416.042 280.243Z" fill="white"/>
<path d="M348.615 241.403C348.615 243.548 346.878 245.287 344.734 245.287C342.591 245.287 340.854 243.548 340.854 241.403C340.854 239.258 342.591 237.519 344.734 237.519C346.878 237.519 348.615 239.258 348.615 241.403Z" fill="white"/>
<path d="M416.042 202.563C416.042 204.708 414.304 206.447 412.161 206.447C410.018 206.447 408.281 204.708 408.281 202.563C408.281 200.418 410.018 198.679 412.161 198.679C414.304 198.679 416.042 200.418 416.042 202.563Z" fill="white"/>
<path fill-rule="evenodd" clip-rule="evenodd" d="M340.857 165.001C340.718 164.601 340.642 164.171 340.642 163.724C340.642 161.579 342.38 159.84 344.523 159.84C344.558 159.84 344.594 159.84 344.629 159.841C344.664 159.84 344.699 159.84 344.734 159.84C346.878 159.84 348.615 161.579 348.615 163.724C348.615 164.171 348.539 164.601 348.4 165.001L413.405 202.563L348.4 240.126C348.539 240.526 348.615 240.956 348.615 241.403C348.615 243.548 346.878 245.287 344.734 245.287C344.699 245.287 344.664 245.287 344.629 245.286C344.594 245.287 344.558 245.287 344.523 245.287C342.38 245.287 340.642 243.548 340.642 241.403C340.642 240.956 340.718 240.526 340.857 240.126L275.852 202.563L340.857 165.001ZM341.585 166.262L278.763 202.563L341.585 238.865C342.297 238.041 343.349 237.519 344.523 237.519C344.558 237.519 344.594 237.52 344.629 237.521C344.664 237.52 344.699 237.519 344.734 237.519C345.908 237.519 346.96 238.041 347.672 238.865L410.494 202.563L347.672 166.262C346.96 167.086 345.908 167.608 344.734 167.608C344.699 167.608 344.664 167.607 344.629 167.606C344.594 167.607 344.558 167.608 344.523 167.608C343.349 167.608 342.297 167.086 341.585 166.262Z" fill="white"/>
<path d="M416.042 202.563C416.042 204.708 414.304 206.447 412.161 206.447C410.018 206.447 408.281 204.708 408.281 202.563C408.281 200.418 410.018 198.679 412.161 198.679C414.304 198.679 416.042 200.418 416.042 202.563Z" fill="white"/>
<path d="M348.615 241.403C348.615 243.548 346.878 245.287 344.734 245.287C342.591 245.287 340.854 243.548 340.854 241.403C340.854 239.258 342.591 237.519 344.734 237.519C346.878 237.519 348.615 239.258 348.615 241.403Z" fill="white"/>
<path d="M281.188 202.563C281.188 204.708 279.451 206.447 277.308 206.447C275.164 206.447 273.427 204.708 273.427 202.563C273.427 200.418 275.164 198.679 277.308 198.679C279.451 198.679 281.188 200.418 281.188 202.563Z" fill="white"/>
<path d="M348.615 163.724C348.615 165.869 346.878 167.608 344.734 167.608C342.591 167.608 340.854 165.869 340.854 163.724C340.854 161.579 342.591 159.84 344.734 159.84C346.878 159.84 348.615 161.579 348.615 163.724Z" fill="white"/>
<path fill-rule="evenodd" clip-rule="evenodd" d="M273.43 203.355C273.291 202.955 273.215 202.525 273.215 202.078C273.215 199.933 274.953 198.194 277.096 198.194C277.131 198.194 277.167 198.194 277.202 198.195C277.237 198.194 277.272 198.194 277.308 198.194C279.451 198.194 281.188 199.933 281.188 202.078C281.188 202.525 281.113 202.955 280.973 203.355L345.978 240.918L280.973 278.48C281.113 278.88 281.188 279.31 281.188 279.757C281.188 281.902 279.451 283.641 277.308 283.641C277.272 283.641 277.237 283.641 277.202 283.64C277.167 283.641 277.131 283.641 277.096 283.641C274.953 283.641 273.215 281.902 273.215 279.757C273.215 279.31 273.291 278.88 273.43 278.48L208.425 240.918L273.43 203.355ZM274.159 204.616L211.336 240.918L274.159 277.219C274.87 276.395 275.922 275.873 277.096 275.873C277.131 275.873 277.167 275.874 277.202 275.875C277.237 275.874 277.272 275.873 277.308 275.873C278.481 275.873 279.533 276.395 280.245 277.219L343.068 240.918L280.245 204.616C279.533 205.44 278.481 205.962 277.308 205.962C277.272 205.962 277.237 205.961 277.202 205.96C277.167 205.961 277.131 205.962 277.096 205.962C275.922 205.962 274.87 205.44 274.159 204.616Z" fill="white"/>
<path d="M348.615 240.918C348.615 243.063 346.878 244.802 344.734 244.802C342.591 244.802 340.854 243.063 340.854 240.918C340.854 238.772 342.591 237.034 344.734 237.034C346.878 237.034 348.615 238.772 348.615 240.918Z" fill="white"/>
<path d="M281.188 279.757C281.188 281.902 279.451 283.641 277.308 283.641C275.164 283.641 273.427 281.902 273.427 279.757C273.427 277.612 275.164 275.873 277.308 275.873C279.451 275.873 281.188 277.612 281.188 279.757Z" fill="white"/>
<path d="M213.761 240.918C213.761 243.063 212.024 244.802 209.881 244.802C207.737 244.802 206 243.063 206 240.918C206 238.773 207.737 237.034 209.881 237.034C212.024 237.034 213.761 238.773 213.761 240.918Z" fill="white"/>
<path d="M281.188 202.078C281.188 204.223 279.451 205.962 277.308 205.962C275.164 205.962 273.427 204.223 273.427 202.078C273.427 199.933 275.164 198.194 277.308 198.194C279.451 198.194 281.188 199.933 281.188 202.078Z" fill="white"/>
<path fill-rule="evenodd" clip-rule="evenodd" d="M821.57 203.841C821.709 203.441 821.785 203.011 821.785 202.563C821.785 200.418 820.047 198.679 817.904 198.679C817.869 198.679 817.833 198.68 817.798 198.681C817.763 198.68 817.728 198.679 817.692 198.679C815.549 198.679 813.812 200.418 813.812 202.563C813.812 203.011 813.887 203.441 814.027 203.841L749.022 241.403L814.027 278.965C813.887 279.365 813.812 279.795 813.812 280.243C813.812 282.388 815.549 284.127 817.692 284.127C817.728 284.127 817.763 284.126 817.798 284.125C817.833 284.126 817.869 284.127 817.904 284.127C820.047 284.127 821.785 282.388 821.785 280.243C821.785 279.795 821.709 279.365 821.57 278.965L886.575 241.403L821.57 203.841ZM820.841 205.102L883.664 241.403L820.841 277.704C820.13 276.88 819.078 276.359 817.904 276.359C817.869 276.359 817.833 276.359 817.798 276.36C817.763 276.359 817.728 276.359 817.692 276.359C816.519 276.359 815.467 276.88 814.755 277.704L751.932 241.403L814.755 205.102C815.467 205.926 816.519 206.447 817.692 206.447C817.728 206.447 817.763 206.447 817.798 206.446C817.833 206.447 817.869 206.447 817.904 206.447C819.078 206.447 820.13 205.926 820.841 205.102Z" fill="white"/>
<path d="M746.385 241.403C746.385 243.548 748.122 245.287 750.266 245.287C752.409 245.287 754.146 243.548 754.146 241.403C754.146 239.258 752.409 237.519 750.266 237.519C748.122 237.519 746.385 239.258 746.385 241.403Z" fill="white"/>
<path d="M813.812 280.243C813.812 282.388 815.549 284.127 817.692 284.127C819.836 284.127 821.573 282.388 821.573 280.243C821.573 278.098 819.836 276.359 817.692 276.359C815.549 276.359 813.812 278.098 813.812 280.243Z" fill="white"/>
<path d="M881.239 241.403C881.239 243.548 882.976 245.287 885.119 245.287C887.263 245.287 889 243.548 889 241.403C889 239.258 887.263 237.519 885.119 237.519C882.976 237.519 881.239 239.258 881.239 241.403Z" fill="white"/>
<path d="M813.812 202.563C813.812 204.708 815.549 206.447 817.692 206.447C819.836 206.447 821.573 204.708 821.573 202.563C821.573 200.418 819.836 198.679 817.692 198.679C815.549 198.679 813.812 200.418 813.812 202.563Z" fill="white"/>
<path fill-rule="evenodd" clip-rule="evenodd" d="M273.43 281.035C273.291 280.635 273.215 280.205 273.215 279.757C273.215 277.612 274.953 275.873 277.096 275.873C277.131 275.873 277.167 275.874 277.202 275.875C277.237 275.874 277.272 275.873 277.308 275.873C279.451 275.873 281.188 277.612 281.188 279.757C281.188 280.205 281.113 280.635 280.973 281.035L345.978 318.597L280.973 356.159C281.113 356.559 281.188 356.989 281.188 357.437C281.188 359.582 279.451 361.321 277.308 361.321C277.272 361.321 277.237 361.32 277.202 361.319C277.167 361.32 277.131 361.321 277.096 361.321C274.953 361.321 273.215 359.582 273.215 357.437C273.215 356.989 273.291 356.559 273.43 356.159L208.425 318.597L273.43 281.035ZM274.159 282.296L211.336 318.597L274.159 354.898C274.87 354.074 275.922 353.553 277.096 353.553C277.131 353.553 277.167 353.553 277.202 353.554C277.237 353.553 277.272 353.553 277.308 353.553C278.481 353.553 279.533 354.074 280.245 354.898L343.068 318.597L280.245 282.296C279.533 283.12 278.481 283.641 277.308 283.641C277.272 283.641 277.237 283.641 277.202 283.64C277.167 283.641 277.131 283.641 277.096 283.641C275.922 283.641 274.87 283.12 274.159 282.296Z" fill="white"/>
<path d="M348.615 318.597C348.615 320.742 346.878 322.481 344.734 322.481C342.591 322.481 340.854 320.742 340.854 318.597C340.854 316.452 342.591 314.713 344.734 314.713C346.878 314.713 348.615 316.452 348.615 318.597Z" fill="white"/>
<path d="M281.188 357.437C281.188 359.582 279.451 361.321 277.308 361.321C275.164 361.321 273.427 359.582 273.427 357.437C273.427 355.292 275.164 353.553 277.308 353.553C279.451 353.553 281.188 355.292 281.188 357.437Z" fill="white"/>
<path d="M213.761 318.597C213.761 320.742 212.024 322.481 209.881 322.481C207.737 322.481 206 320.742 206 318.597C206 316.452 207.737 314.713 209.881 314.713C212.024 314.713 213.761 316.452 213.761 318.597Z" fill="white"/>
<path d="M281.188 279.757C281.188 281.902 279.451 283.641 277.308 283.641C275.164 283.641 273.427 281.902 273.427 279.757C273.427 277.612 275.164 275.873 277.308 275.873C279.451 275.873 281.188 277.612 281.188 279.757Z" fill="white"/>
<path fill-rule="evenodd" clip-rule="evenodd" d="M821.57 281.52C821.709 281.12 821.785 280.69 821.785 280.243C821.785 278.098 820.047 276.359 817.904 276.359C817.869 276.359 817.833 276.359 817.798 276.36C817.763 276.359 817.728 276.359 817.692 276.359C815.549 276.359 813.812 278.098 813.812 280.243C813.812 280.69 813.887 281.12 814.027 281.52L749.022 319.082L814.027 356.645C813.887 357.045 813.812 357.475 813.812 357.922C813.812 360.067 815.549 361.806 817.692 361.806C817.728 361.806 817.763 361.806 817.798 361.805C817.833 361.806 817.869 361.806 817.904 361.806C820.047 361.806 821.785 360.067 821.785 357.922C821.785 357.475 821.709 357.045 821.57 356.645L886.575 319.082L821.57 281.52ZM820.841 282.781L883.664 319.082L820.841 355.384C820.13 354.56 819.078 354.038 817.904 354.038C817.869 354.038 817.833 354.039 817.798 354.04C817.763 354.039 817.728 354.038 817.692 354.038C816.519 354.038 815.467 354.56 814.755 355.384L751.932 319.082L814.755 282.781C815.467 283.605 816.519 284.127 817.692 284.127C817.728 284.127 817.763 284.126 817.798 284.125C817.833 284.126 817.869 284.127 817.904 284.127C819.078 284.127 820.13 283.605 820.841 282.781Z" fill="white"/>
<path d="M746.385 319.082C746.385 321.228 748.122 322.966 750.266 322.966C752.409 322.966 754.146 321.228 754.146 319.082C754.146 316.937 752.409 315.198 750.266 315.198C748.122 315.198 746.385 316.937 746.385 319.082Z" fill="white"/>
<path d="M813.812 357.922C813.812 360.067 815.549 361.806 817.692 361.806C819.836 361.806 821.573 360.067 821.573 357.922C821.573 355.777 819.836 354.038 817.692 354.038C815.549 354.038 813.812 355.777 813.812 357.922Z" fill="white"/>
<path d="M881.239 319.082C881.239 321.228 882.976 322.966 885.119 322.966C887.263 322.966 889 321.228 889 319.082C889 316.937 887.263 315.198 885.119 315.198C882.976 315.198 881.239 316.937 881.239 319.082Z" fill="white"/>
<path d="M813.812 280.243C813.812 282.388 815.549 284.127 817.692 284.127C819.836 284.127 821.573 282.388 821.573 280.243C821.573 278.098 819.836 276.359 817.692 276.359C815.549 276.359 813.812 278.098 813.812 280.243Z" fill="white"/>
<path fill-rule="evenodd" clip-rule="evenodd" d="M340.857 242.195C340.718 241.795 340.642 241.365 340.642 240.918C340.642 238.772 342.38 237.034 344.523 237.034C344.558 237.034 344.594 237.034 344.629 237.035C344.664 237.034 344.699 237.034 344.734 237.034C346.878 237.034 348.615 238.772 348.615 240.918C348.615 241.365 348.539 241.795 348.4 242.195L413.405 279.757L348.4 317.32C348.539 317.72 348.615 318.149 348.615 318.597C348.615 320.742 346.878 322.481 344.734 322.481C344.699 322.481 344.664 322.48 344.629 322.479C344.594 322.48 344.558 322.481 344.523 322.481C342.38 322.481 340.642 320.742 340.642 318.597C340.642 318.149 340.718 317.72 340.857 317.32L275.852 279.757L340.857 242.195ZM341.585 243.456L278.763 279.757L341.585 316.059C342.297 315.235 343.349 314.713 344.523 314.713C344.558 314.713 344.594 314.713 344.629 314.714C344.664 314.713 344.699 314.713 344.734 314.713C345.908 314.713 346.96 315.235 347.672 316.059L410.494 279.757L347.672 243.456C346.96 244.28 345.908 244.802 344.734 244.802C344.699 244.802 344.664 244.801 344.629 244.8C344.594 244.801 344.558 244.802 344.523 244.802C343.349 244.802 342.297 244.28 341.585 243.456Z" fill="white"/>
<path d="M416.042 279.757C416.042 281.902 414.304 283.641 412.161 283.641C410.018 283.641 408.281 281.902 408.281 279.757C408.281 277.612 410.018 275.873 412.161 275.873C414.304 275.873 416.042 277.612 416.042 279.757Z" fill="white"/>
<path d="M348.615 318.597C348.615 320.742 346.878 322.481 344.734 322.481C342.591 322.481 340.854 320.742 340.854 318.597C340.854 316.452 342.591 314.713 344.734 314.713C346.878 314.713 348.615 316.452 348.615 318.597Z" fill="white"/>
<path d="M281.188 279.757C281.188 281.902 279.451 283.641 277.308 283.641C275.164 283.641 273.427 281.902 273.427 279.757C273.427 277.612 275.164 275.873 277.308 275.873C279.451 275.873 281.188 277.612 281.188 279.757Z" fill="white"/>
<path d="M348.615 240.918C348.615 243.063 346.878 244.802 344.734 244.802C342.591 244.802 340.854 243.063 340.854 240.918C340.854 238.772 342.591 237.034 344.734 237.034C346.878 237.034 348.615 238.772 348.615 240.918Z" fill="white"/>
<path fill-rule="evenodd" clip-rule="evenodd" d="M340.857 319.874C340.718 319.474 340.642 319.044 340.642 318.597C340.642 316.452 342.38 314.713 344.523 314.713C344.558 314.713 344.594 314.713 344.629 314.714C344.664 314.713 344.699 314.713 344.734 314.713C346.878 314.713 348.615 316.452 348.615 318.597C348.615 319.044 348.539 319.474 348.4 319.874L413.405 357.437L348.4 394.999C348.539 395.399 348.615 395.829 348.615 396.276C348.615 398.421 346.878 400.16 344.734 400.16C344.699 400.16 344.664 400.16 344.629 400.159C344.594 400.16 344.558 400.16 344.523 400.16C342.38 400.16 340.642 398.421 340.642 396.276C340.642 395.829 340.718 395.399 340.857 394.999L275.852 357.437L340.857 319.874ZM341.585 321.135L278.763 357.437L341.585 393.738C342.297 392.914 343.349 392.392 344.523 392.392C344.558 392.392 344.594 392.393 344.629 392.394C344.664 392.393 344.699 392.392 344.734 392.392C345.908 392.392 346.96 392.914 347.672 393.738L410.494 357.437L347.672 321.135C346.96 321.959 345.908 322.481 344.734 322.481C344.699 322.481 344.664 322.48 344.629 322.479C344.594 322.48 344.558 322.481 344.523 322.481C343.349 322.481 342.297 321.959 341.585 321.135Z" fill="white"/>
<path d="M416.042 357.437C416.042 359.582 414.304 361.321 412.161 361.321C410.018 361.321 408.281 359.582 408.281 357.437C408.281 355.292 410.018 353.553 412.161 353.553C414.304 353.553 416.042 355.292 416.042 357.437Z" fill="white"/>
<path d="M348.615 396.276C348.615 398.421 346.878 400.16 344.734 400.16C342.591 400.16 340.854 398.421 340.854 396.276C340.854 394.131 342.591 392.392 344.734 392.392C346.878 392.392 348.615 394.131 348.615 396.276Z" fill="white"/>
<path d="M281.188 357.437C281.188 359.582 279.451 361.321 277.308 361.321C275.164 361.321 273.427 359.582 273.427 357.437C273.427 355.292 275.164 353.553 277.308 353.553C279.451 353.553 281.188 355.292 281.188 357.437Z" fill="white"/>
<path d="M348.615 318.597C348.615 320.742 346.878 322.481 344.734 322.481C342.591 322.481 340.854 320.742 340.854 318.597C340.854 316.452 342.591 314.713 344.734 314.713C346.878 314.713 348.615 316.452 348.615 318.597Z" fill="white"/>
<path fill-rule="evenodd" clip-rule="evenodd" d="M408.284 281.035C408.145 280.635 408.069 280.205 408.069 279.757C408.069 277.612 409.807 275.873 411.95 275.873C411.985 275.873 412.02 275.874 412.055 275.875C412.091 275.874 412.126 275.873 412.161 275.873C414.304 275.873 416.042 277.612 416.042 279.757C416.042 280.205 415.966 280.635 415.827 281.035L480.832 318.597L415.827 356.159C415.966 356.559 416.042 356.989 416.042 357.437C416.042 359.582 414.304 361.321 412.161 361.321C412.126 361.321 412.091 361.32 412.055 361.319C412.02 361.32 411.985 361.321 411.95 361.321C409.807 361.321 408.069 359.582 408.069 357.437C408.069 356.989 408.145 356.559 408.284 356.159L343.279 318.597L408.284 281.035ZM409.012 282.296L346.19 318.597L409.012 354.898C409.724 354.074 410.776 353.553 411.95 353.553C411.985 353.553 412.02 353.553 412.055 353.554C412.091 353.553 412.126 353.553 412.161 353.553C413.335 353.553 414.387 354.074 415.099 354.898L477.921 318.597L415.099 282.296C414.387 283.12 413.335 283.641 412.161 283.641C412.126 283.641 412.091 283.641 412.055 283.64C412.02 283.641 411.985 283.641 411.95 283.641C410.776 283.641 409.724 283.12 409.012 282.296Z" fill="white"/>
<path d="M483.469 318.597C483.469 320.742 481.731 322.481 479.588 322.481C477.445 322.481 475.707 320.742 475.707 318.597C475.707 316.452 477.445 314.713 479.588 314.713C481.731 314.713 483.469 316.452 483.469 318.597Z" fill="white"/>
<path d="M416.042 357.437C416.042 359.582 414.304 361.321 412.161 361.321C410.018 361.321 408.281 359.582 408.281 357.437C408.281 355.292 410.018 353.553 412.161 353.553C414.304 353.553 416.042 355.292 416.042 357.437Z" fill="white"/>
<path d="M348.615 318.597C348.615 320.742 346.878 322.481 344.734 322.481C342.591 322.481 340.854 320.742 340.854 318.597C340.854 316.452 342.591 314.713 344.734 314.713C346.878 314.713 348.615 316.452 348.615 318.597Z" fill="white"/>
<path d="M416.042 279.757C416.042 281.902 414.304 283.641 412.161 283.641C410.018 283.641 408.281 281.902 408.281 279.757C408.281 277.612 410.018 275.873 412.161 275.873C414.304 275.873 416.042 277.612 416.042 279.757Z" fill="white"/>
<path fill-rule="evenodd" clip-rule="evenodd" d="M408.284 126.161C408.145 125.761 408.069 125.331 408.069 124.884C408.069 122.739 409.807 121 411.95 121C411.985 121 412.02 121 412.055 121.001C412.091 121 412.126 121 412.161 121C414.304 121 416.042 122.739 416.042 124.884C416.042 125.331 415.966 125.761 415.827 126.161L480.832 163.724L415.827 201.286C415.966 201.686 416.042 202.116 416.042 202.563C416.042 204.708 414.304 206.447 412.161 206.447C412.126 206.447 412.091 206.447 412.055 206.446C412.02 206.447 411.985 206.447 411.95 206.447C409.807 206.447 408.069 204.708 408.069 202.563C408.069 202.116 408.145 201.686 408.284 201.286L343.279 163.724L408.284 126.161ZM409.012 127.422L346.19 163.724L409.012 200.025C409.724 199.201 410.776 198.679 411.95 198.679C411.985 198.679 412.02 198.68 412.055 198.681C412.091 198.68 412.126 198.679 412.161 198.679C413.335 198.679 414.387 199.201 415.099 200.025L477.921 163.724L415.099 127.422C414.387 128.246 413.335 128.768 412.161 128.768C412.126 128.768 412.091 128.767 412.055 128.767C412.02 128.767 411.985 128.768 411.95 128.768C410.776 128.768 409.724 128.246 409.012 127.422Z" fill="white"/>
<path d="M483.469 163.724C483.469 165.869 481.731 167.608 479.588 167.608C477.445 167.608 475.707 165.869 475.707 163.724C475.707 161.579 477.445 159.84 479.588 159.84C481.731 159.84 483.469 161.579 483.469 163.724Z" fill="white"/>
<path d="M416.042 202.563C416.042 204.708 414.304 206.447 412.161 206.447C410.018 206.447 408.281 204.708 408.281 202.563C408.281 200.418 410.018 198.679 412.161 198.679C414.304 198.679 416.042 200.418 416.042 202.563Z" fill="white"/>
<path d="M348.615 163.724C348.615 165.869 346.878 167.608 344.734 167.608C342.591 167.608 340.854 165.869 340.854 163.724C340.854 161.579 342.591 159.84 344.734 159.84C346.878 159.84 348.615 161.579 348.615 163.724Z" fill="white"/>
<path d="M416.042 124.884C416.042 127.029 414.304 128.768 412.161 128.768C410.018 128.768 408.281 127.029 408.281 124.884C408.281 122.739 410.018 121 412.161 121C414.304 121 416.042 122.739 416.042 124.884Z" fill="white"/>
<path fill-rule="evenodd" clip-rule="evenodd" d="M543.623 358.714C543.483 358.314 543.408 357.884 543.408 357.437C543.408 355.292 545.145 353.553 547.289 353.553C547.324 353.553 547.359 353.553 547.394 353.554C547.429 353.553 547.465 353.553 547.5 353.553C549.643 353.553 551.381 355.292 551.381 357.437C551.381 357.884 551.305 358.314 551.166 358.714L616.171 396.276L551.166 433.839C551.305 434.239 551.381 434.669 551.381 435.116C551.381 437.261 549.643 439 547.5 439C547.465 439 547.429 439 547.394 438.999C547.359 439 547.324 439 547.289 439C545.145 439 543.408 437.261 543.408 435.116C543.408 434.669 543.483 434.239 543.623 433.839L478.618 396.276L543.623 358.714ZM544.351 359.975L481.528 396.276L544.351 432.578C545.063 431.754 546.115 431.232 547.289 431.232C547.324 431.232 547.359 431.233 547.394 431.233C547.429 431.233 547.465 431.232 547.5 431.232C548.674 431.232 549.726 431.754 550.437 432.578L613.26 396.276L550.437 359.975C549.726 360.799 548.674 361.321 547.5 361.321C547.465 361.321 547.429 361.32 547.394 361.319C547.359 361.32 547.324 361.321 547.289 361.321C546.115 361.321 545.063 360.799 544.351 359.975Z" fill="white"/>
<path d="M618.808 396.276C618.808 398.421 617.07 400.16 614.927 400.16C612.784 400.16 611.046 398.421 611.046 396.276C611.046 394.131 612.784 392.392 614.927 392.392C617.07 392.392 618.808 394.131 618.808 396.276Z" fill="white"/>
<path d="M551.381 435.116C551.381 437.261 549.643 439 547.5 439C545.357 439 543.619 437.261 543.619 435.116C543.619 432.971 545.357 431.232 547.5 431.232C549.643 431.232 551.381 432.971 551.381 435.116Z" fill="white"/>
<path d="M483.954 396.276C483.954 398.421 482.216 400.16 480.073 400.16C477.93 400.16 476.192 398.421 476.192 396.276C476.192 394.131 477.93 392.392 480.073 392.392C482.216 392.392 483.954 394.131 483.954 396.276Z" fill="white"/>
<path d="M551.381 357.437C551.381 359.582 549.643 361.321 547.5 361.321C545.357 361.321 543.619 359.582 543.619 357.437C543.619 355.292 545.357 353.553 547.5 353.553C549.643 353.553 551.381 355.292 551.381 357.437Z" fill="white"/>
<path fill-rule="evenodd" clip-rule="evenodd" d="M543.623 203.841C543.483 203.441 543.408 203.011 543.408 202.563C543.408 200.418 545.145 198.679 547.289 198.679C547.324 198.679 547.359 198.68 547.394 198.681C547.429 198.68 547.465 198.679 547.5 198.679C549.643 198.679 551.381 200.418 551.381 202.563C551.381 203.011 551.305 203.441 551.166 203.841L616.171 241.403L551.166 278.965C551.305 279.365 551.381 279.795 551.381 280.243C551.381 282.388 549.643 284.127 547.5 284.127C547.465 284.127 547.429 284.126 547.394 284.125C547.359 284.126 547.324 284.127 547.289 284.127C545.145 284.127 543.408 282.388 543.408 280.243C543.408 279.795 543.483 279.365 543.623 278.965L478.618 241.403L543.623 203.841ZM544.351 205.102L481.528 241.403L544.351 277.704C545.063 276.88 546.115 276.359 547.289 276.359C547.324 276.359 547.359 276.359 547.394 276.36C547.429 276.359 547.465 276.359 547.5 276.359C548.674 276.359 549.726 276.88 550.437 277.704L613.26 241.403L550.437 205.102C549.726 205.926 548.674 206.447 547.5 206.447C547.465 206.447 547.429 206.447 547.394 206.446C547.359 206.447 547.324 206.447 547.289 206.447C546.115 206.447 545.063 205.926 544.351 205.102Z" fill="white"/>
<path d="M618.808 241.403C618.808 243.548 617.07 245.287 614.927 245.287C612.784 245.287 611.046 243.548 611.046 241.403C611.046 239.258 612.784 237.519 614.927 237.519C617.07 237.519 618.808 239.258 618.808 241.403Z" fill="white"/>
<path d="M551.381 280.243C551.381 282.388 549.643 284.127 547.5 284.127C545.357 284.127 543.619 282.388 543.619 280.243C543.619 278.098 545.357 276.359 547.5 276.359C549.643 276.359 551.381 278.098 551.381 280.243Z" fill="white"/>
<path d="M483.954 241.403C483.954 243.548 482.216 245.287 480.073 245.287C477.93 245.287 476.192 243.548 476.192 241.403C476.192 239.258 477.93 237.519 480.073 237.519C482.216 237.519 483.954 239.258 483.954 241.403Z" fill="white"/>
<path d="M551.381 202.563C551.381 204.708 549.643 206.447 547.5 206.447C545.357 206.447 543.619 204.708 543.619 202.563C543.619 200.418 545.357 198.679 547.5 198.679C549.643 198.679 551.381 200.418 551.381 202.563Z" fill="white"/>
<path fill-rule="evenodd" clip-rule="evenodd" d="M543.623 281.035C543.483 280.635 543.408 280.205 543.408 279.757C543.408 277.612 545.145 275.873 547.289 275.873C547.324 275.873 547.359 275.874 547.394 275.875C547.429 275.874 547.465 275.873 547.5 275.873C549.643 275.873 551.381 277.612 551.381 279.757C551.381 280.205 551.305 280.635 551.166 281.035L616.171 318.597L551.166 356.159C551.305 356.559 551.381 356.989 551.381 357.437C551.381 359.582 549.643 361.321 547.5 361.321C547.465 361.321 547.429 361.32 547.394 361.319C547.359 361.32 547.324 361.321 547.289 361.321C545.145 361.321 543.408 359.582 543.408 357.437C543.408 356.989 543.483 356.559 543.623 356.159L478.618 318.597L543.623 281.035ZM544.351 282.296L481.528 318.597L544.351 354.898C545.063 354.074 546.115 353.553 547.289 353.553C547.324 353.553 547.359 353.553 547.394 353.554C547.429 353.553 547.465 353.553 547.5 353.553C548.674 353.553 549.726 354.074 550.437 354.898L613.26 318.597L550.437 282.296C549.726 283.12 548.674 283.641 547.5 283.641C547.465 283.641 547.429 283.641 547.394 283.64C547.359 283.641 547.324 283.641 547.289 283.641C546.115 283.641 545.063 283.12 544.351 282.296Z" fill="white"/>
<path d="M618.808 318.597C618.808 320.742 617.07 322.481 614.927 322.481C612.784 322.481 611.046 320.742 611.046 318.597C611.046 316.452 612.784 314.713 614.927 314.713C617.07 314.713 618.808 316.452 618.808 318.597Z" fill="white"/>
<path d="M551.381 357.437C551.381 359.582 549.643 361.321 547.5 361.321C545.357 361.321 543.619 359.582 543.619 357.437C543.619 355.292 545.357 353.553 547.5 353.553C549.643 353.553 551.381 355.292 551.381 357.437Z" fill="white"/>
<path d="M483.954 318.597C483.954 320.742 482.216 322.481 480.073 322.481C477.93 322.481 476.192 320.742 476.192 318.597C476.192 316.452 477.93 314.713 480.073 314.713C482.216 314.713 483.954 316.452 483.954 318.597Z" fill="white"/>
<path d="M551.381 279.757C551.381 281.902 549.643 283.641 547.5 283.641C545.357 283.641 543.619 281.902 543.619 279.757C543.619 277.612 545.357 275.873 547.5 275.873C549.643 275.873 551.381 277.612 551.381 279.757Z" fill="white"/>
<path fill-rule="evenodd" clip-rule="evenodd" d="M543.623 126.161C543.483 125.761 543.408 125.331 543.408 124.884C543.408 122.739 545.145 121 547.289 121C547.324 121 547.359 121 547.394 121.001C547.429 121 547.465 121 547.5 121C549.643 121 551.381 122.739 551.381 124.884C551.381 125.331 551.305 125.761 551.166 126.161L616.171 163.724L551.166 201.286C551.305 201.686 551.381 202.116 551.381 202.563C551.381 204.708 549.643 206.447 547.5 206.447C547.465 206.447 547.429 206.447 547.394 206.446C547.359 206.447 547.324 206.447 547.289 206.447C545.145 206.447 543.408 204.708 543.408 202.563C543.408 202.116 543.483 201.686 543.623 201.286L478.618 163.724L543.623 126.161ZM544.351 127.422L481.528 163.724L544.351 200.025C545.063 199.201 546.115 198.679 547.289 198.679C547.324 198.679 547.359 198.68 547.394 198.681C547.429 198.68 547.465 198.679 547.5 198.679C548.674 198.679 549.726 199.201 550.437 200.025L613.26 163.724L550.437 127.422C549.726 128.246 548.674 128.768 547.5 128.768C547.465 128.768 547.429 128.767 547.394 128.767C547.359 128.767 547.324 128.768 547.289 128.768C546.115 128.768 545.063 128.246 544.351 127.422Z" fill="white"/>
<path d="M618.808 163.724C618.808 165.869 617.07 167.608 614.927 167.608C612.784 167.608 611.046 165.869 611.046 163.724C611.046 161.579 612.784 159.84 614.927 159.84C617.07 159.84 618.808 161.579 618.808 163.724Z" fill="white"/>
<path d="M551.381 202.563C551.381 204.708 549.643 206.447 547.5 206.447C545.357 206.447 543.619 204.708 543.619 202.563C543.619 200.418 545.357 198.679 547.5 198.679C549.643 198.679 551.381 200.418 551.381 202.563Z" fill="white"/>
<path d="M483.954 163.724C483.954 165.869 482.216 167.608 480.073 167.608C477.93 167.608 476.192 165.869 476.192 163.724C476.192 161.579 477.93 159.84 480.073 159.84C482.216 159.84 483.954 161.579 483.954 163.724Z" fill="white"/>
<path d="M551.381 124.884C551.381 127.029 549.643 128.768 547.5 128.768C545.357 128.768 543.619 127.029 543.619 124.884C543.619 122.739 545.357 121 547.5 121C549.643 121 551.381 122.739 551.381 124.884Z" fill="white"/>
<path fill-rule="evenodd" clip-rule="evenodd" d="M344.802 81.6665C344.802 83.8142 343.065 85.5554 340.923 85.5554C340.892 85.5554 340.861 85.555 340.83 85.5543C339.682 85.5887 338.548 85.1092 337.774 84.2083L277.179 119.276C277.781 121.005 277.094 122.974 275.454 123.923C274.81 124.296 274.104 124.462 273.412 124.443C272.267 124.475 271.138 123.995 270.366 123.097L209.771 158.165C209.869 158.449 209.936 158.747 209.966 159.056C210.013 159.518 209.978 159.99 209.854 160.45C209.83 160.542 209.802 160.633 209.771 160.723L270.509 195.874C271.22 195.001 272.302 194.444 273.514 194.444C275.657 194.444 277.394 196.185 277.394 198.333C277.394 200.231 276.037 201.812 274.242 202.154V272.29C276.037 272.631 277.394 274.212 277.394 276.111C277.394 278.258 275.657 279.999 273.514 279.999C273.482 279.999 273.45 279.999 273.418 279.998C272.722 280.02 272.011 279.853 271.363 279.478C269.723 278.529 269.036 276.56 269.638 274.832L209.043 239.763C208.754 240.099 208.416 240.376 208.046 240.59C207.58 240.86 207.053 241.036 206.491 241.092C206.032 241.138 205.563 241.103 205.105 240.98C204.643 240.857 204.216 240.65 203.839 240.378C203.381 240.048 203.013 239.633 202.745 239.166C202.476 238.7 202.301 238.172 202.245 237.609C202.199 237.148 202.234 236.677 202.357 236.217C202.48 235.755 202.686 235.326 202.957 234.949C203.286 234.491 203.699 234.123 204.164 233.854C204.534 233.639 204.943 233.484 205.378 233.401V163.299C204.457 163.174 203.588 162.72 202.957 161.986L142.362 197.054C142.964 198.783 142.277 200.751 140.637 201.701C138.781 202.775 136.409 202.137 135.337 200.277C134.638 199.064 134.666 197.629 135.285 196.481L75.6808 161.986C74.4884 163.373 72.4441 163.761 70.8038 162.812C68.9482 161.738 68.3124 159.36 69.3838 157.5C70.4551 155.64 72.8278 155.002 74.6834 156.076C76.3237 157.025 77.0108 158.994 76.4082 160.723L136.221 195.338C136.386 195.201 136.565 195.076 136.757 194.965C138.398 194.016 140.442 194.404 141.634 195.791L202.23 160.723C201.935 159.879 201.949 158.977 202.23 158.166L141.634 123.097C140.442 124.485 138.398 124.872 136.757 123.923C135.15 122.993 134.458 121.083 134.998 119.379L74.2259 84.2083C73.0336 85.5958 70.9892 85.9836 69.3489 85.0344C68.6692 84.641 68.1531 84.0725 67.8247 83.4186L7.54488 118.304C8.14748 120.033 7.46036 122.002 5.82009 122.951C3.96449 124.025 1.59175 123.388 0.520419 121.527C-0.55091 119.667 0.0848642 117.289 1.94046 116.215C3.58073 115.266 5.6251 115.654 6.81745 117.041L67.4205 81.9686C67.361 81.2116 67.5215 80.4294 67.9289 79.722C69.0002 77.862 71.373 77.2247 73.2286 78.2986C74.8688 79.2479 75.556 81.2165 74.9533 82.9453L135.691 118.096C136.872 116.642 138.965 116.22 140.637 117.187C142.277 118.137 142.964 120.105 142.362 121.834L202.957 156.902C203.233 156.581 203.567 156.3 203.954 156.076C204.599 155.703 205.307 155.536 206 155.556C206.368 155.546 206.74 155.588 207.105 155.685C207.568 155.809 207.996 156.016 208.374 156.289C208.625 156.469 208.848 156.676 209.043 156.902L269.638 121.834C269.344 120.99 269.357 120.089 269.639 119.277L209.043 84.2083C207.851 85.5958 205.806 85.9836 204.166 85.0344C202.31 83.9605 201.675 81.5821 202.746 79.722C203.817 77.862 206.19 77.2247 208.046 78.2986C209.686 79.2479 210.373 81.2165 209.77 82.9453L270.365 118.013C270.642 117.692 270.976 117.411 271.363 117.187C272.007 116.815 272.713 116.648 273.405 116.667C274.55 116.636 275.679 117.115 276.451 118.013L337.047 82.9453C336.749 82.0914 336.766 81.179 337.057 80.3599C337.163 79.1382 337.843 77.9861 338.983 77.3264C339.37 77.1023 339.78 76.9528 340.195 76.8733V7.70951C338.4 7.36821 337.043 5.78742 337.043 3.88888C337.043 1.74111 338.78 0 340.923 0C343.065 0 344.802 1.74111 344.802 3.88888C344.802 5.78742 343.445 7.36821 341.65 7.70951V76.8743C342.492 77.0358 343.278 77.475 343.86 78.1525L404.455 43.0843C403.853 41.3555 404.54 39.3869 406.18 38.4376C408.035 37.3637 410.408 38.001 411.48 39.861C412.551 41.721 411.915 44.0994 410.06 45.1733C408.419 46.1226 406.375 45.7348 405.183 44.3473L344.587 79.4154C344.788 79.9924 344.846 80.596 344.772 81.1796C344.792 81.3391 344.802 81.5016 344.802 81.6665ZM208.045 162.813C207.676 163.027 207.267 163.182 206.833 163.265V233.401C206.873 233.408 206.913 233.417 206.952 233.425L206.975 233.431L206.999 233.436L207.016 233.44C207.059 233.451 207.102 233.462 207.145 233.474C207.592 233.598 208.008 233.801 208.375 234.067C208.831 234.396 209.197 234.81 209.465 235.275C209.735 235.742 209.911 236.27 209.966 236.834C210.013 237.295 209.978 237.767 209.854 238.227C209.83 238.32 209.802 238.411 209.771 238.501L270.366 273.569C270.996 272.835 271.865 272.381 272.787 272.256V202.154C270.992 201.812 269.635 200.231 269.635 198.333C269.635 197.923 269.698 197.528 269.815 197.157L209.043 161.986C208.754 162.322 208.416 162.599 208.045 162.813Z" fill="white"/>
</svg>
