<svg width="538" height="424" viewBox="0 0 538 424" fill="none" xmlns="http://www.w3.org/2000/svg">
<path fill-rule="evenodd" clip-rule="evenodd" d="M505.423 198.261C503.885 197.371 503.358 195.399 504.246 193.856C505.134 192.314 507.101 191.786 508.639 192.676C509.999 193.463 510.568 195.096 510.069 196.529L560.298 225.605C561.286 224.455 562.981 224.133 564.34 224.921C565.879 225.811 566.405 227.783 565.517 229.325C564.629 230.867 562.663 231.396 561.124 230.505C559.765 229.718 559.195 228.086 559.695 226.653L509.466 197.576C508.478 198.727 506.783 199.048 505.423 198.261Z" fill="url(#paint0_linear_438_3918)"/>
<path fill-rule="evenodd" clip-rule="evenodd" d="M508.639 391.324C507.101 392.214 505.134 391.686 504.246 390.144C503.358 388.601 503.885 386.629 505.423 385.739C506.783 384.952 508.478 385.273 509.466 386.424L559.695 357.347C559.195 355.914 559.765 354.282 561.124 353.495C562.663 352.604 564.629 353.133 565.517 354.675C566.405 356.217 565.879 358.189 564.34 359.079C562.981 359.867 561.286 359.545 560.298 358.395L510.069 387.471C510.568 388.904 509.999 390.537 508.639 391.324Z" fill="url(#paint1_linear_438_3918)"/>
<path fill-rule="evenodd" clip-rule="evenodd" d="M62.4318 324.043C62.4318 325.824 60.992 327.267 59.2159 327.267C57.4398 327.267 56 325.824 56 324.043C56 322.469 57.125 321.158 58.6129 320.875V262.722C57.125 262.439 56 261.128 56 259.554C56 257.773 57.4398 256.33 59.2159 256.33C60.992 256.33 62.4318 257.773 62.4318 259.554C62.4318 261.128 61.3068 262.439 59.8189 262.722V320.875C61.3068 321.158 62.4318 322.469 62.4318 324.043Z" fill="url(#paint2_linear_438_3918)"/>
<path fill-rule="evenodd" clip-rule="evenodd" d="M615.568 324.446C615.568 326.227 617.008 327.67 618.784 327.67C620.56 327.67 622 326.227 622 324.446C622 322.872 620.875 321.561 619.387 321.278V263.125C620.875 262.842 622 261.531 622 259.957C622 258.176 620.56 256.733 618.784 256.733C617.008 256.733 615.568 258.176 615.568 259.957C615.568 261.531 616.693 262.842 618.181 263.125V321.278C616.693 321.561 615.568 322.872 615.568 324.446Z" fill="url(#paint3_linear_438_3918)"/>
<path fill-rule="evenodd" clip-rule="evenodd" d="M447.54 357.348C447.424 357.015 447.362 356.659 447.362 356.287C447.362 354.506 448.802 353.063 450.578 353.063C450.607 353.063 450.636 353.063 450.665 353.064C450.694 353.063 450.724 353.063 450.753 353.063C452.529 353.063 453.969 354.506 453.969 356.287C453.969 356.659 453.906 357.015 453.791 357.348L507.66 388.531L453.791 419.715C453.906 420.047 453.969 420.404 453.969 420.776C453.969 422.556 452.529 424 450.753 424C450.724 424 450.694 424 450.665 423.999C450.636 424 450.607 424 450.578 424C448.802 424 447.362 422.556 447.362 420.776C447.362 420.404 447.424 420.047 447.54 419.715L393.67 388.531L447.54 357.348ZM448.143 358.394L396.082 388.531L448.143 418.668C448.733 417.984 449.605 417.551 450.578 417.551C450.607 417.551 450.636 417.552 450.665 417.552C450.694 417.552 450.724 417.551 450.753 417.551C451.726 417.551 452.597 417.984 453.187 418.668L505.248 388.531L453.187 358.394C452.597 359.078 451.726 359.511 450.753 359.511C450.724 359.511 450.694 359.511 450.665 359.51C450.636 359.511 450.607 359.511 450.578 359.511C449.605 359.511 448.733 359.078 448.143 358.394Z" fill="url(#paint4_linear_438_3918)"/>
<path d="M509.845 388.531C509.845 390.312 508.405 391.756 506.629 391.756C504.853 391.756 503.413 390.312 503.413 388.531C503.413 386.75 504.853 385.307 506.629 385.307C508.405 385.307 509.845 386.75 509.845 388.531Z" fill="url(#paint5_linear_438_3918)"/>
<path d="M453.969 420.776C453.969 422.556 452.529 424 450.753 424C448.977 424 447.537 422.556 447.537 420.776C447.537 418.995 448.977 417.551 450.753 417.551C452.529 417.551 453.969 418.995 453.969 420.776Z" fill="url(#paint6_linear_438_3918)"/>
<path d="M398.092 388.531C398.092 390.312 396.652 391.756 394.876 391.756C393.1 391.756 391.66 390.312 391.66 388.531C391.66 386.75 393.1 385.307 394.876 385.307C396.652 385.307 398.092 386.75 398.092 388.531Z" fill="url(#paint7_linear_438_3918)"/>
<path d="M453.969 356.287C453.969 358.068 452.529 359.511 450.753 359.511C448.977 359.511 447.537 358.068 447.537 356.287C447.537 354.506 448.977 353.063 450.753 353.063C452.529 353.063 453.969 354.506 453.969 356.287Z" fill="url(#paint8_linear_438_3918)"/>
<path fill-rule="evenodd" clip-rule="evenodd" d="M447.54 228.773C447.424 228.441 447.362 228.084 447.362 227.713C447.362 225.932 448.802 224.489 450.578 224.489C450.607 224.489 450.636 224.489 450.665 224.49C450.694 224.489 450.724 224.489 450.753 224.489C452.529 224.489 453.969 225.932 453.969 227.713C453.969 228.084 453.906 228.441 453.791 228.773L507.66 259.957L453.791 291.141C453.906 291.473 453.969 291.83 453.969 292.202C453.969 293.982 452.529 295.426 450.753 295.426C450.724 295.426 450.694 295.426 450.665 295.425C450.636 295.426 450.607 295.426 450.578 295.426C448.802 295.426 447.362 293.982 447.362 292.202C447.362 291.83 447.424 291.473 447.54 291.141L393.67 259.957L447.54 228.773ZM448.143 229.82L396.082 259.957L448.143 290.094C448.733 289.41 449.605 288.977 450.578 288.977C450.607 288.977 450.636 288.977 450.665 288.978C450.694 288.977 450.724 288.977 450.753 288.977C451.726 288.977 452.597 289.41 453.187 290.094L505.248 259.957L453.187 229.82C452.597 230.504 451.726 230.937 450.753 230.937C450.724 230.937 450.694 230.937 450.665 230.936C450.636 230.937 450.607 230.937 450.578 230.937C449.605 230.937 448.733 230.504 448.143 229.82Z" fill="url(#paint9_linear_438_3918)"/>
<path d="M509.845 259.957C509.845 261.738 508.405 263.182 506.629 263.182C504.853 263.182 503.413 261.738 503.413 259.957C503.413 258.176 504.853 256.733 506.629 256.733C508.405 256.733 509.845 258.176 509.845 259.957Z" fill="url(#paint10_linear_438_3918)"/>
<path d="M453.969 292.202C453.969 293.982 452.529 295.426 450.753 295.426C448.977 295.426 447.537 293.982 447.537 292.202C447.537 290.421 448.977 288.977 450.753 288.977C452.529 288.977 453.969 290.421 453.969 292.202Z" fill="url(#paint11_linear_438_3918)"/>
<path d="M398.092 259.957C398.092 261.738 396.652 263.182 394.876 263.182C393.1 263.182 391.66 261.738 391.66 259.957C391.66 258.176 393.1 256.733 394.876 256.733C396.652 256.733 398.092 258.176 398.092 259.957Z" fill="url(#paint12_linear_438_3918)"/>
<path d="M453.969 227.713C453.969 229.494 452.529 230.937 450.753 230.937C448.977 230.937 447.537 229.494 447.537 227.713C447.537 225.932 448.977 224.489 450.753 224.489C452.529 224.489 453.969 225.932 453.969 227.713Z" fill="url(#paint13_linear_438_3918)"/>
<path fill-rule="evenodd" clip-rule="evenodd" d="M447.54 292.859C447.424 292.527 447.362 292.17 447.362 291.798C447.362 290.018 448.802 288.574 450.578 288.574C450.607 288.574 450.636 288.574 450.665 288.575C450.694 288.574 450.724 288.574 450.753 288.574C452.529 288.574 453.969 290.018 453.969 291.798C453.969 292.17 453.906 292.527 453.791 292.859L507.66 324.043L453.791 355.227C453.906 355.559 453.969 355.915 453.969 356.287C453.969 358.068 452.529 359.511 450.753 359.511C450.724 359.511 450.694 359.511 450.665 359.51C450.636 359.511 450.607 359.511 450.578 359.511C448.802 359.511 447.362 358.068 447.362 356.287C447.362 355.915 447.424 355.559 447.54 355.227L393.67 324.043L447.54 292.859ZM448.143 293.906L396.082 324.043L448.143 354.18C448.733 353.496 449.605 353.063 450.578 353.063C450.607 353.063 450.636 353.063 450.665 353.064C450.694 353.063 450.724 353.063 450.753 353.063C451.726 353.063 452.597 353.496 453.187 354.18L505.248 324.043L453.187 293.906C452.597 294.59 451.726 295.023 450.753 295.023C450.724 295.023 450.694 295.023 450.665 295.022C450.636 295.023 450.607 295.023 450.578 295.023C449.605 295.023 448.733 294.59 448.143 293.906Z" fill="url(#paint14_linear_438_3918)"/>
<path d="M509.845 324.043C509.845 325.824 508.405 327.267 506.629 327.267C504.853 327.267 503.413 325.824 503.413 324.043C503.413 322.262 504.853 320.818 506.629 320.818C508.405 320.818 509.845 322.262 509.845 324.043Z" fill="url(#paint15_linear_438_3918)"/>
<path d="M453.969 356.287C453.969 358.068 452.529 359.511 450.753 359.511C448.977 359.511 447.537 358.068 447.537 356.287C447.537 354.506 448.977 353.063 450.753 353.063C452.529 353.063 453.969 354.506 453.969 356.287Z" fill="url(#paint16_linear_438_3918)"/>
<path d="M398.092 324.043C398.092 325.824 396.652 327.267 394.876 327.267C393.1 327.267 391.66 325.824 391.66 324.043C391.66 322.262 393.1 320.818 394.876 320.818C396.652 320.818 398.092 322.262 398.092 324.043Z" fill="url(#paint17_linear_438_3918)"/>
<path d="M453.969 291.798C453.969 293.579 452.529 295.023 450.753 295.023C448.977 295.023 447.537 293.579 447.537 291.798C447.537 290.018 448.977 288.574 450.753 288.574C452.529 288.574 453.969 290.018 453.969 291.798Z" fill="url(#paint18_linear_438_3918)"/>
<path fill-rule="evenodd" clip-rule="evenodd" d="M447.54 164.285C447.424 163.953 447.362 163.596 447.362 163.224C447.362 161.444 448.802 160 450.578 160C450.607 160 450.636 160 450.665 160.001C450.694 160 450.724 160 450.753 160C452.529 160 453.969 161.444 453.969 163.224C453.969 163.596 453.906 163.953 453.791 164.285L507.66 195.469L453.791 226.652C453.906 226.985 453.969 227.341 453.969 227.713C453.969 229.494 452.529 230.937 450.753 230.937C450.724 230.937 450.694 230.937 450.665 230.936C450.636 230.937 450.607 230.937 450.578 230.937C448.802 230.937 447.362 229.494 447.362 227.713C447.362 227.341 447.424 226.985 447.54 226.652L393.67 195.469L447.54 164.285ZM448.143 165.332L396.082 195.469L448.143 225.606C448.733 224.922 449.605 224.489 450.578 224.489C450.607 224.489 450.636 224.489 450.665 224.49C450.694 224.489 450.724 224.489 450.753 224.489C451.726 224.489 452.597 224.922 453.187 225.606L505.248 195.469L453.187 165.332C452.597 166.016 451.726 166.449 450.753 166.449C450.724 166.449 450.694 166.448 450.665 166.448C450.636 166.448 450.607 166.449 450.578 166.449C449.605 166.449 448.733 166.016 448.143 165.332Z" fill="url(#paint19_linear_438_3918)"/>
<path d="M509.845 195.469C509.845 197.25 508.405 198.693 506.629 198.693C504.853 198.693 503.413 197.25 503.413 195.469C503.413 193.688 504.853 192.244 506.629 192.244C508.405 192.244 509.845 193.688 509.845 195.469Z" fill="url(#paint20_linear_438_3918)"/>
<path d="M453.969 227.713C453.969 229.494 452.529 230.937 450.753 230.937C448.977 230.937 447.537 229.494 447.537 227.713C447.537 225.932 448.977 224.489 450.753 224.489C452.529 224.489 453.969 225.932 453.969 227.713Z" fill="url(#paint21_linear_438_3918)"/>
<path d="M398.092 195.469C398.092 197.25 396.652 198.693 394.876 198.693C393.1 198.693 391.66 197.25 391.66 195.469C391.66 193.688 393.1 192.244 394.876 192.244C396.652 192.244 398.092 193.688 398.092 195.469Z" fill="url(#paint22_linear_438_3918)"/>
<path d="M453.969 163.224C453.969 165.005 452.529 166.449 450.753 166.449C448.977 166.449 447.537 165.005 447.537 163.224C447.537 161.444 448.977 160 450.753 160C452.529 160 453.969 161.444 453.969 163.224Z" fill="url(#paint23_linear_438_3918)"/>
<path fill-rule="evenodd" clip-rule="evenodd" d="M223.632 357.348C223.517 357.015 223.454 356.659 223.454 356.287C223.454 354.506 224.894 353.063 226.67 353.063C226.699 353.063 226.728 353.063 226.758 353.064C226.787 353.063 226.816 353.063 226.845 353.063C228.621 353.063 230.061 354.506 230.061 356.287C230.061 356.659 229.998 357.015 229.883 357.348L283.752 388.531L229.883 419.715C229.998 420.047 230.061 420.404 230.061 420.776C230.061 422.556 228.621 424 226.845 424C226.816 424 226.787 424 226.758 423.999C226.728 424 226.699 424 226.67 424C224.894 424 223.454 422.556 223.454 420.776C223.454 420.404 223.517 420.047 223.632 419.715L169.763 388.531L223.632 357.348ZM224.236 358.394L172.175 388.531L224.236 418.668C224.825 417.984 225.697 417.551 226.67 417.551C226.699 417.551 226.728 417.552 226.758 417.552C226.787 417.552 226.816 417.551 226.845 417.551C227.818 417.551 228.69 417.984 229.279 418.668L281.34 388.531L229.279 358.394C228.69 359.078 227.818 359.511 226.845 359.511C226.816 359.511 226.787 359.511 226.758 359.51C226.728 359.511 226.699 359.511 226.67 359.511C225.697 359.511 224.825 359.078 224.236 358.394Z" fill="url(#paint24_linear_438_3918)"/>
<path d="M285.938 388.531C285.938 390.312 284.498 391.756 282.722 391.756C280.945 391.756 279.506 390.312 279.506 388.531C279.506 386.75 280.945 385.307 282.722 385.307C284.498 385.307 285.938 386.75 285.938 388.531Z" fill="url(#paint25_linear_438_3918)"/>
<path d="M230.061 420.776C230.061 422.556 228.621 424 226.845 424C225.069 424 223.629 422.556 223.629 420.776C223.629 418.995 225.069 417.551 226.845 417.551C228.621 417.551 230.061 418.995 230.061 420.776Z" fill="url(#paint26_linear_438_3918)"/>
<path d="M174.185 388.531C174.185 390.312 172.745 391.756 170.969 391.756C169.193 391.756 167.753 390.312 167.753 388.531C167.753 386.75 169.193 385.307 170.969 385.307C172.745 385.307 174.185 386.75 174.185 388.531Z" fill="url(#paint27_linear_438_3918)"/>
<path d="M230.061 356.287C230.061 358.068 228.621 359.511 226.845 359.511C225.069 359.511 223.629 358.068 223.629 356.287C223.629 354.506 225.069 353.063 226.845 353.063C228.621 353.063 230.061 354.506 230.061 356.287Z" fill="url(#paint28_linear_438_3918)"/>
<path fill-rule="evenodd" clip-rule="evenodd" d="M223.632 228.773C223.517 228.441 223.454 228.084 223.454 227.713C223.454 225.932 224.894 224.489 226.67 224.489C226.699 224.489 226.728 224.489 226.758 224.49C226.787 224.489 226.816 224.489 226.845 224.489C228.621 224.489 230.061 225.932 230.061 227.713C230.061 228.084 229.998 228.441 229.883 228.773L283.752 259.957L229.883 291.141C229.998 291.473 230.061 291.83 230.061 292.202C230.061 293.982 228.621 295.426 226.845 295.426C226.816 295.426 226.787 295.426 226.758 295.425C226.728 295.426 226.699 295.426 226.67 295.426C224.894 295.426 223.454 293.982 223.454 292.202C223.454 291.83 223.517 291.473 223.632 291.141L169.763 259.957L223.632 228.773ZM224.236 229.82L172.175 259.957L224.236 290.094C224.825 289.41 225.697 288.977 226.67 288.977C226.699 288.977 226.728 288.977 226.758 288.978C226.787 288.977 226.816 288.977 226.845 288.977C227.818 288.977 228.69 289.41 229.279 290.094L281.34 259.957L229.279 229.82C228.69 230.504 227.818 230.937 226.845 230.937C226.816 230.937 226.787 230.937 226.758 230.936C226.728 230.937 226.699 230.937 226.67 230.937C225.697 230.937 224.825 230.504 224.236 229.82Z" fill="url(#paint29_linear_438_3918)"/>
<path d="M285.938 259.957C285.938 261.738 284.498 263.182 282.722 263.182C280.945 263.182 279.506 261.738 279.506 259.957C279.506 258.176 280.945 256.733 282.722 256.733C284.498 256.733 285.938 258.176 285.938 259.957Z" fill="url(#paint30_linear_438_3918)"/>
<path d="M230.061 292.202C230.061 293.982 228.621 295.426 226.845 295.426C225.069 295.426 223.629 293.982 223.629 292.202C223.629 290.421 225.069 288.977 226.845 288.977C228.621 288.977 230.061 290.421 230.061 292.202Z" fill="url(#paint31_linear_438_3918)"/>
<path d="M174.185 259.957C174.185 261.738 172.745 263.182 170.969 263.182C169.193 263.182 167.753 261.738 167.753 259.957C167.753 258.176 169.193 256.733 170.969 256.733C172.745 256.733 174.185 258.176 174.185 259.957Z" fill="url(#paint32_linear_438_3918)"/>
<path d="M230.061 227.713C230.061 229.494 228.621 230.937 226.845 230.937C225.069 230.937 223.629 229.494 223.629 227.713C223.629 225.932 225.069 224.489 226.845 224.489C228.621 224.489 230.061 225.932 230.061 227.713Z" fill="url(#paint33_linear_438_3918)"/>
<path fill-rule="evenodd" clip-rule="evenodd" d="M167.756 196.529C167.64 196.197 167.578 195.84 167.578 195.469C167.578 193.688 169.017 192.244 170.794 192.244C170.823 192.244 170.852 192.245 170.881 192.245C170.91 192.245 170.939 192.244 170.969 192.244C172.745 192.244 174.185 193.688 174.185 195.469C174.185 195.84 174.122 196.197 174.007 196.529L227.876 227.713L174.007 258.897C174.122 259.229 174.185 259.586 174.185 259.957C174.185 261.738 172.745 263.182 170.969 263.182C170.939 263.182 170.91 263.181 170.881 263.181C170.852 263.181 170.823 263.182 170.794 263.182C169.017 263.182 167.578 261.738 167.578 259.957C167.578 259.586 167.64 259.229 167.756 258.897L113.886 227.713L167.756 196.529ZM168.359 197.576L116.298 227.713L168.359 257.85C168.949 257.166 169.821 256.733 170.794 256.733C170.823 256.733 170.852 256.733 170.881 256.734C170.91 256.733 170.939 256.733 170.969 256.733C171.941 256.733 172.813 257.166 173.403 257.85L225.464 227.713L173.403 197.576C172.813 198.26 171.941 198.693 170.969 198.693C170.939 198.693 170.91 198.693 170.881 198.692C170.852 198.693 170.823 198.693 170.794 198.693C169.821 198.693 168.949 198.26 168.359 197.576Z" fill="url(#paint34_linear_438_3918)"/>
<path d="M230.061 227.713C230.061 229.494 228.621 230.937 226.845 230.937C225.069 230.937 223.629 229.494 223.629 227.713C223.629 225.932 225.069 224.489 226.845 224.489C228.621 224.489 230.061 225.932 230.061 227.713Z" fill="url(#paint35_linear_438_3918)"/>
<path d="M174.185 259.957C174.185 261.738 172.745 263.182 170.969 263.182C169.193 263.182 167.753 261.738 167.753 259.957C167.753 258.176 169.193 256.733 170.969 256.733C172.745 256.733 174.185 258.176 174.185 259.957Z" fill="url(#paint36_linear_438_3918)"/>
<path d="M118.308 227.713C118.308 229.494 116.868 230.937 115.092 230.937C113.316 230.937 111.876 229.494 111.876 227.713C111.876 225.932 113.316 224.489 115.092 224.489C116.868 224.489 118.308 225.932 118.308 227.713Z" fill="url(#paint37_linear_438_3918)"/>
<path d="M174.185 195.469C174.185 197.25 172.745 198.693 170.969 198.693C169.193 198.693 167.753 197.25 167.753 195.469C167.753 193.688 169.193 192.244 170.969 192.244C172.745 192.244 174.185 193.688 174.185 195.469Z" fill="url(#paint38_linear_438_3918)"/>
<path fill-rule="evenodd" clip-rule="evenodd" d="M111.879 228.37C111.764 228.038 111.701 227.681 111.701 227.31C111.701 225.529 113.141 224.085 114.917 224.085C114.946 224.085 114.976 224.086 115.005 224.087C115.034 224.086 115.063 224.085 115.092 224.085C116.868 224.085 118.308 225.529 118.308 227.31C118.308 227.681 118.246 228.038 118.13 228.37L171.999 259.554L118.13 290.738C118.246 291.07 118.308 291.427 118.308 291.798C118.308 293.579 116.868 295.023 115.092 295.023C115.063 295.023 115.034 295.023 115.005 295.022C114.976 295.023 114.946 295.023 114.917 295.023C113.141 295.023 111.701 293.579 111.701 291.798C111.701 291.427 111.764 291.07 111.879 290.738L58.0099 259.554L111.879 228.37ZM112.483 229.417L60.4219 259.554L112.483 289.691C113.073 289.007 113.944 288.574 114.917 288.574C114.946 288.574 114.976 288.574 115.005 288.575C115.034 288.574 115.063 288.574 115.092 288.574C116.065 288.574 116.937 289.007 117.527 289.691L169.588 259.554L117.527 229.417C116.937 230.101 116.065 230.534 115.092 230.534C115.063 230.534 115.034 230.534 115.005 230.533C114.976 230.534 114.946 230.534 114.917 230.534C113.944 230.534 113.073 230.101 112.483 229.417Z" fill="url(#paint39_linear_438_3918)"/>
<path d="M174.185 259.554C174.185 261.335 172.745 262.779 170.969 262.779C169.193 262.779 167.753 261.335 167.753 259.554C167.753 257.773 169.193 256.33 170.969 256.33C172.745 256.33 174.185 257.773 174.185 259.554Z" fill="url(#paint40_linear_438_3918)"/>
<path d="M118.308 291.798C118.308 293.579 116.868 295.023 115.092 295.023C113.316 295.023 111.876 293.579 111.876 291.798C111.876 290.018 113.316 288.574 115.092 288.574C116.868 288.574 118.308 290.018 118.308 291.798Z" fill="url(#paint41_linear_438_3918)"/>
<path d="M62.4318 259.554C62.4318 261.335 60.992 262.779 59.2159 262.779C57.4398 262.779 56 261.335 56 259.554C56 257.773 57.4398 256.33 59.2159 256.33C60.992 256.33 62.4318 257.773 62.4318 259.554Z" fill="url(#paint42_linear_438_3918)"/>
<path d="M118.308 227.31C118.308 229.091 116.868 230.534 115.092 230.534C113.316 230.534 111.876 229.091 111.876 227.31C111.876 225.529 113.316 224.085 115.092 224.085C116.868 224.085 118.308 225.529 118.308 227.31Z" fill="url(#paint43_linear_438_3918)"/>
<path fill-rule="evenodd" clip-rule="evenodd" d="M566.121 228.773C566.236 228.441 566.299 228.084 566.299 227.713C566.299 225.932 564.859 224.489 563.083 224.489C563.054 224.489 563.024 224.489 562.995 224.49C562.966 224.489 562.937 224.489 562.908 224.489C561.132 224.489 559.692 225.932 559.692 227.713C559.692 228.084 559.754 228.441 559.87 228.773L506.001 259.957L559.87 291.141C559.754 291.473 559.692 291.83 559.692 292.202C559.692 293.982 561.132 295.426 562.908 295.426C562.937 295.426 562.966 295.426 562.995 295.425C563.024 295.426 563.054 295.426 563.083 295.426C564.859 295.426 566.299 293.982 566.299 292.202C566.299 291.83 566.236 291.473 566.121 291.141L619.99 259.957L566.121 228.773ZM565.517 229.82L617.578 259.957L565.517 290.094C564.927 289.41 564.056 288.977 563.083 288.977C563.054 288.977 563.024 288.977 562.995 288.978C562.966 288.977 562.937 288.977 562.908 288.977C561.935 288.977 561.063 289.41 560.473 290.094L508.412 259.957L560.473 229.82C561.063 230.504 561.935 230.937 562.908 230.937C562.937 230.937 562.966 230.937 562.995 230.936C563.024 230.937 563.054 230.937 563.083 230.937C564.056 230.937 564.927 230.504 565.517 229.82Z" fill="url(#paint44_linear_438_3918)"/>
<path d="M503.815 259.957C503.815 261.738 505.255 263.182 507.031 263.182C508.807 263.182 510.247 261.738 510.247 259.957C510.247 258.176 508.807 256.733 507.031 256.733C505.255 256.733 503.815 258.176 503.815 259.957Z" fill="url(#paint45_linear_438_3918)"/>
<path d="M559.692 292.202C559.692 293.982 561.132 295.426 562.908 295.426C564.684 295.426 566.124 293.982 566.124 292.202C566.124 290.421 564.684 288.977 562.908 288.977C561.132 288.977 559.692 290.421 559.692 292.202Z" fill="url(#paint46_linear_438_3918)"/>
<path d="M615.568 259.957C615.568 261.738 617.008 263.182 618.784 263.182C620.56 263.182 622 261.738 622 259.957C622 258.176 620.56 256.733 618.784 256.733C617.008 256.733 615.568 258.176 615.568 259.957Z" fill="url(#paint47_linear_438_3918)"/>
<path d="M559.692 227.713C559.692 229.494 561.132 230.937 562.908 230.937C564.684 230.937 566.124 229.494 566.124 227.713C566.124 225.932 564.684 224.489 562.908 224.489C561.132 224.489 559.692 225.932 559.692 227.713Z" fill="url(#paint48_linear_438_3918)"/>
<path fill-rule="evenodd" clip-rule="evenodd" d="M111.879 292.859C111.764 292.527 111.701 292.17 111.701 291.798C111.701 290.018 113.141 288.574 114.917 288.574C114.946 288.574 114.976 288.574 115.005 288.575C115.034 288.574 115.063 288.574 115.092 288.574C116.868 288.574 118.308 290.018 118.308 291.798C118.308 292.17 118.246 292.527 118.13 292.859L171.999 324.043L118.13 355.227C118.246 355.559 118.308 355.915 118.308 356.287C118.308 358.068 116.868 359.511 115.092 359.511C115.063 359.511 115.034 359.511 115.005 359.51C114.976 359.511 114.946 359.511 114.917 359.511C113.141 359.511 111.701 358.068 111.701 356.287C111.701 355.915 111.764 355.559 111.879 355.227L58.0099 324.043L111.879 292.859ZM112.483 293.906L60.4219 324.043L112.483 354.18C113.073 353.496 113.944 353.063 114.917 353.063C114.946 353.063 114.976 353.063 115.005 353.064C115.034 353.063 115.063 353.063 115.092 353.063C116.065 353.063 116.937 353.496 117.527 354.18L169.588 324.043L117.527 293.906C116.937 294.59 116.065 295.023 115.092 295.023C115.063 295.023 115.034 295.023 115.005 295.022C114.976 295.023 114.946 295.023 114.917 295.023C113.944 295.023 113.073 294.59 112.483 293.906Z" fill="url(#paint49_linear_438_3918)"/>
<path d="M174.185 324.043C174.185 325.824 172.745 327.267 170.969 327.267C169.193 327.267 167.753 325.824 167.753 324.043C167.753 322.262 169.193 320.818 170.969 320.818C172.745 320.818 174.185 322.262 174.185 324.043Z" fill="url(#paint50_linear_438_3918)"/>
<path d="M118.308 356.287C118.308 358.068 116.868 359.511 115.092 359.511C113.316 359.511 111.876 358.068 111.876 356.287C111.876 354.506 113.316 353.063 115.092 353.063C116.868 353.063 118.308 354.506 118.308 356.287Z" fill="url(#paint51_linear_438_3918)"/>
<path d="M62.4318 324.043C62.4318 325.824 60.992 327.267 59.2159 327.267C57.4398 327.267 56 325.824 56 324.043C56 322.262 57.4398 320.818 59.2159 320.818C60.992 320.818 62.4318 322.262 62.4318 324.043Z" fill="url(#paint52_linear_438_3918)"/>
<path d="M118.308 291.798C118.308 293.579 116.868 295.023 115.092 295.023C113.316 295.023 111.876 293.579 111.876 291.798C111.876 290.018 113.316 288.574 115.092 288.574C116.868 288.574 118.308 290.018 118.308 291.798Z" fill="url(#paint53_linear_438_3918)"/>
<path fill-rule="evenodd" clip-rule="evenodd" d="M566.121 293.262C566.236 292.93 566.299 292.573 566.299 292.202C566.299 290.421 564.859 288.977 563.083 288.977C563.054 288.977 563.024 288.977 562.995 288.978C562.966 288.977 562.937 288.977 562.908 288.977C561.132 288.977 559.692 290.421 559.692 292.202C559.692 292.573 559.754 292.93 559.87 293.262L506.001 324.446L559.87 355.63C559.754 355.962 559.692 356.319 559.692 356.69C559.692 358.471 561.132 359.915 562.908 359.915C562.937 359.915 562.966 359.914 562.995 359.913C563.024 359.914 563.054 359.915 563.083 359.915C564.859 359.915 566.299 358.471 566.299 356.69C566.299 356.319 566.236 355.962 566.121 355.63L619.99 324.446L566.121 293.262ZM565.517 294.309L617.578 324.446L565.517 354.583C564.927 353.899 564.056 353.466 563.083 353.466C563.054 353.466 563.024 353.466 562.995 353.467C562.966 353.466 562.937 353.466 562.908 353.466C561.935 353.466 561.063 353.899 560.473 354.583L508.412 324.446L560.473 294.309C561.063 294.993 561.935 295.426 562.908 295.426C562.937 295.426 562.966 295.426 562.995 295.425C563.024 295.426 563.054 295.426 563.083 295.426C564.056 295.426 564.927 294.993 565.517 294.309Z" fill="url(#paint54_linear_438_3918)"/>
<path d="M503.815 324.446C503.815 326.227 505.255 327.67 507.031 327.67C508.807 327.67 510.247 326.227 510.247 324.446C510.247 322.665 508.807 321.221 507.031 321.221C505.255 321.221 503.815 322.665 503.815 324.446Z" fill="url(#paint55_linear_438_3918)"/>
<path d="M559.692 356.69C559.692 358.471 561.132 359.915 562.908 359.915C564.684 359.915 566.124 358.471 566.124 356.69C566.124 354.909 564.684 353.466 562.908 353.466C561.132 353.466 559.692 354.909 559.692 356.69Z" fill="url(#paint56_linear_438_3918)"/>
<path d="M615.568 324.446C615.568 326.227 617.008 327.67 618.784 327.67C620.56 327.67 622 326.227 622 324.446C622 322.665 620.56 321.221 618.784 321.221C617.008 321.221 615.568 322.665 615.568 324.446Z" fill="url(#paint57_linear_438_3918)"/>
<path d="M559.692 292.202C559.692 293.982 561.132 295.426 562.908 295.426C564.684 295.426 566.124 293.982 566.124 292.202C566.124 290.421 564.684 288.977 562.908 288.977C561.132 288.977 559.692 290.421 559.692 292.202Z" fill="url(#paint58_linear_438_3918)"/>
<path fill-rule="evenodd" clip-rule="evenodd" d="M167.756 260.615C167.64 260.283 167.578 259.926 167.578 259.554C167.578 257.773 169.017 256.33 170.794 256.33C170.823 256.33 170.852 256.33 170.881 256.331C170.91 256.33 170.939 256.33 170.969 256.33C172.745 256.33 174.185 257.773 174.185 259.554C174.185 259.926 174.122 260.283 174.007 260.615L227.876 291.798L174.007 322.982C174.122 323.314 174.185 323.671 174.185 324.043C174.185 325.824 172.745 327.267 170.969 327.267C170.939 327.267 170.91 327.267 170.881 327.266C170.852 327.267 170.823 327.267 170.794 327.267C169.017 327.267 167.578 325.824 167.578 324.043C167.578 323.671 167.64 323.314 167.756 322.982L113.886 291.798L167.756 260.615ZM168.359 261.661L116.298 291.798L168.359 321.936C168.949 321.251 169.821 320.818 170.794 320.818C170.823 320.818 170.852 320.819 170.881 320.82C170.91 320.819 170.939 320.818 170.969 320.818C171.941 320.818 172.813 321.251 173.403 321.936L225.464 291.798L173.403 261.661C172.813 262.346 171.941 262.779 170.969 262.779C170.939 262.779 170.91 262.778 170.881 262.777C170.852 262.778 170.823 262.779 170.794 262.779C169.821 262.779 168.949 262.346 168.359 261.661Z" fill="url(#paint59_linear_438_3918)"/>
<path d="M230.061 291.798C230.061 293.579 228.621 295.023 226.845 295.023C225.069 295.023 223.629 293.579 223.629 291.798C223.629 290.018 225.069 288.574 226.845 288.574C228.621 288.574 230.061 290.018 230.061 291.798Z" fill="url(#paint60_linear_438_3918)"/>
<path d="M174.185 324.043C174.185 325.824 172.745 327.267 170.969 327.267C169.193 327.267 167.753 325.824 167.753 324.043C167.753 322.262 169.193 320.818 170.969 320.818C172.745 320.818 174.185 322.262 174.185 324.043Z" fill="url(#paint61_linear_438_3918)"/>
<path d="M118.308 291.798C118.308 293.579 116.868 295.023 115.092 295.023C113.316 295.023 111.876 293.579 111.876 291.798C111.876 290.018 113.316 288.574 115.092 288.574C116.868 288.574 118.308 290.018 118.308 291.798Z" fill="url(#paint62_linear_438_3918)"/>
<path d="M174.185 259.554C174.185 261.335 172.745 262.779 170.969 262.779C169.193 262.779 167.753 261.335 167.753 259.554C167.753 257.773 169.193 256.33 170.969 256.33C172.745 256.33 174.185 257.773 174.185 259.554Z" fill="url(#paint63_linear_438_3918)"/>
<path fill-rule="evenodd" clip-rule="evenodd" d="M167.756 325.103C167.64 324.771 167.578 324.414 167.578 324.043C167.578 322.262 169.017 320.818 170.794 320.818C170.823 320.818 170.852 320.819 170.881 320.82C170.91 320.819 170.939 320.818 170.969 320.818C172.745 320.818 174.185 322.262 174.185 324.043C174.185 324.414 174.122 324.771 174.007 325.103L227.876 356.287L174.007 387.471C174.122 387.803 174.185 388.16 174.185 388.531C174.185 390.312 172.745 391.756 170.969 391.756C170.939 391.756 170.91 391.755 170.881 391.755C170.852 391.755 170.823 391.756 170.794 391.756C169.017 391.756 167.578 390.312 167.578 388.531C167.578 388.16 167.64 387.803 167.756 387.471L113.886 356.287L167.756 325.103ZM168.359 326.15L116.298 356.287L168.359 386.424C168.949 385.74 169.821 385.307 170.794 385.307C170.823 385.307 170.852 385.307 170.881 385.308C170.91 385.307 170.939 385.307 170.969 385.307C171.941 385.307 172.813 385.74 173.403 386.424L225.464 356.287L173.403 326.15C172.813 326.834 171.941 327.267 170.969 327.267C170.939 327.267 170.91 327.267 170.881 327.266C170.852 327.267 170.823 327.267 170.794 327.267C169.821 327.267 168.949 326.834 168.359 326.15Z" fill="url(#paint64_linear_438_3918)"/>
<path d="M230.061 356.287C230.061 358.068 228.621 359.511 226.845 359.511C225.069 359.511 223.629 358.068 223.629 356.287C223.629 354.506 225.069 353.063 226.845 353.063C228.621 353.063 230.061 354.506 230.061 356.287Z" fill="url(#paint65_linear_438_3918)"/>
<path d="M174.185 388.531C174.185 390.312 172.745 391.756 170.969 391.756C169.193 391.756 167.753 390.312 167.753 388.531C167.753 386.75 169.193 385.307 170.969 385.307C172.745 385.307 174.185 386.75 174.185 388.531Z" fill="url(#paint66_linear_438_3918)"/>
<path d="M118.308 356.287C118.308 358.068 116.868 359.511 115.092 359.511C113.316 359.511 111.876 358.068 111.876 356.287C111.876 354.506 113.316 353.063 115.092 353.063C116.868 353.063 118.308 354.506 118.308 356.287Z" fill="url(#paint67_linear_438_3918)"/>
<path d="M174.185 324.043C174.185 325.824 172.745 327.267 170.969 327.267C169.193 327.267 167.753 325.824 167.753 324.043C167.753 322.262 169.193 320.818 170.969 320.818C172.745 320.818 174.185 322.262 174.185 324.043Z" fill="url(#paint68_linear_438_3918)"/>
<path fill-rule="evenodd" clip-rule="evenodd" d="M223.632 292.859C223.517 292.527 223.454 292.17 223.454 291.798C223.454 290.018 224.894 288.574 226.67 288.574C226.699 288.574 226.728 288.574 226.758 288.575C226.787 288.574 226.816 288.574 226.845 288.574C228.621 288.574 230.061 290.018 230.061 291.798C230.061 292.17 229.998 292.527 229.883 292.859L283.752 324.043L229.883 355.227C229.998 355.559 230.061 355.915 230.061 356.287C230.061 358.068 228.621 359.511 226.845 359.511C226.816 359.511 226.787 359.511 226.758 359.51C226.728 359.511 226.699 359.511 226.67 359.511C224.894 359.511 223.454 358.068 223.454 356.287C223.454 355.915 223.517 355.559 223.632 355.227L169.763 324.043L223.632 292.859ZM224.236 293.906L172.175 324.043L224.236 354.18C224.825 353.496 225.697 353.063 226.67 353.063C226.699 353.063 226.728 353.063 226.758 353.064C226.787 353.063 226.816 353.063 226.845 353.063C227.818 353.063 228.69 353.496 229.279 354.18L281.34 324.043L229.279 293.906C228.69 294.59 227.818 295.023 226.845 295.023C226.816 295.023 226.787 295.023 226.758 295.022C226.728 295.023 226.699 295.023 226.67 295.023C225.697 295.023 224.825 294.59 224.236 293.906Z" fill="url(#paint69_linear_438_3918)"/>
<path d="M285.938 324.043C285.938 325.824 284.498 327.267 282.722 327.267C280.945 327.267 279.506 325.824 279.506 324.043C279.506 322.262 280.945 320.818 282.722 320.818C284.498 320.818 285.938 322.262 285.938 324.043Z" fill="url(#paint70_linear_438_3918)"/>
<path d="M230.061 356.287C230.061 358.068 228.621 359.511 226.845 359.511C225.069 359.511 223.629 358.068 223.629 356.287C223.629 354.506 225.069 353.063 226.845 353.063C228.621 353.063 230.061 354.506 230.061 356.287Z" fill="url(#paint71_linear_438_3918)"/>
<path d="M174.185 324.043C174.185 325.824 172.745 327.267 170.969 327.267C169.193 327.267 167.753 325.824 167.753 324.043C167.753 322.262 169.193 320.818 170.969 320.818C172.745 320.818 174.185 322.262 174.185 324.043Z" fill="url(#paint72_linear_438_3918)"/>
<path d="M230.061 291.798C230.061 293.579 228.621 295.023 226.845 295.023C225.069 295.023 223.629 293.579 223.629 291.798C223.629 290.018 225.069 288.574 226.845 288.574C228.621 288.574 230.061 290.018 230.061 291.798Z" fill="url(#paint73_linear_438_3918)"/>
<path fill-rule="evenodd" clip-rule="evenodd" d="M223.632 164.285C223.517 163.953 223.454 163.596 223.454 163.224C223.454 161.444 224.894 160 226.67 160C226.699 160 226.728 160 226.758 160.001C226.787 160 226.816 160 226.845 160C228.621 160 230.061 161.444 230.061 163.224C230.061 163.596 229.998 163.953 229.883 164.285L283.752 195.469L229.883 226.652C229.998 226.985 230.061 227.341 230.061 227.713C230.061 229.494 228.621 230.937 226.845 230.937C226.816 230.937 226.787 230.937 226.758 230.936C226.728 230.937 226.699 230.937 226.67 230.937C224.894 230.937 223.454 229.494 223.454 227.713C223.454 227.341 223.517 226.985 223.632 226.652L169.763 195.469L223.632 164.285ZM224.236 165.332L172.175 195.469L224.236 225.606C224.825 224.922 225.697 224.489 226.67 224.489C226.699 224.489 226.728 224.489 226.758 224.49C226.787 224.489 226.816 224.489 226.845 224.489C227.818 224.489 228.69 224.922 229.279 225.606L281.34 195.469L229.279 165.332C228.69 166.016 227.818 166.449 226.845 166.449C226.816 166.449 226.787 166.448 226.758 166.448C226.728 166.448 226.699 166.449 226.67 166.449C225.697 166.449 224.825 166.016 224.236 165.332Z" fill="url(#paint74_linear_438_3918)"/>
<path d="M285.938 195.469C285.938 197.25 284.498 198.693 282.722 198.693C280.945 198.693 279.506 197.25 279.506 195.469C279.506 193.688 280.945 192.244 282.722 192.244C284.498 192.244 285.938 193.688 285.938 195.469Z" fill="url(#paint75_linear_438_3918)"/>
<path d="M230.061 227.713C230.061 229.494 228.621 230.937 226.845 230.937C225.069 230.937 223.629 229.494 223.629 227.713C223.629 225.932 225.069 224.489 226.845 224.489C228.621 224.489 230.061 225.932 230.061 227.713Z" fill="url(#paint76_linear_438_3918)"/>
<path d="M174.185 195.469C174.185 197.25 172.745 198.693 170.969 198.693C169.193 198.693 167.753 197.25 167.753 195.469C167.753 193.688 169.193 192.244 170.969 192.244C172.745 192.244 174.185 193.688 174.185 195.469Z" fill="url(#paint77_linear_438_3918)"/>
<path d="M230.061 163.224C230.061 165.005 228.621 166.449 226.845 166.449C225.069 166.449 223.629 165.005 223.629 163.224C223.629 161.444 225.069 160 226.845 160C228.621 160 230.061 161.444 230.061 163.224Z" fill="url(#paint78_linear_438_3918)"/>
<path fill-rule="evenodd" clip-rule="evenodd" d="M335.787 357.348C335.672 357.015 335.609 356.659 335.609 356.287C335.609 354.506 337.049 353.063 338.825 353.063C338.854 353.063 338.883 353.063 338.912 353.064C338.941 353.063 338.971 353.063 339 353.063C340.776 353.063 342.216 354.506 342.216 356.287C342.216 356.659 342.153 357.015 342.038 357.348L395.907 388.531L342.038 419.715C342.153 420.047 342.216 420.404 342.216 420.776C342.216 422.556 340.776 424 339 424C338.971 424 338.941 424 338.912 423.999C338.883 424 338.854 424 338.825 424C337.049 424 335.609 422.556 335.609 420.776C335.609 420.404 335.672 420.047 335.787 419.715L281.918 388.531L335.787 357.348ZM336.391 358.394L284.33 388.531L336.391 418.668C336.98 417.984 337.852 417.551 338.825 417.551C338.854 417.551 338.883 417.552 338.912 417.552C338.941 417.552 338.971 417.551 339 417.551C339.973 417.551 340.844 417.984 341.434 418.668L393.495 388.531L341.434 358.394C340.844 359.078 339.973 359.511 339 359.511C338.971 359.511 338.941 359.511 338.912 359.51C338.883 359.511 338.854 359.511 338.825 359.511C337.852 359.511 336.98 359.078 336.391 358.394Z" fill="url(#paint79_linear_438_3918)"/>
<path d="M398.092 388.531C398.092 390.312 396.652 391.756 394.876 391.756C393.1 391.756 391.66 390.312 391.66 388.531C391.66 386.75 393.1 385.307 394.876 385.307C396.652 385.307 398.092 386.75 398.092 388.531Z" fill="url(#paint80_linear_438_3918)"/>
<path d="M342.216 420.776C342.216 422.556 340.776 424 339 424C337.224 424 335.784 422.556 335.784 420.776C335.784 418.995 337.224 417.551 339 417.551C340.776 417.551 342.216 418.995 342.216 420.776Z" fill="url(#paint81_linear_438_3918)"/>
<path d="M286.339 388.531C286.339 390.312 284.9 391.756 283.124 391.756C281.347 391.756 279.908 390.312 279.908 388.531C279.908 386.75 281.347 385.307 283.124 385.307C284.9 385.307 286.339 386.75 286.339 388.531Z" fill="url(#paint82_linear_438_3918)"/>
<path d="M342.216 356.287C342.216 358.068 340.776 359.511 339 359.511C337.224 359.511 335.784 358.068 335.784 356.287C335.784 354.506 337.224 353.063 339 353.063C340.776 353.063 342.216 354.506 342.216 356.287Z" fill="url(#paint83_linear_438_3918)"/>
<path fill-rule="evenodd" clip-rule="evenodd" d="M335.787 228.773C335.672 228.441 335.609 228.084 335.609 227.713C335.609 225.932 337.049 224.489 338.825 224.489C338.854 224.489 338.883 224.489 338.912 224.49C338.941 224.489 338.971 224.489 339 224.489C340.776 224.489 342.216 225.932 342.216 227.713C342.216 228.084 342.153 228.441 342.038 228.773L395.907 259.957L342.038 291.141C342.153 291.473 342.216 291.83 342.216 292.202C342.216 293.982 340.776 295.426 339 295.426C338.971 295.426 338.941 295.426 338.912 295.425C338.883 295.426 338.854 295.426 338.825 295.426C337.049 295.426 335.609 293.982 335.609 292.202C335.609 291.83 335.672 291.473 335.787 291.141L281.918 259.957L335.787 228.773ZM336.391 229.82L284.33 259.957L336.391 290.094C336.98 289.41 337.852 288.977 338.825 288.977C338.854 288.977 338.883 288.977 338.912 288.978C338.941 288.977 338.971 288.977 339 288.977C339.973 288.977 340.844 289.41 341.434 290.094L393.495 259.957L341.434 229.82C340.844 230.504 339.973 230.937 339 230.937C338.971 230.937 338.941 230.937 338.912 230.936C338.883 230.937 338.854 230.937 338.825 230.937C337.852 230.937 336.98 230.504 336.391 229.82Z" fill="url(#paint84_linear_438_3918)"/>
<path d="M398.092 259.957C398.092 261.738 396.652 263.182 394.876 263.182C393.1 263.182 391.66 261.738 391.66 259.957C391.66 258.176 393.1 256.733 394.876 256.733C396.652 256.733 398.092 258.176 398.092 259.957Z" fill="url(#paint85_linear_438_3918)"/>
<path d="M342.216 292.202C342.216 293.982 340.776 295.426 339 295.426C337.224 295.426 335.784 293.982 335.784 292.202C335.784 290.421 337.224 288.977 339 288.977C340.776 288.977 342.216 290.421 342.216 292.202Z" fill="url(#paint86_linear_438_3918)"/>
<path d="M286.339 259.957C286.339 261.738 284.9 263.182 283.124 263.182C281.347 263.182 279.908 261.738 279.908 259.957C279.908 258.176 281.347 256.733 283.124 256.733C284.9 256.733 286.339 258.176 286.339 259.957Z" fill="url(#paint87_linear_438_3918)"/>
<path d="M342.216 227.713C342.216 229.494 340.776 230.937 339 230.937C337.224 230.937 335.784 229.494 335.784 227.713C335.784 225.932 337.224 224.489 339 224.489C340.776 224.489 342.216 225.932 342.216 227.713Z" fill="url(#paint88_linear_438_3918)"/>
<path fill-rule="evenodd" clip-rule="evenodd" d="M335.787 292.859C335.672 292.527 335.609 292.17 335.609 291.798C335.609 290.018 337.049 288.574 338.825 288.574C338.854 288.574 338.883 288.574 338.912 288.575C338.941 288.574 338.971 288.574 339 288.574C340.776 288.574 342.216 290.018 342.216 291.798C342.216 292.17 342.153 292.527 342.038 292.859L395.907 324.043L342.038 355.227C342.153 355.559 342.216 355.915 342.216 356.287C342.216 358.068 340.776 359.511 339 359.511C338.971 359.511 338.941 359.511 338.912 359.51C338.883 359.511 338.854 359.511 338.825 359.511C337.049 359.511 335.609 358.068 335.609 356.287C335.609 355.915 335.672 355.559 335.787 355.227L281.918 324.043L335.787 292.859ZM336.391 293.906L284.33 324.043L336.391 354.18C336.98 353.496 337.852 353.063 338.825 353.063C338.854 353.063 338.883 353.063 338.912 353.064C338.941 353.063 338.971 353.063 339 353.063C339.973 353.063 340.844 353.496 341.434 354.18L393.495 324.043L341.434 293.906C340.844 294.59 339.973 295.023 339 295.023C338.971 295.023 338.941 295.023 338.912 295.022C338.883 295.023 338.854 295.023 338.825 295.023C337.852 295.023 336.98 294.59 336.391 293.906Z" fill="url(#paint89_linear_438_3918)"/>
<path d="M398.092 324.043C398.092 325.824 396.652 327.267 394.876 327.267C393.1 327.267 391.66 325.824 391.66 324.043C391.66 322.262 393.1 320.818 394.876 320.818C396.652 320.818 398.092 322.262 398.092 324.043Z" fill="url(#paint90_linear_438_3918)"/>
<path d="M342.216 356.287C342.216 358.068 340.776 359.511 339 359.511C337.224 359.511 335.784 358.068 335.784 356.287C335.784 354.506 337.224 353.063 339 353.063C340.776 353.063 342.216 354.506 342.216 356.287Z" fill="url(#paint91_linear_438_3918)"/>
<path d="M286.339 324.043C286.339 325.824 284.9 327.267 283.124 327.267C281.347 327.267 279.908 325.824 279.908 324.043C279.908 322.262 281.347 320.818 283.124 320.818C284.9 320.818 286.339 322.262 286.339 324.043Z" fill="url(#paint92_linear_438_3918)"/>
<path d="M342.216 291.798C342.216 293.579 340.776 295.023 339 295.023C337.224 295.023 335.784 293.579 335.784 291.798C335.784 290.018 337.224 288.574 339 288.574C340.776 288.574 342.216 290.018 342.216 291.798Z" fill="url(#paint93_linear_438_3918)"/>
<path fill-rule="evenodd" clip-rule="evenodd" d="M335.787 164.285C335.672 163.953 335.609 163.596 335.609 163.224C335.609 161.444 337.049 160 338.825 160C338.854 160 338.883 160 338.912 160.001C338.941 160 338.971 160 339 160C340.776 160 342.216 161.444 342.216 163.224C342.216 163.596 342.153 163.953 342.038 164.285L395.907 195.469L342.038 226.652C342.153 226.985 342.216 227.341 342.216 227.713C342.216 229.494 340.776 230.937 339 230.937C338.971 230.937 338.941 230.937 338.912 230.936C338.883 230.937 338.854 230.937 338.825 230.937C337.049 230.937 335.609 229.494 335.609 227.713C335.609 227.341 335.672 226.985 335.787 226.652L281.918 195.469L335.787 164.285ZM336.391 165.332L284.33 195.469L336.391 225.606C336.98 224.922 337.852 224.489 338.825 224.489C338.854 224.489 338.883 224.489 338.912 224.49C338.941 224.489 338.971 224.489 339 224.489C339.973 224.489 340.844 224.922 341.434 225.606L393.495 195.469L341.434 165.332C340.844 166.016 339.973 166.449 339 166.449C338.971 166.449 338.941 166.448 338.912 166.448C338.883 166.448 338.854 166.449 338.825 166.449C337.852 166.449 336.98 166.016 336.391 165.332Z" fill="url(#paint94_linear_438_3918)"/>
<path d="M398.092 195.469C398.092 197.25 396.652 198.693 394.876 198.693C393.1 198.693 391.66 197.25 391.66 195.469C391.66 193.688 393.1 192.244 394.876 192.244C396.652 192.244 398.092 193.688 398.092 195.469Z" fill="url(#paint95_linear_438_3918)"/>
<path d="M342.216 227.713C342.216 229.494 340.776 230.937 339 230.937C337.224 230.937 335.784 229.494 335.784 227.713C335.784 225.932 337.224 224.489 339 224.489C340.776 224.489 342.216 225.932 342.216 227.713Z" fill="url(#paint96_linear_438_3918)"/>
<path d="M286.339 195.469C286.339 197.25 284.9 198.693 283.124 198.693C281.347 198.693 279.908 197.25 279.908 195.469C279.908 193.688 281.347 192.244 283.124 192.244C284.9 192.244 286.339 193.688 286.339 195.469Z" fill="url(#paint97_linear_438_3918)"/>
<path d="M342.216 163.224C342.216 165.005 340.776 166.449 339 166.449C337.224 166.449 335.784 165.005 335.784 163.224C335.784 161.444 337.224 160 339 160C340.776 160 342.216 161.444 342.216 163.224Z" fill="url(#paint98_linear_438_3918)"/>
<path fill-rule="evenodd" clip-rule="evenodd" d="M286.219 67.6665C286.219 69.4461 284.778 70.8887 282.999 70.8887C282.973 70.8887 282.948 70.8884 282.922 70.8878C281.969 70.9163 281.028 70.5191 280.385 69.7726L230.085 98.829C230.586 100.262 230.015 101.893 228.654 102.679C228.119 102.988 227.533 103.126 226.959 103.11C226.008 103.136 225.07 102.739 224.43 101.995L174.13 131.051C174.212 131.286 174.267 131.533 174.292 131.789C174.331 132.172 174.302 132.563 174.199 132.944C174.179 133.021 174.156 133.096 174.13 133.171L224.548 162.295C225.139 161.572 226.037 161.111 227.043 161.111C228.822 161.111 230.264 162.553 230.264 164.333C230.264 165.906 229.137 167.216 227.647 167.499V225.612C229.137 225.894 230.264 227.204 230.264 228.777C230.264 230.557 228.822 231.999 227.043 231.999C227.017 231.999 226.99 231.999 226.963 231.998C226.385 232.016 225.795 231.878 225.258 231.568C223.896 230.781 223.326 229.15 223.826 227.718L173.526 198.661C173.286 198.939 173.006 199.169 172.698 199.346C172.312 199.57 171.874 199.716 171.408 199.762C171.027 199.8 170.637 199.771 170.257 199.669C169.874 199.567 169.519 199.396 169.206 199.17C168.826 198.897 168.521 198.553 168.298 198.166C168.075 197.78 167.929 197.342 167.883 196.876C167.845 196.494 167.874 196.103 167.976 195.723C168.078 195.34 168.249 194.985 168.474 194.672C168.747 194.292 169.09 193.987 169.476 193.765C169.783 193.587 170.123 193.458 170.484 193.389V135.305C169.719 135.201 168.998 134.825 168.474 134.217L118.174 163.273C118.674 164.706 118.104 166.337 116.742 167.123C115.202 168.013 113.232 167.485 112.343 165.944C111.763 164.938 111.786 163.75 112.3 162.798L62.8224 134.217C61.8326 135.367 60.1356 135.688 58.774 134.901C57.2337 134.012 56.7059 132.041 57.5952 130.5C58.4846 128.959 60.4542 128.431 61.9945 129.32C63.3561 130.107 63.9265 131.738 63.4262 133.17L113.077 161.852C113.214 161.738 113.363 161.635 113.522 161.542C114.884 160.756 116.581 161.077 117.57 162.227L167.87 133.17C167.626 132.471 167.637 131.724 167.871 131.051L117.57 101.995C116.581 103.144 114.884 103.466 113.522 102.679C112.187 101.908 111.613 100.326 112.062 98.9141L61.6147 69.7726C60.625 70.9222 58.9279 71.2436 57.5663 70.457C57.0021 70.1311 56.5737 69.6601 56.3011 69.1183L6.26298 98.0235C6.7632 99.456 6.19282 101.087 4.83124 101.874C3.29091 102.763 1.32131 102.235 0.431998 100.694C-0.457309 99.1531 0.0704455 97.1824 1.61077 96.2926C2.97236 95.5061 4.66938 95.8274 5.65914 96.9771L55.9655 67.9169C55.9161 67.2896 56.0494 66.6415 56.3876 66.0554C57.2769 64.5142 59.2465 63.9862 60.7868 64.876C62.1484 65.6625 62.7188 67.2937 62.2186 68.7261L112.637 97.8509C113.617 96.6459 115.354 96.2962 116.742 97.0981C118.104 97.8847 118.674 99.5158 118.174 100.948L168.474 130.005C168.703 129.739 168.981 129.506 169.302 129.32C169.837 129.011 170.424 128.873 171 128.889C171.306 128.881 171.615 128.916 171.917 128.996C172.301 129.099 172.657 129.27 172.971 129.496C173.179 129.646 173.364 129.817 173.526 130.005L223.826 100.948C223.582 100.249 223.593 99.502 223.826 98.8293L173.526 69.7726C172.536 70.9222 170.839 71.2436 169.478 70.457C167.937 69.5673 167.409 67.5966 168.299 66.0554C169.188 64.5142 171.158 63.9862 172.698 64.876C174.06 65.6625 174.63 67.2937 174.13 68.7261L224.429 97.7825C224.659 97.5165 224.936 97.2838 225.258 97.0981C225.792 96.7895 226.378 96.6514 226.953 96.6671C227.903 96.6411 228.841 97.0383 229.481 97.7826L279.781 68.7261C279.534 68.0186 279.548 67.2626 279.79 66.5839C279.878 65.5716 280.442 64.6171 281.389 64.0704C281.71 63.8848 282.05 63.7609 282.395 63.695V6.38788C280.905 6.10508 279.778 4.79529 279.778 3.22221C279.778 1.44264 281.22 0 282.999 0C284.778 0 286.219 1.44264 286.219 3.22221C286.219 4.79529 285.093 6.10508 283.603 6.38788V63.6958C284.302 63.8297 284.954 64.1936 285.437 64.7549L335.737 35.6984C335.237 34.266 335.807 32.6348 337.169 31.8483C338.709 30.9585 340.679 31.4865 341.568 33.0277C342.457 34.5689 341.93 36.5395 340.389 37.4293C339.028 38.2159 337.331 37.8945 336.341 36.7449L286.041 65.8013C286.208 66.2794 286.256 66.7796 286.194 67.2631C286.211 67.3952 286.219 67.5299 286.219 67.6665ZM172.698 134.902C172.391 135.08 172.052 135.208 171.692 135.276V193.389C171.725 193.395 171.758 193.402 171.791 193.41L171.809 193.414L171.829 193.419L171.843 193.422C171.879 193.431 171.915 193.44 171.95 193.45C172.322 193.553 172.667 193.721 172.971 193.941C173.35 194.214 173.654 194.557 173.876 194.942C174.1 195.329 174.246 195.767 174.292 196.234C174.331 196.616 174.302 197.007 174.199 197.388C174.179 197.465 174.156 197.541 174.13 197.615L224.43 226.671C224.953 226.063 225.675 225.687 226.439 225.584V167.499C224.949 167.216 223.823 165.906 223.823 164.333C223.823 163.993 223.875 163.666 223.973 163.358L173.526 134.217C173.286 134.495 173.005 134.725 172.698 134.902Z" fill="url(#paint99_linear_438_3918)"/>
<defs>
<linearGradient id="paint0_linear_438_3918" x1="134" y1="307" x2="493.5" y2="66" gradientUnits="userSpaceOnUse">
<stop stop-color="#A9B1FF"/>
<stop offset="1" stop-color="#A9B1FF" stop-opacity="0"/>
</linearGradient>
<linearGradient id="paint1_linear_438_3918" x1="134" y1="307" x2="493.5" y2="66" gradientUnits="userSpaceOnUse">
<stop stop-color="#A9B1FF"/>
<stop offset="1" stop-color="#A9B1FF" stop-opacity="0"/>
</linearGradient>
<linearGradient id="paint2_linear_438_3918" x1="134" y1="307" x2="493.5" y2="66" gradientUnits="userSpaceOnUse">
<stop stop-color="#A9B1FF"/>
<stop offset="1" stop-color="#A9B1FF" stop-opacity="0"/>
</linearGradient>
<linearGradient id="paint3_linear_438_3918" x1="134" y1="307" x2="493.5" y2="66" gradientUnits="userSpaceOnUse">
<stop stop-color="#A9B1FF"/>
<stop offset="1" stop-color="#A9B1FF" stop-opacity="0"/>
</linearGradient>
<linearGradient id="paint4_linear_438_3918" x1="134" y1="307" x2="493.5" y2="66" gradientUnits="userSpaceOnUse">
<stop stop-color="#A9B1FF"/>
<stop offset="1" stop-color="#A9B1FF" stop-opacity="0"/>
</linearGradient>
<linearGradient id="paint5_linear_438_3918" x1="134" y1="307" x2="493.5" y2="66" gradientUnits="userSpaceOnUse">
<stop stop-color="#A9B1FF"/>
<stop offset="1" stop-color="#A9B1FF" stop-opacity="0"/>
</linearGradient>
<linearGradient id="paint6_linear_438_3918" x1="134" y1="307" x2="493.5" y2="66" gradientUnits="userSpaceOnUse">
<stop stop-color="#A9B1FF"/>
<stop offset="1" stop-color="#A9B1FF" stop-opacity="0"/>
</linearGradient>
<linearGradient id="paint7_linear_438_3918" x1="134" y1="307" x2="493.5" y2="66" gradientUnits="userSpaceOnUse">
<stop stop-color="#A9B1FF"/>
<stop offset="1" stop-color="#A9B1FF" stop-opacity="0"/>
</linearGradient>
<linearGradient id="paint8_linear_438_3918" x1="134" y1="307" x2="493.5" y2="66" gradientUnits="userSpaceOnUse">
<stop stop-color="#A9B1FF"/>
<stop offset="1" stop-color="#A9B1FF" stop-opacity="0"/>
</linearGradient>
<linearGradient id="paint9_linear_438_3918" x1="134" y1="307" x2="493.5" y2="66" gradientUnits="userSpaceOnUse">
<stop stop-color="#A9B1FF"/>
<stop offset="1" stop-color="#A9B1FF" stop-opacity="0"/>
</linearGradient>
<linearGradient id="paint10_linear_438_3918" x1="134" y1="307" x2="493.5" y2="66" gradientUnits="userSpaceOnUse">
<stop stop-color="#A9B1FF"/>
<stop offset="1" stop-color="#A9B1FF" stop-opacity="0"/>
</linearGradient>
<linearGradient id="paint11_linear_438_3918" x1="134" y1="307" x2="493.5" y2="66" gradientUnits="userSpaceOnUse">
<stop stop-color="#A9B1FF"/>
<stop offset="1" stop-color="#A9B1FF" stop-opacity="0"/>
</linearGradient>
<linearGradient id="paint12_linear_438_3918" x1="134" y1="307" x2="493.5" y2="66" gradientUnits="userSpaceOnUse">
<stop stop-color="#A9B1FF"/>
<stop offset="1" stop-color="#A9B1FF" stop-opacity="0"/>
</linearGradient>
<linearGradient id="paint13_linear_438_3918" x1="134" y1="307" x2="493.5" y2="66" gradientUnits="userSpaceOnUse">
<stop stop-color="#A9B1FF"/>
<stop offset="1" stop-color="#A9B1FF" stop-opacity="0"/>
</linearGradient>
<linearGradient id="paint14_linear_438_3918" x1="134" y1="307" x2="493.5" y2="66" gradientUnits="userSpaceOnUse">
<stop stop-color="#A9B1FF"/>
<stop offset="1" stop-color="#A9B1FF" stop-opacity="0"/>
</linearGradient>
<linearGradient id="paint15_linear_438_3918" x1="134" y1="307" x2="493.5" y2="66" gradientUnits="userSpaceOnUse">
<stop stop-color="#A9B1FF"/>
<stop offset="1" stop-color="#A9B1FF" stop-opacity="0"/>
</linearGradient>
<linearGradient id="paint16_linear_438_3918" x1="134" y1="307" x2="493.5" y2="66" gradientUnits="userSpaceOnUse">
<stop stop-color="#A9B1FF"/>
<stop offset="1" stop-color="#A9B1FF" stop-opacity="0"/>
</linearGradient>
<linearGradient id="paint17_linear_438_3918" x1="134" y1="307" x2="493.5" y2="66" gradientUnits="userSpaceOnUse">
<stop stop-color="#A9B1FF"/>
<stop offset="1" stop-color="#A9B1FF" stop-opacity="0"/>
</linearGradient>
<linearGradient id="paint18_linear_438_3918" x1="134" y1="307" x2="493.5" y2="66" gradientUnits="userSpaceOnUse">
<stop stop-color="#A9B1FF"/>
<stop offset="1" stop-color="#A9B1FF" stop-opacity="0"/>
</linearGradient>
<linearGradient id="paint19_linear_438_3918" x1="134" y1="307" x2="493.5" y2="66" gradientUnits="userSpaceOnUse">
<stop stop-color="#A9B1FF"/>
<stop offset="1" stop-color="#A9B1FF" stop-opacity="0"/>
</linearGradient>
<linearGradient id="paint20_linear_438_3918" x1="134" y1="307" x2="493.5" y2="66" gradientUnits="userSpaceOnUse">
<stop stop-color="#A9B1FF"/>
<stop offset="1" stop-color="#A9B1FF" stop-opacity="0"/>
</linearGradient>
<linearGradient id="paint21_linear_438_3918" x1="134" y1="307" x2="493.5" y2="66" gradientUnits="userSpaceOnUse">
<stop stop-color="#A9B1FF"/>
<stop offset="1" stop-color="#A9B1FF" stop-opacity="0"/>
</linearGradient>
<linearGradient id="paint22_linear_438_3918" x1="134" y1="307" x2="493.5" y2="66" gradientUnits="userSpaceOnUse">
<stop stop-color="#A9B1FF"/>
<stop offset="1" stop-color="#A9B1FF" stop-opacity="0"/>
</linearGradient>
<linearGradient id="paint23_linear_438_3918" x1="134" y1="307" x2="493.5" y2="66" gradientUnits="userSpaceOnUse">
<stop stop-color="#A9B1FF"/>
<stop offset="1" stop-color="#A9B1FF" stop-opacity="0"/>
</linearGradient>
<linearGradient id="paint24_linear_438_3918" x1="134" y1="307" x2="493.5" y2="66" gradientUnits="userSpaceOnUse">
<stop stop-color="#A9B1FF"/>
<stop offset="1" stop-color="#A9B1FF" stop-opacity="0"/>
</linearGradient>
<linearGradient id="paint25_linear_438_3918" x1="134" y1="307" x2="493.5" y2="66" gradientUnits="userSpaceOnUse">
<stop stop-color="#A9B1FF"/>
<stop offset="1" stop-color="#A9B1FF" stop-opacity="0"/>
</linearGradient>
<linearGradient id="paint26_linear_438_3918" x1="134" y1="307" x2="493.5" y2="66" gradientUnits="userSpaceOnUse">
<stop stop-color="#A9B1FF"/>
<stop offset="1" stop-color="#A9B1FF" stop-opacity="0"/>
</linearGradient>
<linearGradient id="paint27_linear_438_3918" x1="134" y1="307" x2="493.5" y2="66" gradientUnits="userSpaceOnUse">
<stop stop-color="#A9B1FF"/>
<stop offset="1" stop-color="#A9B1FF" stop-opacity="0"/>
</linearGradient>
<linearGradient id="paint28_linear_438_3918" x1="134" y1="307" x2="493.5" y2="66" gradientUnits="userSpaceOnUse">
<stop stop-color="#A9B1FF"/>
<stop offset="1" stop-color="#A9B1FF" stop-opacity="0"/>
</linearGradient>
<linearGradient id="paint29_linear_438_3918" x1="134" y1="307" x2="493.5" y2="66" gradientUnits="userSpaceOnUse">
<stop stop-color="#A9B1FF"/>
<stop offset="1" stop-color="#A9B1FF" stop-opacity="0"/>
</linearGradient>
<linearGradient id="paint30_linear_438_3918" x1="134" y1="307" x2="493.5" y2="66" gradientUnits="userSpaceOnUse">
<stop stop-color="#A9B1FF"/>
<stop offset="1" stop-color="#A9B1FF" stop-opacity="0"/>
</linearGradient>
<linearGradient id="paint31_linear_438_3918" x1="134" y1="307" x2="493.5" y2="66" gradientUnits="userSpaceOnUse">
<stop stop-color="#A9B1FF"/>
<stop offset="1" stop-color="#A9B1FF" stop-opacity="0"/>
</linearGradient>
<linearGradient id="paint32_linear_438_3918" x1="134" y1="307" x2="493.5" y2="66" gradientUnits="userSpaceOnUse">
<stop stop-color="#A9B1FF"/>
<stop offset="1" stop-color="#A9B1FF" stop-opacity="0"/>
</linearGradient>
<linearGradient id="paint33_linear_438_3918" x1="134" y1="307" x2="493.5" y2="66" gradientUnits="userSpaceOnUse">
<stop stop-color="#A9B1FF"/>
<stop offset="1" stop-color="#A9B1FF" stop-opacity="0"/>
</linearGradient>
<linearGradient id="paint34_linear_438_3918" x1="134" y1="307" x2="493.5" y2="66" gradientUnits="userSpaceOnUse">
<stop stop-color="#A9B1FF"/>
<stop offset="1" stop-color="#A9B1FF" stop-opacity="0"/>
</linearGradient>
<linearGradient id="paint35_linear_438_3918" x1="134" y1="307" x2="493.5" y2="66" gradientUnits="userSpaceOnUse">
<stop stop-color="#A9B1FF"/>
<stop offset="1" stop-color="#A9B1FF" stop-opacity="0"/>
</linearGradient>
<linearGradient id="paint36_linear_438_3918" x1="134" y1="307" x2="493.5" y2="66" gradientUnits="userSpaceOnUse">
<stop stop-color="#A9B1FF"/>
<stop offset="1" stop-color="#A9B1FF" stop-opacity="0"/>
</linearGradient>
<linearGradient id="paint37_linear_438_3918" x1="134" y1="307" x2="493.5" y2="66" gradientUnits="userSpaceOnUse">
<stop stop-color="#A9B1FF"/>
<stop offset="1" stop-color="#A9B1FF" stop-opacity="0"/>
</linearGradient>
<linearGradient id="paint38_linear_438_3918" x1="134" y1="307" x2="493.5" y2="66" gradientUnits="userSpaceOnUse">
<stop stop-color="#A9B1FF"/>
<stop offset="1" stop-color="#A9B1FF" stop-opacity="0"/>
</linearGradient>
<linearGradient id="paint39_linear_438_3918" x1="134" y1="307" x2="493.5" y2="66" gradientUnits="userSpaceOnUse">
<stop stop-color="#A9B1FF"/>
<stop offset="1" stop-color="#A9B1FF" stop-opacity="0"/>
</linearGradient>
<linearGradient id="paint40_linear_438_3918" x1="134" y1="307" x2="493.5" y2="66" gradientUnits="userSpaceOnUse">
<stop stop-color="#A9B1FF"/>
<stop offset="1" stop-color="#A9B1FF" stop-opacity="0"/>
</linearGradient>
<linearGradient id="paint41_linear_438_3918" x1="134" y1="307" x2="493.5" y2="66" gradientUnits="userSpaceOnUse">
<stop stop-color="#A9B1FF"/>
<stop offset="1" stop-color="#A9B1FF" stop-opacity="0"/>
</linearGradient>
<linearGradient id="paint42_linear_438_3918" x1="134" y1="307" x2="493.5" y2="66" gradientUnits="userSpaceOnUse">
<stop stop-color="#A9B1FF"/>
<stop offset="1" stop-color="#A9B1FF" stop-opacity="0"/>
</linearGradient>
<linearGradient id="paint43_linear_438_3918" x1="134" y1="307" x2="493.5" y2="66" gradientUnits="userSpaceOnUse">
<stop stop-color="#A9B1FF"/>
<stop offset="1" stop-color="#A9B1FF" stop-opacity="0"/>
</linearGradient>
<linearGradient id="paint44_linear_438_3918" x1="134" y1="307" x2="493.5" y2="66" gradientUnits="userSpaceOnUse">
<stop stop-color="#A9B1FF"/>
<stop offset="1" stop-color="#A9B1FF" stop-opacity="0"/>
</linearGradient>
<linearGradient id="paint45_linear_438_3918" x1="134" y1="307" x2="493.5" y2="66" gradientUnits="userSpaceOnUse">
<stop stop-color="#A9B1FF"/>
<stop offset="1" stop-color="#A9B1FF" stop-opacity="0"/>
</linearGradient>
<linearGradient id="paint46_linear_438_3918" x1="134" y1="307" x2="493.5" y2="66" gradientUnits="userSpaceOnUse">
<stop stop-color="#A9B1FF"/>
<stop offset="1" stop-color="#A9B1FF" stop-opacity="0"/>
</linearGradient>
<linearGradient id="paint47_linear_438_3918" x1="134" y1="307" x2="493.5" y2="66" gradientUnits="userSpaceOnUse">
<stop stop-color="#A9B1FF"/>
<stop offset="1" stop-color="#A9B1FF" stop-opacity="0"/>
</linearGradient>
<linearGradient id="paint48_linear_438_3918" x1="134" y1="307" x2="493.5" y2="66" gradientUnits="userSpaceOnUse">
<stop stop-color="#A9B1FF"/>
<stop offset="1" stop-color="#A9B1FF" stop-opacity="0"/>
</linearGradient>
<linearGradient id="paint49_linear_438_3918" x1="134" y1="307" x2="493.5" y2="66" gradientUnits="userSpaceOnUse">
<stop stop-color="#A9B1FF"/>
<stop offset="1" stop-color="#A9B1FF" stop-opacity="0"/>
</linearGradient>
<linearGradient id="paint50_linear_438_3918" x1="134" y1="307" x2="493.5" y2="66" gradientUnits="userSpaceOnUse">
<stop stop-color="#A9B1FF"/>
<stop offset="1" stop-color="#A9B1FF" stop-opacity="0"/>
</linearGradient>
<linearGradient id="paint51_linear_438_3918" x1="134" y1="307" x2="493.5" y2="66" gradientUnits="userSpaceOnUse">
<stop stop-color="#A9B1FF"/>
<stop offset="1" stop-color="#A9B1FF" stop-opacity="0"/>
</linearGradient>
<linearGradient id="paint52_linear_438_3918" x1="134" y1="307" x2="493.5" y2="66" gradientUnits="userSpaceOnUse">
<stop stop-color="#A9B1FF"/>
<stop offset="1" stop-color="#A9B1FF" stop-opacity="0"/>
</linearGradient>
<linearGradient id="paint53_linear_438_3918" x1="134" y1="307" x2="493.5" y2="66" gradientUnits="userSpaceOnUse">
<stop stop-color="#A9B1FF"/>
<stop offset="1" stop-color="#A9B1FF" stop-opacity="0"/>
</linearGradient>
<linearGradient id="paint54_linear_438_3918" x1="134" y1="307" x2="493.5" y2="66" gradientUnits="userSpaceOnUse">
<stop stop-color="#A9B1FF"/>
<stop offset="1" stop-color="#A9B1FF" stop-opacity="0"/>
</linearGradient>
<linearGradient id="paint55_linear_438_3918" x1="134" y1="307" x2="493.5" y2="66" gradientUnits="userSpaceOnUse">
<stop stop-color="#A9B1FF"/>
<stop offset="1" stop-color="#A9B1FF" stop-opacity="0"/>
</linearGradient>
<linearGradient id="paint56_linear_438_3918" x1="134" y1="307" x2="493.5" y2="66" gradientUnits="userSpaceOnUse">
<stop stop-color="#A9B1FF"/>
<stop offset="1" stop-color="#A9B1FF" stop-opacity="0"/>
</linearGradient>
<linearGradient id="paint57_linear_438_3918" x1="134" y1="307" x2="493.5" y2="66" gradientUnits="userSpaceOnUse">
<stop stop-color="#A9B1FF"/>
<stop offset="1" stop-color="#A9B1FF" stop-opacity="0"/>
</linearGradient>
<linearGradient id="paint58_linear_438_3918" x1="134" y1="307" x2="493.5" y2="66" gradientUnits="userSpaceOnUse">
<stop stop-color="#A9B1FF"/>
<stop offset="1" stop-color="#A9B1FF" stop-opacity="0"/>
</linearGradient>
<linearGradient id="paint59_linear_438_3918" x1="134" y1="307" x2="493.5" y2="66" gradientUnits="userSpaceOnUse">
<stop stop-color="#A9B1FF"/>
<stop offset="1" stop-color="#A9B1FF" stop-opacity="0"/>
</linearGradient>
<linearGradient id="paint60_linear_438_3918" x1="134" y1="307" x2="493.5" y2="66" gradientUnits="userSpaceOnUse">
<stop stop-color="#A9B1FF"/>
<stop offset="1" stop-color="#A9B1FF" stop-opacity="0"/>
</linearGradient>
<linearGradient id="paint61_linear_438_3918" x1="134" y1="307" x2="493.5" y2="66" gradientUnits="userSpaceOnUse">
<stop stop-color="#A9B1FF"/>
<stop offset="1" stop-color="#A9B1FF" stop-opacity="0"/>
</linearGradient>
<linearGradient id="paint62_linear_438_3918" x1="134" y1="307" x2="493.5" y2="66" gradientUnits="userSpaceOnUse">
<stop stop-color="#A9B1FF"/>
<stop offset="1" stop-color="#A9B1FF" stop-opacity="0"/>
</linearGradient>
<linearGradient id="paint63_linear_438_3918" x1="134" y1="307" x2="493.5" y2="66" gradientUnits="userSpaceOnUse">
<stop stop-color="#A9B1FF"/>
<stop offset="1" stop-color="#A9B1FF" stop-opacity="0"/>
</linearGradient>
<linearGradient id="paint64_linear_438_3918" x1="134" y1="307" x2="493.5" y2="66" gradientUnits="userSpaceOnUse">
<stop stop-color="#A9B1FF"/>
<stop offset="1" stop-color="#A9B1FF" stop-opacity="0"/>
</linearGradient>
<linearGradient id="paint65_linear_438_3918" x1="134" y1="307" x2="493.5" y2="66" gradientUnits="userSpaceOnUse">
<stop stop-color="#A9B1FF"/>
<stop offset="1" stop-color="#A9B1FF" stop-opacity="0"/>
</linearGradient>
<linearGradient id="paint66_linear_438_3918" x1="134" y1="307" x2="493.5" y2="66" gradientUnits="userSpaceOnUse">
<stop stop-color="#A9B1FF"/>
<stop offset="1" stop-color="#A9B1FF" stop-opacity="0"/>
</linearGradient>
<linearGradient id="paint67_linear_438_3918" x1="134" y1="307" x2="493.5" y2="66" gradientUnits="userSpaceOnUse">
<stop stop-color="#A9B1FF"/>
<stop offset="1" stop-color="#A9B1FF" stop-opacity="0"/>
</linearGradient>
<linearGradient id="paint68_linear_438_3918" x1="134" y1="307" x2="493.5" y2="66" gradientUnits="userSpaceOnUse">
<stop stop-color="#A9B1FF"/>
<stop offset="1" stop-color="#A9B1FF" stop-opacity="0"/>
</linearGradient>
<linearGradient id="paint69_linear_438_3918" x1="134" y1="307" x2="493.5" y2="66" gradientUnits="userSpaceOnUse">
<stop stop-color="#A9B1FF"/>
<stop offset="1" stop-color="#A9B1FF" stop-opacity="0"/>
</linearGradient>
<linearGradient id="paint70_linear_438_3918" x1="134" y1="307" x2="493.5" y2="66" gradientUnits="userSpaceOnUse">
<stop stop-color="#A9B1FF"/>
<stop offset="1" stop-color="#A9B1FF" stop-opacity="0"/>
</linearGradient>
<linearGradient id="paint71_linear_438_3918" x1="134" y1="307" x2="493.5" y2="66" gradientUnits="userSpaceOnUse">
<stop stop-color="#A9B1FF"/>
<stop offset="1" stop-color="#A9B1FF" stop-opacity="0"/>
</linearGradient>
<linearGradient id="paint72_linear_438_3918" x1="134" y1="307" x2="493.5" y2="66" gradientUnits="userSpaceOnUse">
<stop stop-color="#A9B1FF"/>
<stop offset="1" stop-color="#A9B1FF" stop-opacity="0"/>
</linearGradient>
<linearGradient id="paint73_linear_438_3918" x1="134" y1="307" x2="493.5" y2="66" gradientUnits="userSpaceOnUse">
<stop stop-color="#A9B1FF"/>
<stop offset="1" stop-color="#A9B1FF" stop-opacity="0"/>
</linearGradient>
<linearGradient id="paint74_linear_438_3918" x1="134" y1="307" x2="493.5" y2="66" gradientUnits="userSpaceOnUse">
<stop stop-color="#A9B1FF"/>
<stop offset="1" stop-color="#A9B1FF" stop-opacity="0"/>
</linearGradient>
<linearGradient id="paint75_linear_438_3918" x1="134" y1="307" x2="493.5" y2="66" gradientUnits="userSpaceOnUse">
<stop stop-color="#A9B1FF"/>
<stop offset="1" stop-color="#A9B1FF" stop-opacity="0"/>
</linearGradient>
<linearGradient id="paint76_linear_438_3918" x1="134" y1="307" x2="493.5" y2="66" gradientUnits="userSpaceOnUse">
<stop stop-color="#A9B1FF"/>
<stop offset="1" stop-color="#A9B1FF" stop-opacity="0"/>
</linearGradient>
<linearGradient id="paint77_linear_438_3918" x1="134" y1="307" x2="493.5" y2="66" gradientUnits="userSpaceOnUse">
<stop stop-color="#A9B1FF"/>
<stop offset="1" stop-color="#A9B1FF" stop-opacity="0"/>
</linearGradient>
<linearGradient id="paint78_linear_438_3918" x1="134" y1="307" x2="493.5" y2="66" gradientUnits="userSpaceOnUse">
<stop stop-color="#A9B1FF"/>
<stop offset="1" stop-color="#A9B1FF" stop-opacity="0"/>
</linearGradient>
<linearGradient id="paint79_linear_438_3918" x1="134" y1="307" x2="493.5" y2="66" gradientUnits="userSpaceOnUse">
<stop stop-color="#A9B1FF"/>
<stop offset="1" stop-color="#A9B1FF" stop-opacity="0"/>
</linearGradient>
<linearGradient id="paint80_linear_438_3918" x1="134" y1="307" x2="493.5" y2="66" gradientUnits="userSpaceOnUse">
<stop stop-color="#A9B1FF"/>
<stop offset="1" stop-color="#A9B1FF" stop-opacity="0"/>
</linearGradient>
<linearGradient id="paint81_linear_438_3918" x1="134" y1="307" x2="493.5" y2="66" gradientUnits="userSpaceOnUse">
<stop stop-color="#A9B1FF"/>
<stop offset="1" stop-color="#A9B1FF" stop-opacity="0"/>
</linearGradient>
<linearGradient id="paint82_linear_438_3918" x1="134" y1="307" x2="493.5" y2="66" gradientUnits="userSpaceOnUse">
<stop stop-color="#A9B1FF"/>
<stop offset="1" stop-color="#A9B1FF" stop-opacity="0"/>
</linearGradient>
<linearGradient id="paint83_linear_438_3918" x1="134" y1="307" x2="493.5" y2="66" gradientUnits="userSpaceOnUse">
<stop stop-color="#A9B1FF"/>
<stop offset="1" stop-color="#A9B1FF" stop-opacity="0"/>
</linearGradient>
<linearGradient id="paint84_linear_438_3918" x1="134" y1="307" x2="493.5" y2="66" gradientUnits="userSpaceOnUse">
<stop stop-color="#A9B1FF"/>
<stop offset="1" stop-color="#A9B1FF" stop-opacity="0"/>
</linearGradient>
<linearGradient id="paint85_linear_438_3918" x1="134" y1="307" x2="493.5" y2="66" gradientUnits="userSpaceOnUse">
<stop stop-color="#A9B1FF"/>
<stop offset="1" stop-color="#A9B1FF" stop-opacity="0"/>
</linearGradient>
<linearGradient id="paint86_linear_438_3918" x1="134" y1="307" x2="493.5" y2="66" gradientUnits="userSpaceOnUse">
<stop stop-color="#A9B1FF"/>
<stop offset="1" stop-color="#A9B1FF" stop-opacity="0"/>
</linearGradient>
<linearGradient id="paint87_linear_438_3918" x1="134" y1="307" x2="493.5" y2="66" gradientUnits="userSpaceOnUse">
<stop stop-color="#A9B1FF"/>
<stop offset="1" stop-color="#A9B1FF" stop-opacity="0"/>
</linearGradient>
<linearGradient id="paint88_linear_438_3918" x1="134" y1="307" x2="493.5" y2="66" gradientUnits="userSpaceOnUse">
<stop stop-color="#A9B1FF"/>
<stop offset="1" stop-color="#A9B1FF" stop-opacity="0"/>
</linearGradient>
<linearGradient id="paint89_linear_438_3918" x1="134" y1="307" x2="493.5" y2="66" gradientUnits="userSpaceOnUse">
<stop stop-color="#A9B1FF"/>
<stop offset="1" stop-color="#A9B1FF" stop-opacity="0"/>
</linearGradient>
<linearGradient id="paint90_linear_438_3918" x1="134" y1="307" x2="493.5" y2="66" gradientUnits="userSpaceOnUse">
<stop stop-color="#A9B1FF"/>
<stop offset="1" stop-color="#A9B1FF" stop-opacity="0"/>
</linearGradient>
<linearGradient id="paint91_linear_438_3918" x1="134" y1="307" x2="493.5" y2="66" gradientUnits="userSpaceOnUse">
<stop stop-color="#A9B1FF"/>
<stop offset="1" stop-color="#A9B1FF" stop-opacity="0"/>
</linearGradient>
<linearGradient id="paint92_linear_438_3918" x1="134" y1="307" x2="493.5" y2="66" gradientUnits="userSpaceOnUse">
<stop stop-color="#A9B1FF"/>
<stop offset="1" stop-color="#A9B1FF" stop-opacity="0"/>
</linearGradient>
<linearGradient id="paint93_linear_438_3918" x1="134" y1="307" x2="493.5" y2="66" gradientUnits="userSpaceOnUse">
<stop stop-color="#A9B1FF"/>
<stop offset="1" stop-color="#A9B1FF" stop-opacity="0"/>
</linearGradient>
<linearGradient id="paint94_linear_438_3918" x1="134" y1="307" x2="493.5" y2="66" gradientUnits="userSpaceOnUse">
<stop stop-color="#A9B1FF"/>
<stop offset="1" stop-color="#A9B1FF" stop-opacity="0"/>
</linearGradient>
<linearGradient id="paint95_linear_438_3918" x1="134" y1="307" x2="493.5" y2="66" gradientUnits="userSpaceOnUse">
<stop stop-color="#A9B1FF"/>
<stop offset="1" stop-color="#A9B1FF" stop-opacity="0"/>
</linearGradient>
<linearGradient id="paint96_linear_438_3918" x1="134" y1="307" x2="493.5" y2="66" gradientUnits="userSpaceOnUse">
<stop stop-color="#A9B1FF"/>
<stop offset="1" stop-color="#A9B1FF" stop-opacity="0"/>
</linearGradient>
<linearGradient id="paint97_linear_438_3918" x1="134" y1="307" x2="493.5" y2="66" gradientUnits="userSpaceOnUse">
<stop stop-color="#A9B1FF"/>
<stop offset="1" stop-color="#A9B1FF" stop-opacity="0"/>
</linearGradient>
<linearGradient id="paint98_linear_438_3918" x1="134" y1="307" x2="493.5" y2="66" gradientUnits="userSpaceOnUse">
<stop stop-color="#A9B1FF"/>
<stop offset="1" stop-color="#A9B1FF" stop-opacity="0"/>
</linearGradient>
<linearGradient id="paint99_linear_438_3918" x1="217" y1="332" x2="-69.5" y2="35" gradientUnits="userSpaceOnUse">
<stop stop-color="#A9B1FF"/>
<stop offset="1" stop-color="#A9B1FF" stop-opacity="0"/>
</linearGradient>
</defs>
</svg>
